<?xml version="1.0" encoding="UTF-8" standalone="no"?>
<!DOCTYPE svg PUBLIC "-//W3C//DTD SVG 1.1//EN"
 "http://www.w3.org/Graphics/SVG/1.1/DTD/svg11.dtd">
<!-- Generated by graphviz version 2.36.0 (20140111.2315)
 -->
<!-- Title: wdfTreeNode Pages: 1 -->
<svg width="738pt" height="426pt"
 viewBox="0.00 0.00 738.00 426.00" xmlns="http://www.w3.org/2000/svg" xmlns:xlink="http://www.w3.org/1999/xlink">
<g id="graph0" class="graph" transform="scale(1 1) rotate(0) translate(4 422)">
<title>wdfTreeNode</title>
<!-- Node1 -->
<g id="node1" class="node"><title>Node1</title>
<polygon fill="#bfbfbf" stroke="black" points="246.5,-240.5 246.5,-417.5 355.5,-417.5 355.5,-240.5 246.5,-240.5"/>
<text text-anchor="middle" x="301" y="-407.1" font-family="Helvetica,sans-Serif" font-size="8.00">wdfTreeNode</text>
<polyline fill="none" stroke="black" points="246.5,-400.5 355.5,-400.5 "/>
<text text-anchor="start" x="254.5" y="-390.1" font-family="Helvetica,sans-Serif" font-size="8.00">+ downPorts</text>
<text text-anchor="start" x="254.5" y="-381.1" font-family="Helvetica,sans-Serif" font-size="8.00">+ childrenNodes</text>
<text text-anchor="start" x="254.5" y="-372.1" font-family="Helvetica,sans-Serif" font-size="8.00">+ upPort</text>
<text text-anchor="start" x="254.5" y="-363.1" font-family="Helvetica,sans-Serif" font-size="8.00">+ parentNode</text>
<polyline fill="none" stroke="black" points="246.5,-356.5 355.5,-356.5 "/>
<text text-anchor="start" x="254.5" y="-346.1" font-family="Helvetica,sans-Serif" font-size="8.00">+ wdfTreeNode()</text>
<text text-anchor="start" x="254.5" y="-337.1" font-family="Helvetica,sans-Serif" font-size="8.00">+ ~wdfTreeNode()</text>
<text text-anchor="start" x="254.5" y="-328.1" font-family="Helvetica,sans-Serif" font-size="8.00">+ setParentInChildren()</text>
<text text-anchor="start" x="254.5" y="-319.1" font-family="Helvetica,sans-Serif" font-size="8.00">+ createPorts()</text>
<text text-anchor="start" x="254.5" y="-310.1" font-family="Helvetica,sans-Serif" font-size="8.00">+ adaptPorts()</text>
<text text-anchor="start" x="254.5" y="-301.1" font-family="Helvetica,sans-Serif" font-size="8.00">+ calculateUpRes()</text>
<text text-anchor="start" x="254.5" y="-292.1" font-family="Helvetica,sans-Serif" font-size="8.00">+ calculateScatterCoeffs()</text>
<text text-anchor="start" x="254.5" y="-283.1" font-family="Helvetica,sans-Serif" font-size="8.00">+ pullWaveUp()</text>
<text text-anchor="start" x="254.5" y="-274.1" font-family="Helvetica,sans-Serif" font-size="8.00">+ calculateUpB()</text>
<text text-anchor="start" x="254.5" y="-265.1" font-family="Helvetica,sans-Serif" font-size="8.00">+ pushWaveDown()</text>
<text text-anchor="start" x="254.5" y="-256.1" font-family="Helvetica,sans-Serif" font-size="8.00">+ calculateDownB()</text>
<text text-anchor="start" x="254.5" y="-247.1" font-family="Helvetica,sans-Serif" font-size="8.00">+ getType()</text>
</g>
<!-- Node2 -->
<g id="node2" class="node"><title>Node2</title>
<g id="a_node2"><a xlink:href="classwdf_terminated_adapter.html" target="_top" xlink:title="{wdfTerminatedAdapter\n||+ wdfTerminatedAdapter()\l}">
<polygon fill="none" stroke="black" points="127,-147.5 127,-198.5 239,-198.5 239,-147.5 127,-147.5"/>
<text text-anchor="middle" x="183" y="-188.1" font-family="Helvetica,sans-Serif" font-size="8.00">wdfTerminatedAdapter</text>
<polyline fill="none" stroke="black" points="127,-181.5 239,-181.5 "/>
<text text-anchor="middle" x="183" y="-171.1" font-family="Helvetica,sans-Serif" font-size="8.00"> </text>
<polyline fill="none" stroke="black" points="127,-164.5 239,-164.5 "/>
<text text-anchor="start" x="135" y="-154.1" font-family="Helvetica,sans-Serif" font-size="8.00">+ wdfTerminatedAdapter()</text>
</a>
</g>
</g>
<!-- Node1&#45;&gt;Node2 -->
<g id="edge1" class="edge"><title>Node1&#45;&gt;Node2</title>
<path fill="none" stroke="midnightblue" d="M240.126,-248.554C226.272,-230.473 212.555,-212.572 202.037,-198.844"/>
<polygon fill="none" stroke="midnightblue" points="237.63,-251.051 246.49,-256.86 243.186,-246.794 237.63,-251.051"/>
</g>
<!-- Node5 -->
<g id="node5" class="node"><title>Node5</title>
<g id="a_node5"><a xlink:href="classwdf_terminated_leaf.html" target="_top" xlink:title="{wdfTerminatedLeaf\n||+ wdfTerminatedLeaf()\l+ calculateScatterCoeffs()\l}">
<polygon fill="none" stroke="black" points="365.5,-143 365.5,-203 474.5,-203 474.5,-143 365.5,-143"/>
<text text-anchor="middle" x="420" y="-192.6" font-family="Helvetica,sans-Serif" font-size="8.00">wdfTerminatedLeaf</text>
<polyline fill="none" stroke="black" points="365.5,-186 474.5,-186 "/>
<text text-anchor="middle" x="420" y="-175.6" font-family="Helvetica,sans-Serif" font-size="8.00"> </text>
<polyline fill="none" stroke="black" points="365.5,-169 474.5,-169 "/>
<text text-anchor="start" x="373.5" y="-158.6" font-family="Helvetica,sans-Serif" font-size="8.00">+ wdfTerminatedLeaf()</text>
<text text-anchor="start" x="373.5" y="-149.6" font-family="Helvetica,sans-Serif" font-size="8.00">+ calculateScatterCoeffs()</text>
</a>
</g>
</g>
<!-- Node1&#45;&gt;Node5 -->
<g id="edge4" class="edge"><title>Node1&#45;&gt;Node5</title>
<path fill="none" stroke="midnightblue" d="M361.876,-249.22C374.618,-232.73 387.275,-216.35 397.51,-203.105"/>
<polygon fill="none" stroke="midnightblue" points="358.969,-247.257 355.624,-257.31 364.508,-251.537 358.969,-247.257"/>
</g>
<!-- Node3 -->
<g id="node3" class="node"><title>Node3</title>
<g id="a_node3"><a xlink:href="classwdf_terminated_parallel.html" target="_top" xlink:title="{wdfTerminatedParallel\n||+ wdfTerminatedParallel()\l+ calculateUpRes()\l+ calculateScatterCoeffs()\l+ calculateUpB()\l+ calculateDownB()\l+ getType()\l}">
<polygon fill="none" stroke="black" points="0,-5 0,-101 110,-101 110,-5 0,-5"/>
<text text-anchor="middle" x="55" y="-90.6" font-family="Helvetica,sans-Serif" font-size="8.00">wdfTerminatedParallel</text>
<polyline fill="none" stroke="black" points="0,-84 110,-84 "/>
<text text-anchor="middle" x="55" y="-73.6" font-family="Helvetica,sans-Serif" font-size="8.00"> </text>
<polyline fill="none" stroke="black" points="0,-67 110,-67 "/>
<text text-anchor="start" x="8" y="-56.6" font-family="Helvetica,sans-Serif" font-size="8.00">+ wdfTerminatedParallel()</text>
<text text-anchor="start" x="8" y="-47.6" font-family="Helvetica,sans-Serif" font-size="8.00">+ calculateUpRes()</text>
<text text-anchor="start" x="8" y="-38.6" font-family="Helvetica,sans-Serif" font-size="8.00">+ calculateScatterCoeffs()</text>
<text text-anchor="start" x="8" y="-29.6" font-family="Helvetica,sans-Serif" font-size="8.00">+ calculateUpB()</text>
<text text-anchor="start" x="8" y="-20.6" font-family="Helvetica,sans-Serif" font-size="8.00">+ calculateDownB()</text>
<text text-anchor="start" x="8" y="-11.6" font-family="Helvetica,sans-Serif" font-size="8.00">+ getType()</text>
</a>
</g>
</g>
<!-- Node2&#45;&gt;Node3 -->
<g id="edge2" class="edge"><title>Node2&#45;&gt;Node3</title>
<path fill="none" stroke="midnightblue" d="M148.731,-140.408C135.643,-128.343 120.423,-114.312 106.102,-101.11"/>
<polygon fill="none" stroke="midnightblue" points="146.442,-143.059 156.167,-147.263 151.187,-137.912 146.442,-143.059"/>
</g>
<!-- Node4 -->
<g id="node4" class="node"><title>Node4</title>
<g id="a_node4"><a xlink:href="classwdf_terminated_series.html" target="_top" xlink:title="{wdfTerminatedSeries\n||+ wdfTerminatedSeries()\l+ calculateUpRes()\l+ calculateScatterCoeffs()\l+ calculateUpB()\l+ calculateDownB()\l+ getType()\l}">
<polygon fill="none" stroke="black" points="128.5,-5 128.5,-101 237.5,-101 237.5,-5 128.5,-5"/>
<text text-anchor="middle" x="183" y="-90.6" font-family="Helvetica,sans-Serif" font-size="8.00">wdfTerminatedSeries</text>
<polyline fill="none" stroke="black" points="128.5,-84 237.5,-84 "/>
<text text-anchor="middle" x="183" y="-73.6" font-family="Helvetica,sans-Serif" font-size="8.00"> </text>
<polyline fill="none" stroke="black" points="128.5,-67 237.5,-67 "/>
<text text-anchor="start" x="136.5" y="-56.6" font-family="Helvetica,sans-Serif" font-size="8.00">+ wdfTerminatedSeries()</text>
<text text-anchor="start" x="136.5" y="-47.6" font-family="Helvetica,sans-Serif" font-size="8.00">+ calculateUpRes()</text>
<text text-anchor="start" x="136.5" y="-38.6" font-family="Helvetica,sans-Serif" font-size="8.00">+ calculateScatterCoeffs()</text>
<text text-anchor="start" x="136.5" y="-29.6" font-family="Helvetica,sans-Serif" font-size="8.00">+ calculateUpB()</text>
<text text-anchor="start" x="136.5" y="-20.6" font-family="Helvetica,sans-Serif" font-size="8.00">+ calculateDownB()</text>
<text text-anchor="start" x="136.5" y="-11.6" font-family="Helvetica,sans-Serif" font-size="8.00">+ getType()</text>
</a>
</g>
</g>
<!-- Node2&#45;&gt;Node4 -->
<g id="edge3" class="edge"><title>Node2&#45;&gt;Node4</title>
<path fill="none" stroke="midnightblue" d="M183,-136.976C183,-125.728 183,-113.078 183,-101.11"/>
<polygon fill="none" stroke="midnightblue" points="179.5,-137.263 183,-147.263 186.5,-137.263 179.5,-137.263"/>
</g>
<!-- Node6 -->
<g id="node6" class="node"><title>Node6</title>
<g id="a_node6"><a xlink:href="classwdf_terminated_cap.html" target="_top" xlink:title="{wdfTerminatedCap\n|+ C\l+ T\l+ state\l|+ wdfTerminatedCap()\l+ calculateUpRes()\l+ calculateUpB()\l+ calculateDownB()\l+ getType()\l}">
<polygon fill="none" stroke="black" points="256,-0.5 256,-105.5 354,-105.5 354,-0.5 256,-0.5"/>
<text text-anchor="middle" x="305" y="-95.1" font-family="Helvetica,sans-Serif" font-size="8.00">wdfTerminatedCap</text>
<polyline fill="none" stroke="black" points="256,-88.5 354,-88.5 "/>
<text text-anchor="start" x="264" y="-78.1" font-family="Helvetica,sans-Serif" font-size="8.00">+ C</text>
<text text-anchor="start" x="264" y="-69.1" font-family="Helvetica,sans-Serif" font-size="8.00">+ T</text>
<text text-anchor="start" x="264" y="-60.1" font-family="Helvetica,sans-Serif" font-size="8.00">+ state</text>
<polyline fill="none" stroke="black" points="256,-53.5 354,-53.5 "/>
<text text-anchor="start" x="264" y="-43.1" font-family="Helvetica,sans-Serif" font-size="8.00">+ wdfTerminatedCap()</text>
<text text-anchor="start" x="264" y="-34.1" font-family="Helvetica,sans-Serif" font-size="8.00">+ calculateUpRes()</text>
<text text-anchor="start" x="264" y="-25.1" font-family="Helvetica,sans-Serif" font-size="8.00">+ calculateUpB()</text>
<text text-anchor="start" x="264" y="-16.1" font-family="Helvetica,sans-Serif" font-size="8.00">+ calculateDownB()</text>
<text text-anchor="start" x="264" y="-7.1" font-family="Helvetica,sans-Serif" font-size="8.00">+ getType()</text>
</a>
</g>
</g>
<!-- Node5&#45;&gt;Node6 -->
<g id="edge5" class="edge"><title>Node5&#45;&gt;Node6</title>
<path fill="none" stroke="midnightblue" d="M384.452,-135.525C374.868,-125.691 364.327,-114.875 354.143,-104.425"/>
<polygon fill="none" stroke="midnightblue" points="382.087,-138.113 391.573,-142.831 387.1,-133.227 382.087,-138.113"/>
</g>
<!-- Node7 -->
<g id="node7" class="node"><title>Node7</title>
<g id="a_node7"><a xlink:href="classwdf_terminated_ind.html" target="_top" xlink:title="{wdfTerminatedInd\n|+ L\l+ T\l+ state\l|+ wdfTerminatedInd()\l+ calculateUpRes()\l+ calculateUpB()\l+ calculateDownB()\l+ getType()\l}">
<polygon fill="none" stroke="black" points="372.5,-0.5 372.5,-105.5 467.5,-105.5 467.5,-0.5 372.5,-0.5"/>
<text text-anchor="middle" x="420" y="-95.1" font-family="Helvetica,sans-Serif" font-size="8.00">wdfTerminatedInd</text>
<polyline fill="none" stroke="black" points="372.5,-88.5 467.5,-88.5 "/>
<text text-anchor="start" x="380.5" y="-78.1" font-family="Helvetica,sans-Serif" font-size="8.00">+ L</text>
<text text-anchor="start" x="380.5" y="-69.1" font-family="Helvetica,sans-Serif" font-size="8.00">+ T</text>
<text text-anchor="start" x="380.5" y="-60.1" font-family="Helvetica,sans-Serif" font-size="8.00">+ state</text>
<polyline fill="none" stroke="black" points="372.5,-53.5 467.5,-53.5 "/>
<text text-anchor="start" x="380.5" y="-43.1" font-family="Helvetica,sans-Serif" font-size="8.00">+ wdfTerminatedInd()</text>
<text text-anchor="start" x="380.5" y="-34.1" font-family="Helvetica,sans-Serif" font-size="8.00">+ calculateUpRes()</text>
<text text-anchor="start" x="380.5" y="-25.1" font-family="Helvetica,sans-Serif" font-size="8.00">+ calculateUpB()</text>
<text text-anchor="start" x="380.5" y="-16.1" font-family="Helvetica,sans-Serif" font-size="8.00">+ calculateDownB()</text>
<text text-anchor="start" x="380.5" y="-7.1" font-family="Helvetica,sans-Serif" font-size="8.00">+ getType()</text>
</a>
</g>
</g>
<!-- Node5&#45;&gt;Node7 -->
<g id="edge6" class="edge"><title>Node5&#45;&gt;Node7</title>
<path fill="none" stroke="midnightblue" d="M420,-132.696C420,-124.082 420,-114.835 420,-105.816"/>
<polygon fill="none" stroke="midnightblue" points="416.5,-132.831 420,-142.831 423.5,-132.831 416.5,-132.831"/>
</g>
<!-- Node8 -->
<g id="node8" class="node"><title>Node8</title>
<g id="a_node8"><a xlink:href="classwdf_terminated_res.html" target="_top" xlink:title="{wdfTerminatedRes\n|+ R\l|+ wdfTerminatedRes()\l+ calculateUpRes()\l+ calculateUpB()\l+ calculateDownB()\l+ getType()\l}">
<polygon fill="none" stroke="black" points="486,-9.5 486,-96.5 584,-96.5 584,-9.5 486,-9.5"/>
<text text-anchor="middle" x="535" y="-86.1" font-family="Helvetica,sans-Serif" font-size="8.00">wdfTerminatedRes</text>
<polyline fill="none" stroke="black" points="486,-79.5 584,-79.5 "/>
<text text-anchor="start" x="494" y="-69.1" font-family="Helvetica,sans-Serif" font-size="8.00">+ R</text>
<polyline fill="none" stroke="black" points="486,-62.5 584,-62.5 "/>
<text text-anchor="start" x="494" y="-52.1" font-family="Helvetica,sans-Serif" font-size="8.00">+ wdfTerminatedRes()</text>
<text text-anchor="start" x="494" y="-43.1" font-family="Helvetica,sans-Serif" font-size="8.00">+ calculateUpRes()</text>
<text text-anchor="start" x="494" y="-34.1" font-family="Helvetica,sans-Serif" font-size="8.00">+ calculateUpB()</text>
<text text-anchor="start" x="494" y="-25.1" font-family="Helvetica,sans-Serif" font-size="8.00">+ calculateDownB()</text>
<text text-anchor="start" x="494" y="-16.1" font-family="Helvetica,sans-Serif" font-size="8.00">+ getType()</text>
</a>
</g>
</g>
<!-- Node5&#45;&gt;Node8 -->
<g id="edge7" class="edge"><title>Node5&#45;&gt;Node8</title>
<path fill="none" stroke="midnightblue" d="M455.66,-135.409C467.621,-123.136 481.064,-109.344 493.437,-96.6476"/>
<polygon fill="none" stroke="midnightblue" points="452.9,-133.227 448.427,-142.831 457.913,-138.113 452.9,-133.227"/>
</g>
<!-- Node9 -->
<g id="node9" class="node"><title>Node9</title>
<g id="a_node9"><a xlink:href="classwdf_terminated_res_v_source.html" target="_top" xlink:title="{wdfTerminatedResVSource\n|+ Vs\l+ Rp\l+ RSer\l|+ wdfTerminatedResVSource()\l+ calculateUpRes()\l+ calculateUpB()\l+ calculateDownB()\l+ getType()\l}">
<polygon fill="none" stroke="black" points="602,-0.5 602,-105.5 730,-105.5 730,-0.5 602,-0.5"/>
<text text-anchor="middle" x="666" y="-95.1" font-family="Helvetica,sans-Serif" font-size="8.00">wdfTerminatedResVSource</text>
<polyline fill="none" stroke="black" points="602,-88.5 730,-88.5 "/>
<text text-anchor="start" x="610" y="-78.1" font-family="Helvetica,sans-Serif" font-size="8.00">+ Vs</text>
<text text-anchor="start" x="610" y="-69.1" font-family="Helvetica,sans-Serif" font-size="8.00">+ Rp</text>
<text text-anchor="start" x="610" y="-60.1" font-family="Helvetica,sans-Serif" font-size="8.00">+ RSer</text>
<polyline fill="none" stroke="black" points="602,-53.5 730,-53.5 "/>
<text text-anchor="start" x="610" y="-43.1" font-family="Helvetica,sans-Serif" font-size="8.00">+ wdfTerminatedResVSource()</text>
<text text-anchor="start" x="610" y="-34.1" font-family="Helvetica,sans-Serif" font-size="8.00">+ calculateUpRes()</text>
<text text-anchor="start" x="610" y="-25.1" font-family="Helvetica,sans-Serif" font-size="8.00">+ calculateUpB()</text>
<text text-anchor="start" x="610" y="-16.1" font-family="Helvetica,sans-Serif" font-size="8.00">+ calculateDownB()</text>
<text text-anchor="start" x="610" y="-7.1" font-family="Helvetica,sans-Serif" font-size="8.00">+ getType()</text>
</a>
</g>
</g>
<!-- Node5&#45;&gt;Node9 -->
<g id="edge8" class="edge"><title>Node5&#45;&gt;Node9</title>
<path fill="none" stroke="midnightblue" d="M484.138,-151.62C517.213,-140.067 557.701,-124.271 592,-106 595.187,-104.302 598.399,-102.489 601.606,-100.597"/>
<polygon fill="none" stroke="midnightblue" points="482.888,-148.349 474.573,-154.916 485.168,-154.967 482.888,-148.349"/>
</g>
</g>
</svg>
