<?xml version="1.0" encoding="UTF-8" standalone="no"?>
<!DOCTYPE svg PUBLIC "-//W3C//DTD SVG 1.1//EN"
 "http://www.w3.org/Graphics/SVG/1.1/DTD/svg11.dtd">
<!-- Generated by graphviz version 2.36.0 (20140111.2315)
 -->
<!-- Title: wdfTerminatedParallel Pages: 1 -->
<svg width="318pt" height="626pt"
 viewBox="0.00 0.00 318.00 626.00" xmlns="http://www.w3.org/2000/svg" xmlns:xlink="http://www.w3.org/1999/xlink">
<g id="graph0" class="graph" transform="scale(1 1) rotate(0) translate(4 622)">
<title>wdfTerminatedParallel</title>
<!-- Node1 -->
<g id="node1" class="node"><title>Node1</title>
<polygon fill="#bfbfbf" stroke="black" points="111,-1 111,-97 221,-97 221,-1 111,-1"/>
<text text-anchor="middle" x="166" y="-86.6" font-family="Helvetica,sans-Serif" font-size="8.00">wdfTerminatedParallel</text>
<polyline fill="none" stroke="black" points="111,-80 221,-80 "/>
<text text-anchor="middle" x="166" y="-69.6" font-family="Helvetica,sans-Serif" font-size="8.00"> </text>
<polyline fill="none" stroke="black" points="111,-63 221,-63 "/>
<text text-anchor="start" x="119" y="-52.6" font-family="Helvetica,sans-Serif" font-size="8.00">+ wdfTerminatedParallel()</text>
<text text-anchor="start" x="119" y="-43.6" font-family="Helvetica,sans-Serif" font-size="8.00">+ calculateUpRes()</text>
<text text-anchor="start" x="119" y="-34.6" font-family="Helvetica,sans-Serif" font-size="8.00">+ calculateScatterCoeffs()</text>
<text text-anchor="start" x="119" y="-25.6" font-family="Helvetica,sans-Serif" font-size="8.00">+ calculateUpB()</text>
<text text-anchor="start" x="119" y="-16.6" font-family="Helvetica,sans-Serif" font-size="8.00">+ calculateDownB()</text>
<text text-anchor="start" x="119" y="-7.6" font-family="Helvetica,sans-Serif" font-size="8.00">+ getType()</text>
</g>
<!-- Node2 -->
<g id="node2" class="node"><title>Node2</title>
<g id="a_node2"><a xlink:href="classwdf_terminated_adapter.html" target="_top" xlink:title="{wdfTerminatedAdapter\n||+ wdfTerminatedAdapter()\l}">
<polygon fill="none" stroke="black" points="110,-136.5 110,-187.5 222,-187.5 222,-136.5 110,-136.5"/>
<text text-anchor="middle" x="166" y="-177.1" font-family="Helvetica,sans-Serif" font-size="8.00">wdfTerminatedAdapter</text>
<polyline fill="none" stroke="black" points="110,-170.5 222,-170.5 "/>
<text text-anchor="middle" x="166" y="-160.1" font-family="Helvetica,sans-Serif" font-size="8.00"> </text>
<polyline fill="none" stroke="black" points="110,-153.5 222,-153.5 "/>
<text text-anchor="start" x="118" y="-143.1" font-family="Helvetica,sans-Serif" font-size="8.00">+ wdfTerminatedAdapter()</text>
</a>
</g>
</g>
<!-- Node2&#45;&gt;Node1 -->
<g id="edge1" class="edge"><title>Node2&#45;&gt;Node1</title>
<path fill="none" stroke="midnightblue" d="M166,-126.123C166,-116.996 166,-107.003 166,-97.3456"/>
<polygon fill="none" stroke="midnightblue" points="162.5,-126.365 166,-136.366 169.5,-126.366 162.5,-126.365"/>
</g>
<!-- Node3 -->
<g id="node3" class="node"><title>Node3</title>
<g id="a_node3"><a xlink:href="classwdf_tree_node.html" target="_top" xlink:title="{wdfTreeNode\n||+ wdfTreeNode()\l+ ~wdfTreeNode()\l+ setParentInChildren()\l+ createPorts()\l+ adaptPorts()\l+ calculateUpRes()\l+ calculateScatterCoeffs()\l+ pullWaveUp()\l+ calculateUpB()\l+ pushWaveDown()\l+ calculateDownB()\l+ getType()\l}">
<polygon fill="none" stroke="black" points="111.5,-227 111.5,-377 220.5,-377 220.5,-227 111.5,-227"/>
<text text-anchor="middle" x="166" y="-366.6" font-family="Helvetica,sans-Serif" font-size="8.00">wdfTreeNode</text>
<polyline fill="none" stroke="black" points="111.5,-360 220.5,-360 "/>
<text text-anchor="middle" x="166" y="-349.6" font-family="Helvetica,sans-Serif" font-size="8.00"> </text>
<polyline fill="none" stroke="black" points="111.5,-343 220.5,-343 "/>
<text text-anchor="start" x="119.5" y="-332.6" font-family="Helvetica,sans-Serif" font-size="8.00">+ wdfTreeNode()</text>
<text text-anchor="start" x="119.5" y="-323.6" font-family="Helvetica,sans-Serif" font-size="8.00">+ ~wdfTreeNode()</text>
<text text-anchor="start" x="119.5" y="-314.6" font-family="Helvetica,sans-Serif" font-size="8.00">+ setParentInChildren()</text>
<text text-anchor="start" x="119.5" y="-305.6" font-family="Helvetica,sans-Serif" font-size="8.00">+ createPorts()</text>
<text text-anchor="start" x="119.5" y="-296.6" font-family="Helvetica,sans-Serif" font-size="8.00">+ adaptPorts()</text>
<text text-anchor="start" x="119.5" y="-287.6" font-family="Helvetica,sans-Serif" font-size="8.00">+ calculateUpRes()</text>
<text text-anchor="start" x="119.5" y="-278.6" font-family="Helvetica,sans-Serif" font-size="8.00">+ calculateScatterCoeffs()</text>
<text text-anchor="start" x="119.5" y="-269.6" font-family="Helvetica,sans-Serif" font-size="8.00">+ pullWaveUp()</text>
<text text-anchor="start" x="119.5" y="-260.6" font-family="Helvetica,sans-Serif" font-size="8.00">+ calculateUpB()</text>
<text text-anchor="start" x="119.5" y="-251.6" font-family="Helvetica,sans-Serif" font-size="8.00">+ pushWaveDown()</text>
<text text-anchor="start" x="119.5" y="-242.6" font-family="Helvetica,sans-Serif" font-size="8.00">+ calculateDownB()</text>
<text text-anchor="start" x="119.5" y="-233.6" font-family="Helvetica,sans-Serif" font-size="8.00">+ getType()</text>
</a>
</g>
</g>
<!-- Node3&#45;&gt;Node2 -->
<g id="edge2" class="edge"><title>Node3&#45;&gt;Node2</title>
<path fill="none" stroke="midnightblue" d="M166,-216.545C166,-206.028 166,-196.016 166,-187.556"/>
<polygon fill="none" stroke="midnightblue" points="162.5,-216.749 166,-226.749 169.5,-216.749 162.5,-216.749"/>
</g>
<!-- Node3&#45;&gt;Node3 -->
<g id="edge7" class="edge"><title>Node3&#45;&gt;Node3</title>
<path fill="none" stroke="#404040" d="M220.629,-318.72C230.822,-316.661 238,-311.088 238,-302 238,-296.888 235.729,-292.888 231.927,-290"/>
<polygon fill="none" stroke="#404040" points="231.701,-289.906 224.623,-291.284 220.629,-285.28 227.707,-283.902 231.701,-289.906"/>
<text text-anchor="middle" x="263" y="-300.1" font-family="Helvetica,sans-Serif" font-size="8.00"> +parentNode</text>
</g>
<!-- Node4 -->
<g id="node4" class="node"><title>Node4</title>
<polygon fill="none" stroke="#bfbfbf" points="-0.5,-433.5 -0.5,-484.5 106.5,-484.5 106.5,-433.5 -0.5,-433.5"/>
<text text-anchor="middle" x="53" y="-474.1" font-family="Helvetica,sans-Serif" font-size="8.00">vector&lt; wdfTreeNode * &gt;</text>
<polyline fill="none" stroke="#bfbfbf" points="-0.5,-467.5 106.5,-467.5 "/>
<text text-anchor="middle" x="53" y="-457.1" font-family="Helvetica,sans-Serif" font-size="8.00"> </text>
<polyline fill="none" stroke="#bfbfbf" points="-0.5,-450.5 106.5,-450.5 "/>
<text text-anchor="middle" x="53" y="-440.1" font-family="Helvetica,sans-Serif" font-size="8.00"> </text>
</g>
<!-- Node4&#45;&gt;Node3 -->
<g id="edge3" class="edge"><title>Node4&#45;&gt;Node3</title>
<path fill="none" stroke="#404040" d="M70.9052,-433.44C80.2692,-420.595 92.3425,-404.035 104.724,-387.051"/>
<polygon fill="none" stroke="#404040" points="104.962,-386.725 105.264,-379.52 112.031,-377.028 111.729,-384.233 104.962,-386.725"/>
<text text-anchor="middle" x="126" y="-399.1" font-family="Helvetica,sans-Serif" font-size="8.00"> +childrenNodes</text>
</g>
<!-- Node5 -->
<g id="node5" class="node"><title>Node5</title>
<g id="a_node5"><a xlink:href="classwdf_port.html" target="_top" xlink:title="{wdfPort\n||+ wdfPort()\l+ getPortVoltage()\l+ getPortCurrent()\l}">
<polygon fill="none" stroke="black" points="124.5,-424.5 124.5,-493.5 207.5,-493.5 207.5,-424.5 124.5,-424.5"/>
<text text-anchor="middle" x="166" y="-483.1" font-family="Helvetica,sans-Serif" font-size="8.00">wdfPort</text>
<polyline fill="none" stroke="black" points="124.5,-476.5 207.5,-476.5 "/>
<text text-anchor="middle" x="166" y="-466.1" font-family="Helvetica,sans-Serif" font-size="8.00"> </text>
<polyline fill="none" stroke="black" points="124.5,-459.5 207.5,-459.5 "/>
<text text-anchor="start" x="132.5" y="-449.1" font-family="Helvetica,sans-Serif" font-size="8.00">+ wdfPort()</text>
<text text-anchor="start" x="132.5" y="-440.1" font-family="Helvetica,sans-Serif" font-size="8.00">+ getPortVoltage()</text>
<text text-anchor="start" x="132.5" y="-431.1" font-family="Helvetica,sans-Serif" font-size="8.00">+ getPortCurrent()</text>
</a>
</g>
</g>
<!-- Node5&#45;&gt;Node3 -->
<g id="edge4" class="edge"><title>Node5&#45;&gt;Node3</title>
<path fill="none" stroke="#404040" d="M166,-424.367C166,-413.95 166,-401.956 166,-389.65"/>
<polygon fill="none" stroke="#404040" points="166,-389.287 162,-383.287 166,-377.287 170,-383.287 166,-389.287"/>
<text text-anchor="middle" x="181.5" y="-399.1" font-family="Helvetica,sans-Serif" font-size="8.00"> +upPort</text>
</g>
<!-- Node6 -->
<g id="node6" class="node"><title>Node6</title>
<polygon fill="none" stroke="#bfbfbf" points="93.5,-566.5 93.5,-617.5 134.5,-617.5 134.5,-566.5 93.5,-566.5"/>
<text text-anchor="middle" x="114" y="-607.1" font-family="Helvetica,sans-Serif" font-size="8.00">double</text>
<polyline fill="none" stroke="#bfbfbf" points="93.5,-600.5 134.5,-600.5 "/>
<text text-anchor="middle" x="114" y="-590.1" font-family="Helvetica,sans-Serif" font-size="8.00"> </text>
<polyline fill="none" stroke="#bfbfbf" points="93.5,-583.5 134.5,-583.5 "/>
<text text-anchor="middle" x="114" y="-573.1" font-family="Helvetica,sans-Serif" font-size="8.00"> </text>
</g>
<!-- Node6&#45;&gt;Node5 -->
<g id="edge5" class="edge"><title>Node6&#45;&gt;Node5</title>
<path fill="none" stroke="#404040" d="M123.781,-566.36C130.6,-549.18 139.898,-525.756 148.033,-505.263"/>
<polygon fill="none" stroke="#404040" points="148.107,-505.076 146.603,-498.023 152.535,-493.922 154.039,-500.975 148.107,-505.076"/>
<text text-anchor="middle" x="153" y="-541.6" font-family="Helvetica,sans-Serif" font-size="8.00"> +a</text>
<text text-anchor="middle" x="153" y="-532.6" font-family="Helvetica,sans-Serif" font-size="8.00">+b</text>
<text text-anchor="middle" x="153" y="-523.6" font-family="Helvetica,sans-Serif" font-size="8.00">+Rp</text>
<text text-anchor="middle" x="153" y="-514.6" font-family="Helvetica,sans-Serif" font-size="8.00">+Gp</text>
</g>
<!-- Node7 -->
<g id="node7" class="node"><title>Node7</title>
<polygon fill="none" stroke="#bfbfbf" points="153,-566.5 153,-617.5 285,-617.5 285,-566.5 153,-566.5"/>
<text text-anchor="middle" x="219" y="-607.1" font-family="Helvetica,sans-Serif" font-size="8.00">ScopedPointer&lt; wdfTreeNode &gt;</text>
<polyline fill="none" stroke="#bfbfbf" points="153,-600.5 285,-600.5 "/>
<text text-anchor="middle" x="219" y="-590.1" font-family="Helvetica,sans-Serif" font-size="8.00"> </text>
<polyline fill="none" stroke="#bfbfbf" points="153,-583.5 285,-583.5 "/>
<text text-anchor="middle" x="219" y="-573.1" font-family="Helvetica,sans-Serif" font-size="8.00"> </text>
</g>
<!-- Node7&#45;&gt;Node5 -->
<g id="edge6" class="edge"><title>Node7&#45;&gt;Node5</title>
<path fill="none" stroke="#404040" d="M209.031,-566.36C202.08,-549.18 192.604,-525.756 184.312,-505.263"/>
<polygon fill="none" stroke="#404040" points="184.225,-505.046 178.267,-500.984 179.724,-493.922 185.683,-497.984 184.225,-505.046"/>
<text text-anchor="middle" x="233" y="-528.1" font-family="Helvetica,sans-Serif" font-size="8.00"> +connectedNode</text>
</g>
<!-- Node8 -->
<g id="node8" class="node"><title>Node8</title>
<polygon fill="none" stroke="#bfbfbf" points="225.5,-433.5 225.5,-484.5 310.5,-484.5 310.5,-433.5 225.5,-433.5"/>
<text text-anchor="middle" x="268" y="-474.1" font-family="Helvetica,sans-Serif" font-size="8.00">vector&lt; wdfPort * &gt;</text>
<polyline fill="none" stroke="#bfbfbf" points="225.5,-467.5 310.5,-467.5 "/>
<text text-anchor="middle" x="268" y="-457.1" font-family="Helvetica,sans-Serif" font-size="8.00"> </text>
<polyline fill="none" stroke="#bfbfbf" points="225.5,-450.5 310.5,-450.5 "/>
<text text-anchor="middle" x="268" y="-440.1" font-family="Helvetica,sans-Serif" font-size="8.00"> </text>
</g>
<!-- Node8&#45;&gt;Node3 -->
<g id="edge8" class="edge"><title>Node8&#45;&gt;Node3</title>
<path fill="none" stroke="#404040" d="M251.838,-433.44C243.464,-420.715 232.691,-404.344 221.624,-387.527"/>
<polygon fill="none" stroke="#404040" points="221.312,-387.052 214.672,-384.239 214.715,-377.028 221.355,-379.841 221.312,-387.052"/>
<text text-anchor="middle" x="256" y="-399.1" font-family="Helvetica,sans-Serif" font-size="8.00"> +downPorts</text>
</g>
</g>
</svg>
