<?xml version="1.0" encoding="UTF-8" standalone="no"?>
<!DOCTYPE svg PUBLIC "-//W3C//DTD SVG 1.1//EN"
 "http://www.w3.org/Graphics/SVG/1.1/DTD/svg11.dtd">
<!-- Generated by graphviz version 2.36.0 (20140111.2315)
 -->
<!-- Title: /home/ccrma/Development/montana/Libs/wdfClass/nlModelClass.cpp Pages: 1 -->
<svg width="133pt" height="152pt"
 viewBox="0.00 0.00 133.00 152.00" xmlns="http://www.w3.org/2000/svg" xmlns:xlink="http://www.w3.org/1999/xlink">
<g id="graph0" class="graph" transform="scale(1 1) rotate(0) translate(4 148)">
<title>/home/ccrma/Development/montana/Libs/wdfClass/nlModelClass.cpp</title>
<!-- Node1 -->
<g id="node1" class="node"><title>Node1</title>
<polygon fill="#bfbfbf" stroke="black" points="3.5,-108.5 3.5,-143.5 116.5,-143.5 116.5,-108.5 3.5,-108.5"/>
<text text-anchor="start" x="11.5" y="-133.1" font-family="Helvetica,sans-Serif" font-size="8.00">/home/ccrma/Development</text>
<text text-anchor="start" x="11.5" y="-124.1" font-family="Helvetica,sans-Serif" font-size="8.00">/montana/Libs/wdfClass</text>
<text text-anchor="middle" x="60" y="-115.1" font-family="Helvetica,sans-Serif" font-size="8.00">/nlModelClass.cpp</text>
</g>
<!-- Node2 -->
<g id="node2" class="node"><title>Node2</title>
<g id="a_node2"><a xlink:href="nl_model_class_8h.html" target="_top" xlink:title="nlModelClass.h">
<polygon fill="none" stroke="black" points="24.5,-54.5 24.5,-71.5 95.5,-71.5 95.5,-54.5 24.5,-54.5"/>
<text text-anchor="middle" x="60" y="-61.1" font-family="Helvetica,sans-Serif" font-size="8.00">nlModelClass.h</text>
</a>
</g>
</g>
<!-- Node1&#45;&gt;Node2 -->
<g id="edge1" class="edge"><title>Node1&#45;&gt;Node2</title>
<path fill="none" stroke="midnightblue" d="M60,-108.331C60,-100.086 60,-90.1291 60,-81.7423"/>
<polygon fill="midnightblue" stroke="midnightblue" points="63.5001,-81.587 60,-71.587 56.5001,-81.587 63.5001,-81.587"/>
</g>
<!-- Node3 -->
<g id="node3" class="node"><title>Node3</title>
<polygon fill="none" stroke="#bfbfbf" points="-0.5,-0.5 -0.5,-17.5 48.5,-17.5 48.5,-0.5 -0.5,-0.5"/>
<text text-anchor="middle" x="24" y="-7.1" font-family="Helvetica,sans-Serif" font-size="8.00">armadillo</text>
</g>
<!-- Node2&#45;&gt;Node3 -->
<g id="edge2" class="edge"><title>Node2&#45;&gt;Node3</title>
<path fill="none" stroke="midnightblue" d="M54.6881,-54.3272C49.5833,-46.9536 41.7084,-35.5787 35.2141,-26.1981"/>
<polygon fill="midnightblue" stroke="midnightblue" points="37.9035,-23.9339 29.3337,-17.7043 32.1482,-27.9184 37.9035,-23.9339"/>
</g>
<!-- Node4 -->
<g id="node4" class="node"><title>Node4</title>
<g id="a_node4"><a xlink:href="wdf_types_8h.html" target="_top" xlink:title="wdfTypes.h">
<polygon fill="none" stroke="black" points="67,-0.5 67,-17.5 125,-17.5 125,-0.5 67,-0.5"/>
<text text-anchor="middle" x="96" y="-7.1" font-family="Helvetica,sans-Serif" font-size="8.00">wdfTypes.h</text>
</a>
</g>
</g>
<!-- Node2&#45;&gt;Node4 -->
<g id="edge3" class="edge"><title>Node2&#45;&gt;Node4</title>
<path fill="none" stroke="midnightblue" d="M65.3119,-54.3272C70.4167,-46.9536 78.2916,-35.5787 84.7859,-26.1981"/>
<polygon fill="midnightblue" stroke="midnightblue" points="87.8518,-27.9184 90.6663,-17.7043 82.0965,-23.9339 87.8518,-27.9184"/>
</g>
</g>
</svg>
