<?xml version="1.0" encoding="UTF-8" standalone="no"?>
<!DOCTYPE svg PUBLIC "-//W3C//DTD SVG 1.1//EN"
 "http://www.w3.org/Graphics/SVG/1.1/DTD/svg11.dtd">
<!-- Generated by graphviz version 2.36.0 (20140111.2315)
 -->
<!-- Title: wdfRootSimple Pages: 1 -->
<svg width="126pt" height="230pt"
 viewBox="0.00 0.00 126.00 230.00" xmlns="http://www.w3.org/2000/svg" xmlns:xlink="http://www.w3.org/1999/xlink">
<g id="graph0" class="graph" transform="scale(1 1) rotate(0) translate(4 226)">
<title>wdfRootSimple</title>
<!-- Node1 -->
<g id="node1" class="node"><title>Node1</title>
<polygon fill="#bfbfbf" stroke="black" points="0,-0.5 0,-87.5 118,-87.5 118,-0.5 0,-0.5"/>
<text text-anchor="middle" x="59" y="-77.1" font-family="Helvetica,sans-Serif" font-size="8.00">wdfRootSimple</text>
<polyline fill="none" stroke="black" points="0,-70.5 118,-70.5 "/>
<text text-anchor="middle" x="59" y="-60.1" font-family="Helvetica,sans-Serif" font-size="8.00"> </text>
<polyline fill="none" stroke="black" points="0,-53.5 118,-53.5 "/>
<text text-anchor="start" x="8" y="-43.1" font-family="Helvetica,sans-Serif" font-size="8.00">+ wdfRootSimple()</text>
<text text-anchor="start" x="8" y="-34.1" font-family="Helvetica,sans-Serif" font-size="8.00">+ setPortResistances()</text>
<text text-anchor="start" x="8" y="-25.1" font-family="Helvetica,sans-Serif" font-size="8.00">+ processAscendingWaves()</text>
<text text-anchor="start" x="8" y="-16.1" font-family="Helvetica,sans-Serif" font-size="8.00">+ getRootMatrPtr()</text>
<text text-anchor="start" x="8" y="-7.1" font-family="Helvetica,sans-Serif" font-size="8.00">+ getType()</text>
</g>
<!-- Node2 -->
<g id="node2" class="node"><title>Node2</title>
<g id="a_node2"><a xlink:href="classwdf_root.html" target="_top" xlink:title="{wdfRoot\n||+ wdfRoot()\l+ ~wdfRoot()\l+ setPortResistances()\l+ processAscendingWaves()\l+ getRootMatrPtr()\l+ getType()\l}">
<polygon fill="none" stroke="black" points="0,-125 0,-221 118,-221 118,-125 0,-125"/>
<text text-anchor="middle" x="59" y="-210.6" font-family="Helvetica,sans-Serif" font-size="8.00">wdfRoot</text>
<polyline fill="none" stroke="black" points="0,-204 118,-204 "/>
<text text-anchor="middle" x="59" y="-193.6" font-family="Helvetica,sans-Serif" font-size="8.00"> </text>
<polyline fill="none" stroke="black" points="0,-187 118,-187 "/>
<text text-anchor="start" x="8" y="-176.6" font-family="Helvetica,sans-Serif" font-size="8.00">+ wdfRoot()</text>
<text text-anchor="start" x="8" y="-167.6" font-family="Helvetica,sans-Serif" font-size="8.00">+ ~wdfRoot()</text>
<text text-anchor="start" x="8" y="-158.6" font-family="Helvetica,sans-Serif" font-size="8.00">+ setPortResistances()</text>
<text text-anchor="start" x="8" y="-149.6" font-family="Helvetica,sans-Serif" font-size="8.00">+ processAscendingWaves()</text>
<text text-anchor="start" x="8" y="-140.6" font-family="Helvetica,sans-Serif" font-size="8.00">+ getRootMatrPtr()</text>
<text text-anchor="start" x="8" y="-131.6" font-family="Helvetica,sans-Serif" font-size="8.00">+ getType()</text>
</a>
</g>
</g>
<!-- Node2&#45;&gt;Node1 -->
<g id="edge1" class="edge"><title>Node2&#45;&gt;Node1</title>
<path fill="none" stroke="midnightblue" d="M59,-114.609C59,-105.565 59,-96.3545 59,-87.7198"/>
<polygon fill="none" stroke="midnightblue" points="55.5001,-114.71 59,-124.71 62.5001,-114.71 55.5001,-114.71"/>
</g>
</g>
</svg>
