<?xml version="1.0" encoding="UTF-8" standalone="no"?>
<!DOCTYPE svg PUBLIC "-//W3C//DTD SVG 1.1//EN"
 "http://www.w3.org/Graphics/SVG/1.1/DTD/svg11.dtd">
<!-- Generated by graphviz version 2.36.0 (20140111.2315)
 -->
<!-- Title: nlModel Pages: 1 -->
<svg width="441pt" height="176pt"
 viewBox="0.00 0.00 441.00 176.00" xmlns="http://www.w3.org/2000/svg" xmlns:xlink="http://www.w3.org/1999/xlink">
<g id="graph0" class="graph" transform="scale(1 1) rotate(0) translate(4 172)">
<title>nlModel</title>
<!-- Node1 -->
<g id="node1" class="node"><title>Node1</title>
<polygon fill="#bfbfbf" stroke="black" points="184.5,-98.5 184.5,-167.5 261.5,-167.5 261.5,-98.5 184.5,-98.5"/>
<text text-anchor="middle" x="223" y="-157.1" font-family="Helvetica,sans-Serif" font-size="8.00">nlModel</text>
<polyline fill="none" stroke="black" points="184.5,-150.5 261.5,-150.5 "/>
<text text-anchor="middle" x="223" y="-140.1" font-family="Helvetica,sans-Serif" font-size="8.00"> </text>
<polyline fill="none" stroke="black" points="184.5,-133.5 261.5,-133.5 "/>
<text text-anchor="start" x="192.5" y="-123.1" font-family="Helvetica,sans-Serif" font-size="8.00">+ nlModel()</text>
<text text-anchor="start" x="192.5" y="-114.1" font-family="Helvetica,sans-Serif" font-size="8.00">+ calculate()</text>
<text text-anchor="start" x="192.5" y="-105.1" font-family="Helvetica,sans-Serif" font-size="8.00">+ getNumPorts()</text>
</g>
<!-- Node2 -->
<g id="node2" class="node"><title>Node2</title>
<g id="a_node2"><a xlink:href="classbjt_em_model.html" target="_top" xlink:title="{bjtEmModel\n||+ bjtEmModel()\l+ calculate()\l}">
<polygon fill="none" stroke="black" points="-0.5,-1 -0.5,-61 70.5,-61 70.5,-1 -0.5,-1"/>
<text text-anchor="middle" x="35" y="-50.6" font-family="Helvetica,sans-Serif" font-size="8.00">bjtEmModel</text>
<polyline fill="none" stroke="black" points="-0.5,-44 70.5,-44 "/>
<text text-anchor="middle" x="35" y="-33.6" font-family="Helvetica,sans-Serif" font-size="8.00"> </text>
<polyline fill="none" stroke="black" points="-0.5,-27 70.5,-27 "/>
<text text-anchor="start" x="7.5" y="-16.6" font-family="Helvetica,sans-Serif" font-size="8.00">+ bjtEmModel()</text>
<text text-anchor="start" x="7.5" y="-7.6" font-family="Helvetica,sans-Serif" font-size="8.00">+ calculate()</text>
</a>
</g>
</g>
<!-- Node1&#45;&gt;Node2 -->
<g id="edge1" class="edge"><title>Node1&#45;&gt;Node2</title>
<path fill="none" stroke="midnightblue" d="M175.115,-110.506C146.943,-97.3826 110.898,-79.757 80,-62 76.9065,-60.2221 73.7398,-58.3111 70.5899,-56.3455"/>
<polygon fill="none" stroke="midnightblue" points="173.803,-113.755 184.348,-114.777 176.742,-107.402 173.803,-113.755"/>
</g>
<!-- Node3 -->
<g id="node3" class="node"><title>Node3</title>
<g id="a_node3"><a xlink:href="classdiode_ap_model.html" target="_top" xlink:title="{diodeApModel\n||+ diodeApModel()\l+ calculate()\l}">
<polygon fill="none" stroke="black" points="89,-1 89,-61 169,-61 169,-1 89,-1"/>
<text text-anchor="middle" x="129" y="-50.6" font-family="Helvetica,sans-Serif" font-size="8.00">diodeApModel</text>
<polyline fill="none" stroke="black" points="89,-44 169,-44 "/>
<text text-anchor="middle" x="129" y="-33.6" font-family="Helvetica,sans-Serif" font-size="8.00"> </text>
<polyline fill="none" stroke="black" points="89,-27 169,-27 "/>
<text text-anchor="start" x="97" y="-16.6" font-family="Helvetica,sans-Serif" font-size="8.00">+ diodeApModel()</text>
<text text-anchor="start" x="97" y="-7.6" font-family="Helvetica,sans-Serif" font-size="8.00">+ calculate()</text>
</a>
</g>
</g>
<!-- Node1&#45;&gt;Node3 -->
<g id="edge2" class="edge"><title>Node1&#45;&gt;Node3</title>
<path fill="none" stroke="midnightblue" d="M184.407,-90.9437C175.063,-81.0029 165.26,-70.5747 156.542,-61.3003"/>
<polygon fill="none" stroke="midnightblue" points="182.039,-93.5342 191.438,-98.4233 187.139,-88.7398 182.039,-93.5342"/>
</g>
<!-- Node4 -->
<g id="node4" class="node"><title>Node4</title>
<g id="a_node4"><a xlink:href="classdiode_model.html" target="_top" xlink:title="{diodeModel\n||+ diodeModel()\l+ calculate()\l}">
<polygon fill="none" stroke="black" points="187.5,-1 187.5,-61 258.5,-61 258.5,-1 187.5,-1"/>
<text text-anchor="middle" x="223" y="-50.6" font-family="Helvetica,sans-Serif" font-size="8.00">diodeModel</text>
<polyline fill="none" stroke="black" points="187.5,-44 258.5,-44 "/>
<text text-anchor="middle" x="223" y="-33.6" font-family="Helvetica,sans-Serif" font-size="8.00"> </text>
<polyline fill="none" stroke="black" points="187.5,-27 258.5,-27 "/>
<text text-anchor="start" x="195.5" y="-16.6" font-family="Helvetica,sans-Serif" font-size="8.00">+ diodeModel()</text>
<text text-anchor="start" x="195.5" y="-7.6" font-family="Helvetica,sans-Serif" font-size="8.00">+ calculate()</text>
</a>
</g>
</g>
<!-- Node1&#45;&gt;Node4 -->
<g id="edge3" class="edge"><title>Node1&#45;&gt;Node4</title>
<path fill="none" stroke="midnightblue" d="M223,-88.3021C223,-79.1716 223,-69.7563 223,-61.3003"/>
<polygon fill="none" stroke="midnightblue" points="219.5,-88.4232 223,-98.4233 226.5,-88.4233 219.5,-88.4232"/>
</g>
<!-- Node5 -->
<g id="node5" class="node"><title>Node5</title>
<g id="a_node5"><a xlink:href="classtri_ca_model.html" target="_top" xlink:title="{triCaModel\n||+ triCaModel()\l+ calculate()\l}">
<polygon fill="none" stroke="black" points="277,-1 277,-61 345,-61 345,-1 277,-1"/>
<text text-anchor="middle" x="311" y="-50.6" font-family="Helvetica,sans-Serif" font-size="8.00">triCaModel</text>
<polyline fill="none" stroke="black" points="277,-44 345,-44 "/>
<text text-anchor="middle" x="311" y="-33.6" font-family="Helvetica,sans-Serif" font-size="8.00"> </text>
<polyline fill="none" stroke="black" points="277,-27 345,-27 "/>
<text text-anchor="start" x="285" y="-16.6" font-family="Helvetica,sans-Serif" font-size="8.00">+ triCaModel()</text>
<text text-anchor="start" x="285" y="-7.6" font-family="Helvetica,sans-Serif" font-size="8.00">+ calculate()</text>
</a>
</g>
</g>
<!-- Node1&#45;&gt;Node5 -->
<g id="edge4" class="edge"><title>Node1&#45;&gt;Node5</title>
<path fill="none" stroke="midnightblue" d="M259.387,-90.6512C268.057,-80.7986 277.134,-70.4837 285.216,-61.3003"/>
<polygon fill="none" stroke="midnightblue" points="256.526,-88.6039 252.548,-98.4233 261.781,-93.2283 256.526,-88.6039"/>
</g>
<!-- Node6 -->
<g id="node6" class="node"><title>Node6</title>
<g id="a_node6"><a xlink:href="classtri_dw_model.html" target="_top" xlink:title="{triDwModel\n||+ triDwModel()\l+ calculate()\l}">
<polygon fill="none" stroke="black" points="363,-1 363,-61 433,-61 433,-1 363,-1"/>
<text text-anchor="middle" x="398" y="-50.6" font-family="Helvetica,sans-Serif" font-size="8.00">triDwModel</text>
<polyline fill="none" stroke="black" points="363,-44 433,-44 "/>
<text text-anchor="middle" x="398" y="-33.6" font-family="Helvetica,sans-Serif" font-size="8.00"> </text>
<polyline fill="none" stroke="black" points="363,-27 433,-27 "/>
<text text-anchor="start" x="371" y="-16.6" font-family="Helvetica,sans-Serif" font-size="8.00">+ triDwModel()</text>
<text text-anchor="start" x="371" y="-7.6" font-family="Helvetica,sans-Serif" font-size="8.00">+ calculate()</text>
</a>
</g>
</g>
<!-- Node1&#45;&gt;Node6 -->
<g id="edge5" class="edge"><title>Node1&#45;&gt;Node6</title>
<path fill="none" stroke="midnightblue" d="M270.7,-108.084C295.844,-95.0856 326.99,-78.3595 354,-62 356.847,-60.2757 359.763,-58.4431 362.673,-56.5667"/>
<polygon fill="none" stroke="midnightblue" points="269.021,-105.012 261.727,-112.697 272.221,-111.238 269.021,-105.012"/>
</g>
</g>
</svg>
