<?xml version="1.0" encoding="UTF-8" standalone="no"?>
<!DOCTYPE svg PUBLIC "-//W3C//DTD SVG 1.1//EN"
 "http://www.w3.org/Graphics/SVG/1.1/DTD/svg11.dtd">
<!-- Generated by graphviz version 2.36.0 (20140111.2315)
 -->
<!-- Title: wdfTerminatedInd Pages: 1 -->
<svg width="367pt" height="626pt"
 viewBox="0.00 0.00 367.00 626.00" xmlns="http://www.w3.org/2000/svg" xmlns:xlink="http://www.w3.org/1999/xlink">
<g id="graph0" class="graph" transform="scale(1 1) rotate(0) translate(4 622)">
<title>wdfTerminatedInd</title>
<!-- Node1 -->
<g id="node1" class="node"><title>Node1</title>
<polygon fill="#bfbfbf" stroke="black" points="4.5,-0.5 4.5,-87.5 99.5,-87.5 99.5,-0.5 4.5,-0.5"/>
<text text-anchor="middle" x="52" y="-77.1" font-family="Helvetica,sans-Serif" font-size="8.00">wdfTerminatedInd</text>
<polyline fill="none" stroke="black" points="4.5,-70.5 99.5,-70.5 "/>
<text text-anchor="middle" x="52" y="-60.1" font-family="Helvetica,sans-Serif" font-size="8.00"> </text>
<polyline fill="none" stroke="black" points="4.5,-53.5 99.5,-53.5 "/>
<text text-anchor="start" x="12.5" y="-43.1" font-family="Helvetica,sans-Serif" font-size="8.00">+ wdfTerminatedInd()</text>
<text text-anchor="start" x="12.5" y="-34.1" font-family="Helvetica,sans-Serif" font-size="8.00">+ calculateUpRes()</text>
<text text-anchor="start" x="12.5" y="-25.1" font-family="Helvetica,sans-Serif" font-size="8.00">+ calculateUpB()</text>
<text text-anchor="start" x="12.5" y="-16.1" font-family="Helvetica,sans-Serif" font-size="8.00">+ calculateDownB()</text>
<text text-anchor="start" x="12.5" y="-7.1" font-family="Helvetica,sans-Serif" font-size="8.00">+ getType()</text>
</g>
<!-- Node2 -->
<g id="node2" class="node"><title>Node2</title>
<g id="a_node2"><a xlink:href="classwdf_terminated_leaf.html" target="_top" xlink:title="{wdfTerminatedLeaf\n||+ wdfTerminatedLeaf()\l+ calculateScatterCoeffs()\l}">
<polygon fill="none" stroke="black" points="70.5,-127 70.5,-187 179.5,-187 179.5,-127 70.5,-127"/>
<text text-anchor="middle" x="125" y="-176.6" font-family="Helvetica,sans-Serif" font-size="8.00">wdfTerminatedLeaf</text>
<polyline fill="none" stroke="black" points="70.5,-170 179.5,-170 "/>
<text text-anchor="middle" x="125" y="-159.6" font-family="Helvetica,sans-Serif" font-size="8.00"> </text>
<polyline fill="none" stroke="black" points="70.5,-153 179.5,-153 "/>
<text text-anchor="start" x="78.5" y="-142.6" font-family="Helvetica,sans-Serif" font-size="8.00">+ wdfTerminatedLeaf()</text>
<text text-anchor="start" x="78.5" y="-133.6" font-family="Helvetica,sans-Serif" font-size="8.00">+ calculateScatterCoeffs()</text>
</a>
</g>
</g>
<!-- Node2&#45;&gt;Node1 -->
<g id="edge1" class="edge"><title>Node2&#45;&gt;Node1</title>
<path fill="none" stroke="midnightblue" d="M100.289,-118.425C93.8045,-108.566 86.7641,-97.8605 80.116,-87.7518"/>
<polygon fill="none" stroke="midnightblue" points="97.401,-120.404 105.82,-126.836 103.25,-116.558 97.401,-120.404"/>
</g>
<!-- Node3 -->
<g id="node3" class="node"><title>Node3</title>
<g id="a_node3"><a xlink:href="classwdf_tree_node.html" target="_top" xlink:title="{wdfTreeNode\n||+ wdfTreeNode()\l+ ~wdfTreeNode()\l+ setParentInChildren()\l+ createPorts()\l+ adaptPorts()\l+ calculateUpRes()\l+ calculateScatterCoeffs()\l+ pullWaveUp()\l+ calculateUpB()\l+ pushWaveDown()\l+ calculateDownB()\l+ getType()\l}">
<polygon fill="none" stroke="black" points="126.5,-227 126.5,-377 235.5,-377 235.5,-227 126.5,-227"/>
<text text-anchor="middle" x="181" y="-366.6" font-family="Helvetica,sans-Serif" font-size="8.00">wdfTreeNode</text>
<polyline fill="none" stroke="black" points="126.5,-360 235.5,-360 "/>
<text text-anchor="middle" x="181" y="-349.6" font-family="Helvetica,sans-Serif" font-size="8.00"> </text>
<polyline fill="none" stroke="black" points="126.5,-343 235.5,-343 "/>
<text text-anchor="start" x="134.5" y="-332.6" font-family="Helvetica,sans-Serif" font-size="8.00">+ wdfTreeNode()</text>
<text text-anchor="start" x="134.5" y="-323.6" font-family="Helvetica,sans-Serif" font-size="8.00">+ ~wdfTreeNode()</text>
<text text-anchor="start" x="134.5" y="-314.6" font-family="Helvetica,sans-Serif" font-size="8.00">+ setParentInChildren()</text>
<text text-anchor="start" x="134.5" y="-305.6" font-family="Helvetica,sans-Serif" font-size="8.00">+ createPorts()</text>
<text text-anchor="start" x="134.5" y="-296.6" font-family="Helvetica,sans-Serif" font-size="8.00">+ adaptPorts()</text>
<text text-anchor="start" x="134.5" y="-287.6" font-family="Helvetica,sans-Serif" font-size="8.00">+ calculateUpRes()</text>
<text text-anchor="start" x="134.5" y="-278.6" font-family="Helvetica,sans-Serif" font-size="8.00">+ calculateScatterCoeffs()</text>
<text text-anchor="start" x="134.5" y="-269.6" font-family="Helvetica,sans-Serif" font-size="8.00">+ pullWaveUp()</text>
<text text-anchor="start" x="134.5" y="-260.6" font-family="Helvetica,sans-Serif" font-size="8.00">+ calculateUpB()</text>
<text text-anchor="start" x="134.5" y="-251.6" font-family="Helvetica,sans-Serif" font-size="8.00">+ pushWaveDown()</text>
<text text-anchor="start" x="134.5" y="-242.6" font-family="Helvetica,sans-Serif" font-size="8.00">+ calculateDownB()</text>
<text text-anchor="start" x="134.5" y="-233.6" font-family="Helvetica,sans-Serif" font-size="8.00">+ getType()</text>
</a>
</g>
</g>
<!-- Node3&#45;&gt;Node2 -->
<g id="edge2" class="edge"><title>Node3&#45;&gt;Node2</title>
<path fill="none" stroke="midnightblue" d="M148.261,-217.398C144.02,-206.569 139.929,-196.122 136.391,-187.089"/>
<polygon fill="none" stroke="midnightblue" points="145.11,-218.952 152.016,-226.987 151.628,-216.399 145.11,-218.952"/>
</g>
<!-- Node3&#45;&gt;Node3 -->
<g id="edge7" class="edge"><title>Node3&#45;&gt;Node3</title>
<path fill="none" stroke="#404040" d="M235.629,-318.72C245.822,-316.661 253,-311.088 253,-302 253,-296.888 250.729,-292.888 246.927,-290"/>
<polygon fill="none" stroke="#404040" points="246.701,-289.906 239.623,-291.284 235.629,-285.28 242.707,-283.902 246.701,-289.906"/>
<text text-anchor="middle" x="278" y="-300.1" font-family="Helvetica,sans-Serif" font-size="8.00"> +parentNode</text>
</g>
<!-- Node4 -->
<g id="node4" class="node"><title>Node4</title>
<polygon fill="none" stroke="#bfbfbf" points="252.5,-433.5 252.5,-484.5 359.5,-484.5 359.5,-433.5 252.5,-433.5"/>
<text text-anchor="middle" x="306" y="-474.1" font-family="Helvetica,sans-Serif" font-size="8.00">vector&lt; wdfTreeNode * &gt;</text>
<polyline fill="none" stroke="#bfbfbf" points="252.5,-467.5 359.5,-467.5 "/>
<text text-anchor="middle" x="306" y="-457.1" font-family="Helvetica,sans-Serif" font-size="8.00"> </text>
<polyline fill="none" stroke="#bfbfbf" points="252.5,-450.5 359.5,-450.5 "/>
<text text-anchor="middle" x="306" y="-440.1" font-family="Helvetica,sans-Serif" font-size="8.00"> </text>
</g>
<!-- Node4&#45;&gt;Node3 -->
<g id="edge3" class="edge"><title>Node4&#45;&gt;Node3</title>
<path fill="none" stroke="#404040" d="M286.193,-433.44C274.42,-418.841 258.776,-399.443 243.16,-380.079"/>
<polygon fill="none" stroke="#404040" points="243.047,-379.938 236.166,-377.778 235.514,-370.597 242.394,-372.756 243.047,-379.938"/>
<text text-anchor="middle" x="291" y="-399.1" font-family="Helvetica,sans-Serif" font-size="8.00"> +childrenNodes</text>
</g>
<!-- Node5 -->
<g id="node5" class="node"><title>Node5</title>
<g id="a_node5"><a xlink:href="classwdf_port.html" target="_top" xlink:title="{wdfPort\n||+ wdfPort()\l+ getPortVoltage()\l+ getPortCurrent()\l}">
<polygon fill="none" stroke="black" points="48.5,-424.5 48.5,-493.5 131.5,-493.5 131.5,-424.5 48.5,-424.5"/>
<text text-anchor="middle" x="90" y="-483.1" font-family="Helvetica,sans-Serif" font-size="8.00">wdfPort</text>
<polyline fill="none" stroke="black" points="48.5,-476.5 131.5,-476.5 "/>
<text text-anchor="middle" x="90" y="-466.1" font-family="Helvetica,sans-Serif" font-size="8.00"> </text>
<polyline fill="none" stroke="black" points="48.5,-459.5 131.5,-459.5 "/>
<text text-anchor="start" x="56.5" y="-449.1" font-family="Helvetica,sans-Serif" font-size="8.00">+ wdfPort()</text>
<text text-anchor="start" x="56.5" y="-440.1" font-family="Helvetica,sans-Serif" font-size="8.00">+ getPortVoltage()</text>
<text text-anchor="start" x="56.5" y="-431.1" font-family="Helvetica,sans-Serif" font-size="8.00">+ getPortCurrent()</text>
</a>
</g>
</g>
<!-- Node5&#45;&gt;Node3 -->
<g id="edge4" class="edge"><title>Node5&#45;&gt;Node3</title>
<path fill="none" stroke="#404040" d="M109.746,-424.367C116.18,-413.407 123.639,-400.702 131.258,-387.725"/>
<polygon fill="none" stroke="#404040" points="131.311,-387.635 130.899,-380.436 137.387,-377.287 137.798,-384.486 131.311,-387.635"/>
<text text-anchor="middle" x="140.5" y="-399.1" font-family="Helvetica,sans-Serif" font-size="8.00"> +upPort</text>
</g>
<!-- Node6 -->
<g id="node6" class="node"><title>Node6</title>
<polygon fill="none" stroke="#bfbfbf" points="-0.5,-566.5 -0.5,-617.5 40.5,-617.5 40.5,-566.5 -0.5,-566.5"/>
<text text-anchor="middle" x="20" y="-607.1" font-family="Helvetica,sans-Serif" font-size="8.00">double</text>
<polyline fill="none" stroke="#bfbfbf" points="-0.5,-600.5 40.5,-600.5 "/>
<text text-anchor="middle" x="20" y="-590.1" font-family="Helvetica,sans-Serif" font-size="8.00"> </text>
<polyline fill="none" stroke="#bfbfbf" points="-0.5,-583.5 40.5,-583.5 "/>
<text text-anchor="middle" x="20" y="-573.1" font-family="Helvetica,sans-Serif" font-size="8.00"> </text>
</g>
<!-- Node6&#45;&gt;Node1 -->
<g id="edge9" class="edge"><title>Node6&#45;&gt;Node1</title>
<path fill="none" stroke="#404040" d="M20,-566.373C20,-540.043 20,-497.071 20,-460 20,-460 20,-460 20,-156 20,-137.089 24.3416,-117.049 29.8264,-99.2781"/>
<polygon fill="none" stroke="#404040" points="29.8966,-99.0654 27.9824,-92.113 33.6637,-87.6719 35.578,-94.6243 29.8966,-99.0654"/>
<text text-anchor="middle" x="32.5" y="-309.1" font-family="Helvetica,sans-Serif" font-size="8.00"> +state</text>
<text text-anchor="middle" x="32.5" y="-300.1" font-family="Helvetica,sans-Serif" font-size="8.00">+T</text>
<text text-anchor="middle" x="32.5" y="-291.1" font-family="Helvetica,sans-Serif" font-size="8.00">+L</text>
</g>
<!-- Node6&#45;&gt;Node5 -->
<g id="edge5" class="edge"><title>Node6&#45;&gt;Node5</title>
<path fill="none" stroke="#404040" d="M33.1665,-566.36C42.432,-549.02 55.0964,-525.32 66.119,-504.692"/>
<polygon fill="none" stroke="#404040" points="66.2182,-504.506 65.518,-497.329 71.8737,-493.922 72.5739,-501.099 66.2182,-504.506"/>
<text text-anchor="middle" x="70" y="-541.6" font-family="Helvetica,sans-Serif" font-size="8.00"> +a</text>
<text text-anchor="middle" x="70" y="-532.6" font-family="Helvetica,sans-Serif" font-size="8.00">+b</text>
<text text-anchor="middle" x="70" y="-523.6" font-family="Helvetica,sans-Serif" font-size="8.00">+Rp</text>
<text text-anchor="middle" x="70" y="-514.6" font-family="Helvetica,sans-Serif" font-size="8.00">+Gp</text>
</g>
<!-- Node7 -->
<g id="node7" class="node"><title>Node7</title>
<polygon fill="none" stroke="#bfbfbf" points="59,-566.5 59,-617.5 191,-617.5 191,-566.5 59,-566.5"/>
<text text-anchor="middle" x="125" y="-607.1" font-family="Helvetica,sans-Serif" font-size="8.00">ScopedPointer&lt; wdfTreeNode &gt;</text>
<polyline fill="none" stroke="#bfbfbf" points="59,-600.5 191,-600.5 "/>
<text text-anchor="middle" x="125" y="-590.1" font-family="Helvetica,sans-Serif" font-size="8.00"> </text>
<polyline fill="none" stroke="#bfbfbf" points="59,-583.5 191,-583.5 "/>
<text text-anchor="middle" x="125" y="-573.1" font-family="Helvetica,sans-Serif" font-size="8.00"> </text>
</g>
<!-- Node7&#45;&gt;Node5 -->
<g id="edge6" class="edge"><title>Node7&#45;&gt;Node5</title>
<path fill="none" stroke="#404040" d="M118.417,-566.36C113.848,-549.26 107.627,-525.974 102.17,-505.549"/>
<polygon fill="none" stroke="#404040" points="102.161,-505.515 96.7475,-500.751 99.0632,-493.922 104.476,-498.686 102.161,-505.515"/>
<text text-anchor="middle" x="145" y="-528.1" font-family="Helvetica,sans-Serif" font-size="8.00"> +connectedNode</text>
</g>
<!-- Node8 -->
<g id="node8" class="node"><title>Node8</title>
<polygon fill="none" stroke="#bfbfbf" points="149.5,-433.5 149.5,-484.5 234.5,-484.5 234.5,-433.5 149.5,-433.5"/>
<text text-anchor="middle" x="192" y="-474.1" font-family="Helvetica,sans-Serif" font-size="8.00">vector&lt; wdfPort * &gt;</text>
<polyline fill="none" stroke="#bfbfbf" points="149.5,-467.5 234.5,-467.5 "/>
<text text-anchor="middle" x="192" y="-457.1" font-family="Helvetica,sans-Serif" font-size="8.00"> </text>
<polyline fill="none" stroke="#bfbfbf" points="149.5,-450.5 234.5,-450.5 "/>
<text text-anchor="middle" x="192" y="-440.1" font-family="Helvetica,sans-Serif" font-size="8.00"> </text>
</g>
<!-- Node8&#45;&gt;Node3 -->
<g id="edge8" class="edge"><title>Node8&#45;&gt;Node3</title>
<path fill="none" stroke="#404040" d="M190.257,-433.44C189.388,-421.196 188.279,-405.574 187.134,-389.429"/>
<polygon fill="none" stroke="#404040" points="187.103,-388.998 182.688,-383.296 186.254,-377.028 190.668,-382.73 187.103,-388.998"/>
<text text-anchor="middle" x="212" y="-399.1" font-family="Helvetica,sans-Serif" font-size="8.00"> +downPorts</text>
</g>
</g>
</svg>
