<?xml version="1.0" encoding="UTF-8" standalone="no"?>
<!DOCTYPE svg PUBLIC "-//W3C//DTD SVG 1.1//EN"
 "http://www.w3.org/Graphics/SVG/1.1/DTD/svg11.dtd">
<!-- Generated by graphviz version 2.36.0 (20140111.2315)
 -->
<!-- Title: wdfTerminatedLeaf Pages: 1 -->
<svg width="482pt" height="426pt"
 viewBox="0.00 0.00 482.00 426.00" xmlns="http://www.w3.org/2000/svg" xmlns:xlink="http://www.w3.org/1999/xlink">
<g id="graph0" class="graph" transform="scale(1 1) rotate(0) translate(4 422)">
<title>wdfTerminatedLeaf</title>
<!-- Node1 -->
<g id="node1" class="node"><title>Node1</title>
<polygon fill="#bfbfbf" stroke="black" points="166.5,-143 166.5,-203 275.5,-203 275.5,-143 166.5,-143"/>
<text text-anchor="middle" x="221" y="-192.6" font-family="Helvetica,sans-Serif" font-size="8.00">wdfTerminatedLeaf</text>
<polyline fill="none" stroke="black" points="166.5,-186 275.5,-186 "/>
<text text-anchor="middle" x="221" y="-175.6" font-family="Helvetica,sans-Serif" font-size="8.00"> </text>
<polyline fill="none" stroke="black" points="166.5,-169 275.5,-169 "/>
<text text-anchor="start" x="174.5" y="-158.6" font-family="Helvetica,sans-Serif" font-size="8.00">+ wdfTerminatedLeaf()</text>
<text text-anchor="start" x="174.5" y="-149.6" font-family="Helvetica,sans-Serif" font-size="8.00">+ calculateScatterCoeffs()</text>
</g>
<!-- Node3 -->
<g id="node3" class="node"><title>Node3</title>
<g id="a_node3"><a xlink:href="classwdf_terminated_cap.html" target="_top" xlink:title="{wdfTerminatedCap\n|+ C\l+ T\l+ state\l|+ wdfTerminatedCap()\l+ calculateUpRes()\l+ calculateUpB()\l+ calculateDownB()\l+ getType()\l}">
<polygon fill="none" stroke="black" points="0,-0.5 0,-105.5 98,-105.5 98,-0.5 0,-0.5"/>
<text text-anchor="middle" x="49" y="-95.1" font-family="Helvetica,sans-Serif" font-size="8.00">wdfTerminatedCap</text>
<polyline fill="none" stroke="black" points="0,-88.5 98,-88.5 "/>
<text text-anchor="start" x="8" y="-78.1" font-family="Helvetica,sans-Serif" font-size="8.00">+ C</text>
<text text-anchor="start" x="8" y="-69.1" font-family="Helvetica,sans-Serif" font-size="8.00">+ T</text>
<text text-anchor="start" x="8" y="-60.1" font-family="Helvetica,sans-Serif" font-size="8.00">+ state</text>
<polyline fill="none" stroke="black" points="0,-53.5 98,-53.5 "/>
<text text-anchor="start" x="8" y="-43.1" font-family="Helvetica,sans-Serif" font-size="8.00">+ wdfTerminatedCap()</text>
<text text-anchor="start" x="8" y="-34.1" font-family="Helvetica,sans-Serif" font-size="8.00">+ calculateUpRes()</text>
<text text-anchor="start" x="8" y="-25.1" font-family="Helvetica,sans-Serif" font-size="8.00">+ calculateUpB()</text>
<text text-anchor="start" x="8" y="-16.1" font-family="Helvetica,sans-Serif" font-size="8.00">+ calculateDownB()</text>
<text text-anchor="start" x="8" y="-7.1" font-family="Helvetica,sans-Serif" font-size="8.00">+ getType()</text>
</a>
</g>
</g>
<!-- Node1&#45;&gt;Node3 -->
<g id="edge2" class="edge"><title>Node1&#45;&gt;Node3</title>
<path fill="none" stroke="midnightblue" d="M157.508,-138.335C140.65,-128.571 122.761,-117.44 107,-106 104.045,-103.855 101.068,-101.584 98.1067,-99.2378"/>
<polygon fill="none" stroke="midnightblue" points="155.794,-141.386 166.213,-143.31 159.268,-135.309 155.794,-141.386"/>
</g>
<!-- Node4 -->
<g id="node4" class="node"><title>Node4</title>
<g id="a_node4"><a xlink:href="classwdf_terminated_ind.html" target="_top" xlink:title="{wdfTerminatedInd\n|+ L\l+ T\l+ state\l|+ wdfTerminatedInd()\l+ calculateUpRes()\l+ calculateUpB()\l+ calculateDownB()\l+ getType()\l}">
<polygon fill="none" stroke="black" points="116.5,-0.5 116.5,-105.5 211.5,-105.5 211.5,-0.5 116.5,-0.5"/>
<text text-anchor="middle" x="164" y="-95.1" font-family="Helvetica,sans-Serif" font-size="8.00">wdfTerminatedInd</text>
<polyline fill="none" stroke="black" points="116.5,-88.5 211.5,-88.5 "/>
<text text-anchor="start" x="124.5" y="-78.1" font-family="Helvetica,sans-Serif" font-size="8.00">+ L</text>
<text text-anchor="start" x="124.5" y="-69.1" font-family="Helvetica,sans-Serif" font-size="8.00">+ T</text>
<text text-anchor="start" x="124.5" y="-60.1" font-family="Helvetica,sans-Serif" font-size="8.00">+ state</text>
<polyline fill="none" stroke="black" points="116.5,-53.5 211.5,-53.5 "/>
<text text-anchor="start" x="124.5" y="-43.1" font-family="Helvetica,sans-Serif" font-size="8.00">+ wdfTerminatedInd()</text>
<text text-anchor="start" x="124.5" y="-34.1" font-family="Helvetica,sans-Serif" font-size="8.00">+ calculateUpRes()</text>
<text text-anchor="start" x="124.5" y="-25.1" font-family="Helvetica,sans-Serif" font-size="8.00">+ calculateUpB()</text>
<text text-anchor="start" x="124.5" y="-16.1" font-family="Helvetica,sans-Serif" font-size="8.00">+ calculateDownB()</text>
<text text-anchor="start" x="124.5" y="-7.1" font-family="Helvetica,sans-Serif" font-size="8.00">+ getType()</text>
</a>
</g>
</g>
<!-- Node1&#45;&gt;Node4 -->
<g id="edge3" class="edge"><title>Node1&#45;&gt;Node4</title>
<path fill="none" stroke="midnightblue" d="M202.425,-133.546C198.148,-124.692 193.53,-115.132 189.03,-105.816"/>
<polygon fill="none" stroke="midnightblue" points="199.409,-135.349 206.91,-142.831 205.712,-132.305 199.409,-135.349"/>
</g>
<!-- Node5 -->
<g id="node5" class="node"><title>Node5</title>
<g id="a_node5"><a xlink:href="classwdf_terminated_res.html" target="_top" xlink:title="{wdfTerminatedRes\n|+ R\l|+ wdfTerminatedRes()\l+ calculateUpRes()\l+ calculateUpB()\l+ calculateDownB()\l+ getType()\l}">
<polygon fill="none" stroke="black" points="230,-9.5 230,-96.5 328,-96.5 328,-9.5 230,-9.5"/>
<text text-anchor="middle" x="279" y="-86.1" font-family="Helvetica,sans-Serif" font-size="8.00">wdfTerminatedRes</text>
<polyline fill="none" stroke="black" points="230,-79.5 328,-79.5 "/>
<text text-anchor="start" x="238" y="-69.1" font-family="Helvetica,sans-Serif" font-size="8.00">+ R</text>
<polyline fill="none" stroke="black" points="230,-62.5 328,-62.5 "/>
<text text-anchor="start" x="238" y="-52.1" font-family="Helvetica,sans-Serif" font-size="8.00">+ wdfTerminatedRes()</text>
<text text-anchor="start" x="238" y="-43.1" font-family="Helvetica,sans-Serif" font-size="8.00">+ calculateUpRes()</text>
<text text-anchor="start" x="238" y="-34.1" font-family="Helvetica,sans-Serif" font-size="8.00">+ calculateUpB()</text>
<text text-anchor="start" x="238" y="-25.1" font-family="Helvetica,sans-Serif" font-size="8.00">+ calculateDownB()</text>
<text text-anchor="start" x="238" y="-16.1" font-family="Helvetica,sans-Serif" font-size="8.00">+ getType()</text>
</a>
</g>
</g>
<!-- Node1&#45;&gt;Node5 -->
<g id="edge4" class="edge"><title>Node1&#45;&gt;Node5</title>
<path fill="none" stroke="midnightblue" d="M239.844,-133.663C245.656,-121.837 252.092,-108.745 258.038,-96.6476"/>
<polygon fill="none" stroke="midnightblue" points="236.607,-132.313 235.337,-142.831 242.889,-135.401 236.607,-132.313"/>
</g>
<!-- Node6 -->
<g id="node6" class="node"><title>Node6</title>
<g id="a_node6"><a xlink:href="classwdf_terminated_res_v_source.html" target="_top" xlink:title="{wdfTerminatedResVSource\n|+ Vs\l+ Rp\l+ RSer\l|+ wdfTerminatedResVSource()\l+ calculateUpRes()\l+ calculateUpB()\l+ calculateDownB()\l+ getType()\l}">
<polygon fill="none" stroke="black" points="346,-0.5 346,-105.5 474,-105.5 474,-0.5 346,-0.5"/>
<text text-anchor="middle" x="410" y="-95.1" font-family="Helvetica,sans-Serif" font-size="8.00">wdfTerminatedResVSource</text>
<polyline fill="none" stroke="black" points="346,-88.5 474,-88.5 "/>
<text text-anchor="start" x="354" y="-78.1" font-family="Helvetica,sans-Serif" font-size="8.00">+ Vs</text>
<text text-anchor="start" x="354" y="-69.1" font-family="Helvetica,sans-Serif" font-size="8.00">+ Rp</text>
<text text-anchor="start" x="354" y="-60.1" font-family="Helvetica,sans-Serif" font-size="8.00">+ RSer</text>
<polyline fill="none" stroke="black" points="346,-53.5 474,-53.5 "/>
<text text-anchor="start" x="354" y="-43.1" font-family="Helvetica,sans-Serif" font-size="8.00">+ wdfTerminatedResVSource()</text>
<text text-anchor="start" x="354" y="-34.1" font-family="Helvetica,sans-Serif" font-size="8.00">+ calculateUpRes()</text>
<text text-anchor="start" x="354" y="-25.1" font-family="Helvetica,sans-Serif" font-size="8.00">+ calculateUpB()</text>
<text text-anchor="start" x="354" y="-16.1" font-family="Helvetica,sans-Serif" font-size="8.00">+ calculateDownB()</text>
<text text-anchor="start" x="354" y="-7.1" font-family="Helvetica,sans-Serif" font-size="8.00">+ getType()</text>
</a>
</g>
</g>
<!-- Node1&#45;&gt;Node6 -->
<g id="edge5" class="edge"><title>Node1&#45;&gt;Node6</title>
<path fill="none" stroke="midnightblue" d="M282.922,-137.843C300.288,-127.892 319.049,-116.788 336,-106 339.179,-103.977 342.413,-101.876 345.662,-99.7293"/>
<polygon fill="none" stroke="midnightblue" points="280.942,-134.943 273.985,-142.933 284.407,-141.025 280.942,-134.943"/>
</g>
<!-- Node2 -->
<g id="node2" class="node"><title>Node2</title>
<g id="a_node2"><a xlink:href="classwdf_tree_node.html" target="_top" xlink:title="{wdfTreeNode\n|+ downPorts\l+ childrenNodes\l+ upPort\l+ parentNode\l|+ wdfTreeNode()\l+ ~wdfTreeNode()\l+ setParentInChildren()\l+ createPorts()\l+ adaptPorts()\l+ calculateUpRes()\l+ calculateScatterCoeffs()\l+ pullWaveUp()\l+ calculateUpB()\l+ pushWaveDown()\l+ calculateDownB()\l+ getType()\l}">
<polygon fill="none" stroke="black" points="166.5,-240.5 166.5,-417.5 275.5,-417.5 275.5,-240.5 166.5,-240.5"/>
<text text-anchor="middle" x="221" y="-407.1" font-family="Helvetica,sans-Serif" font-size="8.00">wdfTreeNode</text>
<polyline fill="none" stroke="black" points="166.5,-400.5 275.5,-400.5 "/>
<text text-anchor="start" x="174.5" y="-390.1" font-family="Helvetica,sans-Serif" font-size="8.00">+ downPorts</text>
<text text-anchor="start" x="174.5" y="-381.1" font-family="Helvetica,sans-Serif" font-size="8.00">+ childrenNodes</text>
<text text-anchor="start" x="174.5" y="-372.1" font-family="Helvetica,sans-Serif" font-size="8.00">+ upPort</text>
<text text-anchor="start" x="174.5" y="-363.1" font-family="Helvetica,sans-Serif" font-size="8.00">+ parentNode</text>
<polyline fill="none" stroke="black" points="166.5,-356.5 275.5,-356.5 "/>
<text text-anchor="start" x="174.5" y="-346.1" font-family="Helvetica,sans-Serif" font-size="8.00">+ wdfTreeNode()</text>
<text text-anchor="start" x="174.5" y="-337.1" font-family="Helvetica,sans-Serif" font-size="8.00">+ ~wdfTreeNode()</text>
<text text-anchor="start" x="174.5" y="-328.1" font-family="Helvetica,sans-Serif" font-size="8.00">+ setParentInChildren()</text>
<text text-anchor="start" x="174.5" y="-319.1" font-family="Helvetica,sans-Serif" font-size="8.00">+ createPorts()</text>
<text text-anchor="start" x="174.5" y="-310.1" font-family="Helvetica,sans-Serif" font-size="8.00">+ adaptPorts()</text>
<text text-anchor="start" x="174.5" y="-301.1" font-family="Helvetica,sans-Serif" font-size="8.00">+ calculateUpRes()</text>
<text text-anchor="start" x="174.5" y="-292.1" font-family="Helvetica,sans-Serif" font-size="8.00">+ calculateScatterCoeffs()</text>
<text text-anchor="start" x="174.5" y="-283.1" font-family="Helvetica,sans-Serif" font-size="8.00">+ pullWaveUp()</text>
<text text-anchor="start" x="174.5" y="-274.1" font-family="Helvetica,sans-Serif" font-size="8.00">+ calculateUpB()</text>
<text text-anchor="start" x="174.5" y="-265.1" font-family="Helvetica,sans-Serif" font-size="8.00">+ pushWaveDown()</text>
<text text-anchor="start" x="174.5" y="-256.1" font-family="Helvetica,sans-Serif" font-size="8.00">+ calculateDownB()</text>
<text text-anchor="start" x="174.5" y="-247.1" font-family="Helvetica,sans-Serif" font-size="8.00">+ getType()</text>
</a>
</g>
</g>
<!-- Node2&#45;&gt;Node1 -->
<g id="edge1" class="edge"><title>Node2&#45;&gt;Node1</title>
<path fill="none" stroke="midnightblue" d="M221,-229.976C221,-220.301 221,-211.106 221,-203.068"/>
<polygon fill="none" stroke="midnightblue" points="217.5,-230.204 221,-240.204 224.5,-230.204 217.5,-230.204"/>
</g>
</g>
</svg>
