<?xml version="1.0" encoding="UTF-8" standalone="no"?>
<!DOCTYPE svg PUBLIC "-//W3C//DTD SVG 1.1//EN"
 "http://www.w3.org/Graphics/SVG/1.1/DTD/svg11.dtd">
<!-- Generated by graphviz version 2.36.0 (20140111.2315)
 -->
<!-- Title: wdfUnterminatedSwitch Pages: 1 -->
<svg width="122pt" height="212pt"
 viewBox="0.00 0.00 122.00 212.00" xmlns="http://www.w3.org/2000/svg" xmlns:xlink="http://www.w3.org/1999/xlink">
<g id="graph0" class="graph" transform="scale(1 1) rotate(0) translate(4 208)">
<title>wdfUnterminatedSwitch</title>
<!-- Node1 -->
<g id="node1" class="node"><title>Node1</title>
<polygon fill="#bfbfbf" stroke="black" points="0,-1 0,-79 114,-79 114,-1 0,-1"/>
<text text-anchor="middle" x="57" y="-68.6" font-family="Helvetica,sans-Serif" font-size="8.00">wdfUnterminatedSwitch</text>
<polyline fill="none" stroke="black" points="0,-62 114,-62 "/>
<text text-anchor="middle" x="57" y="-51.6" font-family="Helvetica,sans-Serif" font-size="8.00"> </text>
<polyline fill="none" stroke="black" points="0,-45 114,-45 "/>
<text text-anchor="start" x="8" y="-34.6" font-family="Helvetica,sans-Serif" font-size="8.00">+ wdfUnterminatedSwitch()</text>
<text text-anchor="start" x="8" y="-25.6" font-family="Helvetica,sans-Serif" font-size="8.00">+ calculateDownB()</text>
<text text-anchor="start" x="8" y="-16.6" font-family="Helvetica,sans-Serif" font-size="8.00">+ setSwitch()</text>
<text text-anchor="start" x="8" y="-7.6" font-family="Helvetica,sans-Serif" font-size="8.00">+ getType()</text>
</g>
<!-- Node2 -->
<g id="node2" class="node"><title>Node2</title>
<g id="a_node2"><a xlink:href="classwdf_root_node.html" target="_top" xlink:title="{wdfRootNode\n||+ wdfRootNode()\l+ ~wdfRootNode()\l+ setPortResistance()\l+ calculateDownB()\l+ getType()\l}">
<polygon fill="none" stroke="black" points="10,-116.5 10,-203.5 104,-203.5 104,-116.5 10,-116.5"/>
<text text-anchor="middle" x="57" y="-193.1" font-family="Helvetica,sans-Serif" font-size="8.00">wdfRootNode</text>
<polyline fill="none" stroke="black" points="10,-186.5 104,-186.5 "/>
<text text-anchor="middle" x="57" y="-176.1" font-family="Helvetica,sans-Serif" font-size="8.00"> </text>
<polyline fill="none" stroke="black" points="10,-169.5 104,-169.5 "/>
<text text-anchor="start" x="18" y="-159.1" font-family="Helvetica,sans-Serif" font-size="8.00">+ wdfRootNode()</text>
<text text-anchor="start" x="18" y="-150.1" font-family="Helvetica,sans-Serif" font-size="8.00">+ ~wdfRootNode()</text>
<text text-anchor="start" x="18" y="-141.1" font-family="Helvetica,sans-Serif" font-size="8.00">+ setPortResistance()</text>
<text text-anchor="start" x="18" y="-132.1" font-family="Helvetica,sans-Serif" font-size="8.00">+ calculateDownB()</text>
<text text-anchor="start" x="18" y="-123.1" font-family="Helvetica,sans-Serif" font-size="8.00">+ getType()</text>
</a>
</g>
</g>
<!-- Node2&#45;&gt;Node1 -->
<g id="edge1" class="edge"><title>Node2&#45;&gt;Node1</title>
<path fill="none" stroke="midnightblue" d="M57,-106.256C57,-97.155 57,-87.8531 57,-79.2297"/>
<polygon fill="none" stroke="midnightblue" points="53.5001,-106.399 57,-116.399 60.5001,-106.399 53.5001,-106.399"/>
</g>
</g>
</svg>
