<?xml version="1.0" encoding="UTF-8" standalone="no"?>
<!DOCTYPE svg PUBLIC "-//W3C//DTD SVG 1.1//EN"
 "http://www.w3.org/Graphics/SVG/1.1/DTD/svg11.dtd">
<!-- Generated by graphviz version 2.36.0 (20140111.2315)
 -->
<!-- Title: diodeModel Pages: 1 -->
<svg width="84pt" height="176pt"
 viewBox="0.00 0.00 84.00 176.00" xmlns="http://www.w3.org/2000/svg" xmlns:xlink="http://www.w3.org/1999/xlink">
<g id="graph0" class="graph" transform="scale(1 1) rotate(0) translate(4 172)">
<title>diodeModel</title>
<!-- Node1 -->
<g id="node1" class="node"><title>Node1</title>
<polygon fill="#bfbfbf" stroke="black" points="2.5,-1 2.5,-61 73.5,-61 73.5,-1 2.5,-1"/>
<text text-anchor="middle" x="38" y="-50.6" font-family="Helvetica,sans-Serif" font-size="8.00">diodeModel</text>
<polyline fill="none" stroke="black" points="2.5,-44 73.5,-44 "/>
<text text-anchor="middle" x="38" y="-33.6" font-family="Helvetica,sans-Serif" font-size="8.00"> </text>
<polyline fill="none" stroke="black" points="2.5,-27 73.5,-27 "/>
<text text-anchor="start" x="10.5" y="-16.6" font-family="Helvetica,sans-Serif" font-size="8.00">+ diodeModel()</text>
<text text-anchor="start" x="10.5" y="-7.6" font-family="Helvetica,sans-Serif" font-size="8.00">+ calculate()</text>
</g>
<!-- Node2 -->
<g id="node2" class="node"><title>Node2</title>
<g id="a_node2"><a xlink:href="classnl_model.html" target="_top" xlink:title="{nlModel\n||+ nlModel()\l+ calculate()\l+ getNumPorts()\l}">
<polygon fill="none" stroke="black" points="-0.5,-98.5 -0.5,-167.5 76.5,-167.5 76.5,-98.5 -0.5,-98.5"/>
<text text-anchor="middle" x="38" y="-157.1" font-family="Helvetica,sans-Serif" font-size="8.00">nlModel</text>
<polyline fill="none" stroke="black" points="-0.5,-150.5 76.5,-150.5 "/>
<text text-anchor="middle" x="38" y="-140.1" font-family="Helvetica,sans-Serif" font-size="8.00"> </text>
<polyline fill="none" stroke="black" points="-0.5,-133.5 76.5,-133.5 "/>
<text text-anchor="start" x="7.5" y="-123.1" font-family="Helvetica,sans-Serif" font-size="8.00">+ nlModel()</text>
<text text-anchor="start" x="7.5" y="-114.1" font-family="Helvetica,sans-Serif" font-size="8.00">+ calculate()</text>
<text text-anchor="start" x="7.5" y="-105.1" font-family="Helvetica,sans-Serif" font-size="8.00">+ getNumPorts()</text>
</a>
</g>
</g>
<!-- Node2&#45;&gt;Node1 -->
<g id="edge1" class="edge"><title>Node2&#45;&gt;Node1</title>
<path fill="none" stroke="midnightblue" d="M38,-88.3021C38,-79.1716 38,-69.7563 38,-61.3003"/>
<polygon fill="none" stroke="midnightblue" points="34.5001,-88.4232 38,-98.4233 41.5001,-88.4233 34.5001,-88.4232"/>
</g>
</g>
</svg>
