<?xml version="1.0" encoding="UTF-8" standalone="no"?>
<!DOCTYPE svg PUBLIC "-//W3C//DTD SVG 1.1//EN"
 "http://www.w3.org/Graphics/SVG/1.1/DTD/svg11.dtd">
<!-- Generated by graphviz version 2.36.0 (20140111.2315)
 -->
<!-- Title: nlSolver Pages: 1 -->
<svg width="161pt" height="186pt"
 viewBox="0.00 0.00 161.00 186.00" xmlns="http://www.w3.org/2000/svg" xmlns:xlink="http://www.w3.org/1999/xlink">
<g id="graph0" class="graph" transform="scale(1 1) rotate(0) translate(4 182)">
<title>nlSolver</title>
<!-- Node1 -->
<g id="node1" class="node"><title>Node1</title>
<polygon fill="#bfbfbf" stroke="black" points="40.5,-1 40.5,-79 117.5,-79 117.5,-1 40.5,-1"/>
<text text-anchor="middle" x="79" y="-68.6" font-family="Helvetica,sans-Serif" font-size="8.00">nlSolver</text>
<polyline fill="none" stroke="black" points="40.5,-62 117.5,-62 "/>
<text text-anchor="middle" x="79" y="-51.6" font-family="Helvetica,sans-Serif" font-size="8.00"> </text>
<polyline fill="none" stroke="black" points="40.5,-45 117.5,-45 "/>
<text text-anchor="start" x="48.5" y="-34.6" font-family="Helvetica,sans-Serif" font-size="8.00">+ nlSolver()</text>
<text text-anchor="start" x="48.5" y="-25.6" font-family="Helvetica,sans-Serif" font-size="8.00">+ ~nlSolver()</text>
<text text-anchor="start" x="48.5" y="-16.6" font-family="Helvetica,sans-Serif" font-size="8.00">+ getNumPorts()</text>
<text text-anchor="start" x="48.5" y="-7.6" font-family="Helvetica,sans-Serif" font-size="8.00">+ nlSolve()</text>
</g>
<!-- Node2 -->
<g id="node2" class="node"><title>Node2</title>
<polygon fill="none" stroke="#bfbfbf" points="-0.5,-126.5 -0.5,-177.5 84.5,-177.5 84.5,-126.5 -0.5,-126.5"/>
<text text-anchor="middle" x="42" y="-167.1" font-family="Helvetica,sans-Serif" font-size="8.00">vector&lt; nlModel * &gt;</text>
<polyline fill="none" stroke="#bfbfbf" points="-0.5,-160.5 84.5,-160.5 "/>
<text text-anchor="middle" x="42" y="-150.1" font-family="Helvetica,sans-Serif" font-size="8.00"> </text>
<polyline fill="none" stroke="#bfbfbf" points="-0.5,-143.5 84.5,-143.5 "/>
<text text-anchor="middle" x="42" y="-133.1" font-family="Helvetica,sans-Serif" font-size="8.00"> </text>
</g>
<!-- Node2&#45;&gt;Node1 -->
<g id="edge1" class="edge"><title>Node2&#45;&gt;Node1</title>
<path fill="none" stroke="#404040" d="M47.8477,-126.271C50.1495,-117.295 52.9682,-107.122 56,-98 56.8341,-95.4906 57.7222,-92.9328 58.6461,-90.3597"/>
<polygon fill="none" stroke="#404040" points="58.6612,-90.3192 57.0191,-83.2975 62.8691,-79.0812 64.5112,-86.1028 58.6612,-90.3192"/>
<text text-anchor="middle" x="75.5" y="-101.1" font-family="Helvetica,sans-Serif" font-size="8.00"> +nlModels</text>
</g>
<!-- Node3 -->
<g id="node3" class="node"><title>Node3</title>
<polygon fill="none" stroke="#bfbfbf" points="102.5,-126.5 102.5,-177.5 131.5,-177.5 131.5,-126.5 102.5,-126.5"/>
<text text-anchor="middle" x="117" y="-167.1" font-family="Helvetica,sans-Serif" font-size="8.00">int</text>
<polyline fill="none" stroke="#bfbfbf" points="102.5,-160.5 131.5,-160.5 "/>
<text text-anchor="middle" x="117" y="-150.1" font-family="Helvetica,sans-Serif" font-size="8.00"> </text>
<polyline fill="none" stroke="#bfbfbf" points="102.5,-143.5 131.5,-143.5 "/>
<text text-anchor="middle" x="117" y="-133.1" font-family="Helvetica,sans-Serif" font-size="8.00"> </text>
</g>
<!-- Node3&#45;&gt;Node1 -->
<g id="edge2" class="edge"><title>Node3&#45;&gt;Node1</title>
<path fill="none" stroke="#404040" d="M108.472,-126.314C104.857,-115.849 100.507,-103.256 96.2715,-90.9965"/>
<polygon fill="none" stroke="#404040" points="96.1926,-90.7679 90.4527,-86.4028 92.2743,-79.4256 98.0142,-83.7906 96.1926,-90.7679"/>
<text text-anchor="middle" x="127" y="-101.1" font-family="Helvetica,sans-Serif" font-size="8.00"> +numNLPorts</text>
</g>
</g>
</svg>
