<?xml version="1.0" encoding="UTF-8" standalone="no"?>
<!DOCTYPE svg PUBLIC "-//W3C//DTD SVG 1.1//EN"
 "http://www.w3.org/Graphics/SVG/1.1/DTD/svg11.dtd">
<!-- Generated by graphviz version 2.36.0 (20140111.2315)
 -->
<!-- Title: wdfTerminatedAdapter Pages: 1 -->
<svg width="318pt" height="490pt"
 viewBox="0.00 0.00 318.00 490.00" xmlns="http://www.w3.org/2000/svg" xmlns:xlink="http://www.w3.org/1999/xlink">
<g id="graph0" class="graph" transform="scale(1 1) rotate(0) translate(4 486)">
<title>wdfTerminatedAdapter</title>
<!-- Node1 -->
<g id="node1" class="node"><title>Node1</title>
<polygon fill="#bfbfbf" stroke="black" points="110,-0.5 110,-51.5 222,-51.5 222,-0.5 110,-0.5"/>
<text text-anchor="middle" x="166" y="-41.1" font-family="Helvetica,sans-Serif" font-size="8.00">wdfTerminatedAdapter</text>
<polyline fill="none" stroke="black" points="110,-34.5 222,-34.5 "/>
<text text-anchor="middle" x="166" y="-24.1" font-family="Helvetica,sans-Serif" font-size="8.00"> </text>
<polyline fill="none" stroke="black" points="110,-17.5 222,-17.5 "/>
<text text-anchor="start" x="118" y="-7.1" font-family="Helvetica,sans-Serif" font-size="8.00">+ wdfTerminatedAdapter()</text>
</g>
<!-- Node2 -->
<g id="node2" class="node"><title>Node2</title>
<g id="a_node2"><a xlink:href="classwdf_tree_node.html" target="_top" xlink:title="{wdfTreeNode\n||+ wdfTreeNode()\l+ ~wdfTreeNode()\l+ setParentInChildren()\l+ createPorts()\l+ adaptPorts()\l+ calculateUpRes()\l+ calculateScatterCoeffs()\l+ pullWaveUp()\l+ calculateUpB()\l+ pushWaveDown()\l+ calculateDownB()\l+ getType()\l}">
<polygon fill="none" stroke="black" points="111.5,-91 111.5,-241 220.5,-241 220.5,-91 111.5,-91"/>
<text text-anchor="middle" x="166" y="-230.6" font-family="Helvetica,sans-Serif" font-size="8.00">wdfTreeNode</text>
<polyline fill="none" stroke="black" points="111.5,-224 220.5,-224 "/>
<text text-anchor="middle" x="166" y="-213.6" font-family="Helvetica,sans-Serif" font-size="8.00"> </text>
<polyline fill="none" stroke="black" points="111.5,-207 220.5,-207 "/>
<text text-anchor="start" x="119.5" y="-196.6" font-family="Helvetica,sans-Serif" font-size="8.00">+ wdfTreeNode()</text>
<text text-anchor="start" x="119.5" y="-187.6" font-family="Helvetica,sans-Serif" font-size="8.00">+ ~wdfTreeNode()</text>
<text text-anchor="start" x="119.5" y="-178.6" font-family="Helvetica,sans-Serif" font-size="8.00">+ setParentInChildren()</text>
<text text-anchor="start" x="119.5" y="-169.6" font-family="Helvetica,sans-Serif" font-size="8.00">+ createPorts()</text>
<text text-anchor="start" x="119.5" y="-160.6" font-family="Helvetica,sans-Serif" font-size="8.00">+ adaptPorts()</text>
<text text-anchor="start" x="119.5" y="-151.6" font-family="Helvetica,sans-Serif" font-size="8.00">+ calculateUpRes()</text>
<text text-anchor="start" x="119.5" y="-142.6" font-family="Helvetica,sans-Serif" font-size="8.00">+ calculateScatterCoeffs()</text>
<text text-anchor="start" x="119.5" y="-133.6" font-family="Helvetica,sans-Serif" font-size="8.00">+ pullWaveUp()</text>
<text text-anchor="start" x="119.5" y="-124.6" font-family="Helvetica,sans-Serif" font-size="8.00">+ calculateUpB()</text>
<text text-anchor="start" x="119.5" y="-115.6" font-family="Helvetica,sans-Serif" font-size="8.00">+ pushWaveDown()</text>
<text text-anchor="start" x="119.5" y="-106.6" font-family="Helvetica,sans-Serif" font-size="8.00">+ calculateDownB()</text>
<text text-anchor="start" x="119.5" y="-97.6" font-family="Helvetica,sans-Serif" font-size="8.00">+ getType()</text>
</a>
</g>
</g>
<!-- Node2&#45;&gt;Node1 -->
<g id="edge1" class="edge"><title>Node2&#45;&gt;Node1</title>
<path fill="none" stroke="midnightblue" d="M166,-80.5449C166,-70.0281 166,-60.0162 166,-51.5561"/>
<polygon fill="none" stroke="midnightblue" points="162.5,-80.7486 166,-90.7487 169.5,-80.7487 162.5,-80.7486"/>
</g>
<!-- Node2&#45;&gt;Node2 -->
<g id="edge6" class="edge"><title>Node2&#45;&gt;Node2</title>
<path fill="none" stroke="#404040" d="M220.629,-182.72C230.822,-180.661 238,-175.088 238,-166 238,-160.888 235.729,-156.888 231.927,-154"/>
<polygon fill="none" stroke="#404040" points="231.701,-153.906 224.623,-155.284 220.629,-149.28 227.707,-147.902 231.701,-153.906"/>
<text text-anchor="middle" x="263" y="-164.1" font-family="Helvetica,sans-Serif" font-size="8.00"> +parentNode</text>
</g>
<!-- Node3 -->
<g id="node3" class="node"><title>Node3</title>
<polygon fill="none" stroke="#bfbfbf" points="-0.5,-297.5 -0.5,-348.5 106.5,-348.5 106.5,-297.5 -0.5,-297.5"/>
<text text-anchor="middle" x="53" y="-338.1" font-family="Helvetica,sans-Serif" font-size="8.00">vector&lt; wdfTreeNode * &gt;</text>
<polyline fill="none" stroke="#bfbfbf" points="-0.5,-331.5 106.5,-331.5 "/>
<text text-anchor="middle" x="53" y="-321.1" font-family="Helvetica,sans-Serif" font-size="8.00"> </text>
<polyline fill="none" stroke="#bfbfbf" points="-0.5,-314.5 106.5,-314.5 "/>
<text text-anchor="middle" x="53" y="-304.1" font-family="Helvetica,sans-Serif" font-size="8.00"> </text>
</g>
<!-- Node3&#45;&gt;Node2 -->
<g id="edge2" class="edge"><title>Node3&#45;&gt;Node2</title>
<path fill="none" stroke="#404040" d="M70.9052,-297.44C80.2692,-284.595 92.3425,-268.035 104.724,-251.051"/>
<polygon fill="none" stroke="#404040" points="104.962,-250.725 105.264,-243.52 112.031,-241.028 111.729,-248.233 104.962,-250.725"/>
<text text-anchor="middle" x="126" y="-263.1" font-family="Helvetica,sans-Serif" font-size="8.00"> +childrenNodes</text>
</g>
<!-- Node4 -->
<g id="node4" class="node"><title>Node4</title>
<g id="a_node4"><a xlink:href="classwdf_port.html" target="_top" xlink:title="{wdfPort\n||+ wdfPort()\l+ getPortVoltage()\l+ getPortCurrent()\l}">
<polygon fill="none" stroke="black" points="124.5,-288.5 124.5,-357.5 207.5,-357.5 207.5,-288.5 124.5,-288.5"/>
<text text-anchor="middle" x="166" y="-347.1" font-family="Helvetica,sans-Serif" font-size="8.00">wdfPort</text>
<polyline fill="none" stroke="black" points="124.5,-340.5 207.5,-340.5 "/>
<text text-anchor="middle" x="166" y="-330.1" font-family="Helvetica,sans-Serif" font-size="8.00"> </text>
<polyline fill="none" stroke="black" points="124.5,-323.5 207.5,-323.5 "/>
<text text-anchor="start" x="132.5" y="-313.1" font-family="Helvetica,sans-Serif" font-size="8.00">+ wdfPort()</text>
<text text-anchor="start" x="132.5" y="-304.1" font-family="Helvetica,sans-Serif" font-size="8.00">+ getPortVoltage()</text>
<text text-anchor="start" x="132.5" y="-295.1" font-family="Helvetica,sans-Serif" font-size="8.00">+ getPortCurrent()</text>
</a>
</g>
</g>
<!-- Node4&#45;&gt;Node2 -->
<g id="edge3" class="edge"><title>Node4&#45;&gt;Node2</title>
<path fill="none" stroke="#404040" d="M166,-288.367C166,-277.95 166,-265.956 166,-253.65"/>
<polygon fill="none" stroke="#404040" points="166,-253.287 162,-247.287 166,-241.287 170,-247.287 166,-253.287"/>
<text text-anchor="middle" x="181.5" y="-263.1" font-family="Helvetica,sans-Serif" font-size="8.00"> +upPort</text>
</g>
<!-- Node5 -->
<g id="node5" class="node"><title>Node5</title>
<polygon fill="none" stroke="#bfbfbf" points="93.5,-430.5 93.5,-481.5 134.5,-481.5 134.5,-430.5 93.5,-430.5"/>
<text text-anchor="middle" x="114" y="-471.1" font-family="Helvetica,sans-Serif" font-size="8.00">double</text>
<polyline fill="none" stroke="#bfbfbf" points="93.5,-464.5 134.5,-464.5 "/>
<text text-anchor="middle" x="114" y="-454.1" font-family="Helvetica,sans-Serif" font-size="8.00"> </text>
<polyline fill="none" stroke="#bfbfbf" points="93.5,-447.5 134.5,-447.5 "/>
<text text-anchor="middle" x="114" y="-437.1" font-family="Helvetica,sans-Serif" font-size="8.00"> </text>
</g>
<!-- Node5&#45;&gt;Node4 -->
<g id="edge4" class="edge"><title>Node5&#45;&gt;Node4</title>
<path fill="none" stroke="#404040" d="M123.781,-430.36C130.6,-413.18 139.898,-389.756 148.033,-369.263"/>
<polygon fill="none" stroke="#404040" points="148.107,-369.076 146.603,-362.023 152.535,-357.922 154.039,-364.975 148.107,-369.076"/>
<text text-anchor="middle" x="153" y="-405.6" font-family="Helvetica,sans-Serif" font-size="8.00"> +a</text>
<text text-anchor="middle" x="153" y="-396.6" font-family="Helvetica,sans-Serif" font-size="8.00">+b</text>
<text text-anchor="middle" x="153" y="-387.6" font-family="Helvetica,sans-Serif" font-size="8.00">+Rp</text>
<text text-anchor="middle" x="153" y="-378.6" font-family="Helvetica,sans-Serif" font-size="8.00">+Gp</text>
</g>
<!-- Node6 -->
<g id="node6" class="node"><title>Node6</title>
<polygon fill="none" stroke="#bfbfbf" points="153,-430.5 153,-481.5 285,-481.5 285,-430.5 153,-430.5"/>
<text text-anchor="middle" x="219" y="-471.1" font-family="Helvetica,sans-Serif" font-size="8.00">ScopedPointer&lt; wdfTreeNode &gt;</text>
<polyline fill="none" stroke="#bfbfbf" points="153,-464.5 285,-464.5 "/>
<text text-anchor="middle" x="219" y="-454.1" font-family="Helvetica,sans-Serif" font-size="8.00"> </text>
<polyline fill="none" stroke="#bfbfbf" points="153,-447.5 285,-447.5 "/>
<text text-anchor="middle" x="219" y="-437.1" font-family="Helvetica,sans-Serif" font-size="8.00"> </text>
</g>
<!-- Node6&#45;&gt;Node4 -->
<g id="edge5" class="edge"><title>Node6&#45;&gt;Node4</title>
<path fill="none" stroke="#404040" d="M209.031,-430.36C202.08,-413.18 192.604,-389.756 184.312,-369.263"/>
<polygon fill="none" stroke="#404040" points="184.225,-369.046 178.267,-364.984 179.724,-357.922 185.683,-361.984 184.225,-369.046"/>
<text text-anchor="middle" x="233" y="-392.1" font-family="Helvetica,sans-Serif" font-size="8.00"> +connectedNode</text>
</g>
<!-- Node7 -->
<g id="node7" class="node"><title>Node7</title>
<polygon fill="none" stroke="#bfbfbf" points="225.5,-297.5 225.5,-348.5 310.5,-348.5 310.5,-297.5 225.5,-297.5"/>
<text text-anchor="middle" x="268" y="-338.1" font-family="Helvetica,sans-Serif" font-size="8.00">vector&lt; wdfPort * &gt;</text>
<polyline fill="none" stroke="#bfbfbf" points="225.5,-331.5 310.5,-331.5 "/>
<text text-anchor="middle" x="268" y="-321.1" font-family="Helvetica,sans-Serif" font-size="8.00"> </text>
<polyline fill="none" stroke="#bfbfbf" points="225.5,-314.5 310.5,-314.5 "/>
<text text-anchor="middle" x="268" y="-304.1" font-family="Helvetica,sans-Serif" font-size="8.00"> </text>
</g>
<!-- Node7&#45;&gt;Node2 -->
<g id="edge7" class="edge"><title>Node7&#45;&gt;Node2</title>
<path fill="none" stroke="#404040" d="M251.838,-297.44C243.464,-284.715 232.691,-268.344 221.624,-251.527"/>
<polygon fill="none" stroke="#404040" points="221.312,-251.052 214.672,-248.239 214.715,-241.028 221.355,-243.841 221.312,-251.052"/>
<text text-anchor="middle" x="256" y="-263.1" font-family="Helvetica,sans-Serif" font-size="8.00"> +downPorts</text>
</g>
</g>
</svg>
