<?xml version="1.0" encoding="UTF-8" standalone="no"?>
<!DOCTYPE svg PUBLIC "-//W3C//DTD SVG 1.1//EN"
 "http://www.w3.org/Graphics/SVG/1.1/DTD/svg11.dtd">
<!-- Generated by graphviz version 2.36.0 (20140111.2315)
 -->
<!-- Title: nlNBSolver Pages: 1 -->
<svg width="161pt" height="294pt"
 viewBox="0.00 0.00 161.00 294.00" xmlns="http://www.w3.org/2000/svg" xmlns:xlink="http://www.w3.org/1999/xlink">
<g id="graph0" class="graph" transform="scale(1 1) rotate(0) translate(4 290)">
<title>nlNBSolver</title>
<!-- Node1 -->
<g id="node1" class="node"><title>Node1</title>
<polygon fill="#bfbfbf" stroke="black" points="40.5,-0.5 40.5,-69.5 117.5,-69.5 117.5,-0.5 40.5,-0.5"/>
<text text-anchor="middle" x="79" y="-59.1" font-family="Helvetica,sans-Serif" font-size="8.00">nlNBSolver</text>
<polyline fill="none" stroke="black" points="40.5,-52.5 117.5,-52.5 "/>
<text text-anchor="middle" x="79" y="-42.1" font-family="Helvetica,sans-Serif" font-size="8.00"> </text>
<polyline fill="none" stroke="black" points="40.5,-35.5 117.5,-35.5 "/>
<text text-anchor="start" x="48.5" y="-25.1" font-family="Helvetica,sans-Serif" font-size="8.00">+ nlNBSolver()</text>
<text text-anchor="start" x="48.5" y="-16.1" font-family="Helvetica,sans-Serif" font-size="8.00">+ nlSolve()</text>
<text text-anchor="start" x="48.5" y="-7.1" font-family="Helvetica,sans-Serif" font-size="8.00">+ evalNlModels()</text>
</g>
<!-- Node2 -->
<g id="node2" class="node"><title>Node2</title>
<g id="a_node2"><a xlink:href="classnl_solver.html" target="_top" xlink:title="{nlSolver\n||+ nlSolver()\l+ ~nlSolver()\l+ getNumPorts()\l+ nlSolve()\l}">
<polygon fill="none" stroke="black" points="40.5,-109 40.5,-187 117.5,-187 117.5,-109 40.5,-109"/>
<text text-anchor="middle" x="79" y="-176.6" font-family="Helvetica,sans-Serif" font-size="8.00">nlSolver</text>
<polyline fill="none" stroke="black" points="40.5,-170 117.5,-170 "/>
<text text-anchor="middle" x="79" y="-159.6" font-family="Helvetica,sans-Serif" font-size="8.00"> </text>
<polyline fill="none" stroke="black" points="40.5,-153 117.5,-153 "/>
<text text-anchor="start" x="48.5" y="-142.6" font-family="Helvetica,sans-Serif" font-size="8.00">+ nlSolver()</text>
<text text-anchor="start" x="48.5" y="-133.6" font-family="Helvetica,sans-Serif" font-size="8.00">+ ~nlSolver()</text>
<text text-anchor="start" x="48.5" y="-124.6" font-family="Helvetica,sans-Serif" font-size="8.00">+ getNumPorts()</text>
<text text-anchor="start" x="48.5" y="-115.6" font-family="Helvetica,sans-Serif" font-size="8.00">+ nlSolve()</text>
</a>
</g>
</g>
<!-- Node2&#45;&gt;Node1 -->
<g id="edge1" class="edge"><title>Node2&#45;&gt;Node1</title>
<path fill="none" stroke="midnightblue" d="M79,-98.7878C79,-89.024 79,-78.9539 79,-69.8147"/>
<polygon fill="none" stroke="midnightblue" points="75.5001,-98.8001 79,-108.8 82.5001,-98.8001 75.5001,-98.8001"/>
</g>
<!-- Node3 -->
<g id="node3" class="node"><title>Node3</title>
<polygon fill="none" stroke="#bfbfbf" points="-0.5,-234.5 -0.5,-285.5 84.5,-285.5 84.5,-234.5 -0.5,-234.5"/>
<text text-anchor="middle" x="42" y="-275.1" font-family="Helvetica,sans-Serif" font-size="8.00">vector&lt; nlModel * &gt;</text>
<polyline fill="none" stroke="#bfbfbf" points="-0.5,-268.5 84.5,-268.5 "/>
<text text-anchor="middle" x="42" y="-258.1" font-family="Helvetica,sans-Serif" font-size="8.00"> </text>
<polyline fill="none" stroke="#bfbfbf" points="-0.5,-251.5 84.5,-251.5 "/>
<text text-anchor="middle" x="42" y="-241.1" font-family="Helvetica,sans-Serif" font-size="8.00"> </text>
</g>
<!-- Node3&#45;&gt;Node2 -->
<g id="edge2" class="edge"><title>Node3&#45;&gt;Node2</title>
<path fill="none" stroke="#404040" d="M47.8477,-234.271C50.1495,-225.295 52.9682,-215.122 56,-206 56.8341,-203.491 57.7222,-200.933 58.6461,-198.36"/>
<polygon fill="none" stroke="#404040" points="58.6612,-198.319 57.0191,-191.298 62.8691,-187.081 64.5112,-194.103 58.6612,-198.319"/>
<text text-anchor="middle" x="75.5" y="-209.1" font-family="Helvetica,sans-Serif" font-size="8.00"> +nlModels</text>
</g>
<!-- Node4 -->
<g id="node4" class="node"><title>Node4</title>
<polygon fill="none" stroke="#bfbfbf" points="102.5,-234.5 102.5,-285.5 131.5,-285.5 131.5,-234.5 102.5,-234.5"/>
<text text-anchor="middle" x="117" y="-275.1" font-family="Helvetica,sans-Serif" font-size="8.00">int</text>
<polyline fill="none" stroke="#bfbfbf" points="102.5,-268.5 131.5,-268.5 "/>
<text text-anchor="middle" x="117" y="-258.1" font-family="Helvetica,sans-Serif" font-size="8.00"> </text>
<polyline fill="none" stroke="#bfbfbf" points="102.5,-251.5 131.5,-251.5 "/>
<text text-anchor="middle" x="117" y="-241.1" font-family="Helvetica,sans-Serif" font-size="8.00"> </text>
</g>
<!-- Node4&#45;&gt;Node2 -->
<g id="edge3" class="edge"><title>Node4&#45;&gt;Node2</title>
<path fill="none" stroke="#404040" d="M108.472,-234.314C104.857,-223.849 100.507,-211.256 96.2715,-198.996"/>
<polygon fill="none" stroke="#404040" points="96.1926,-198.768 90.4527,-194.403 92.2743,-187.426 98.0142,-191.791 96.1926,-198.768"/>
<text text-anchor="middle" x="127" y="-209.1" font-family="Helvetica,sans-Serif" font-size="8.00"> +numNLPorts</text>
</g>
</g>
</svg>
