<?xml version="1.0" encoding="UTF-8" standalone="no"?>
<!DOCTYPE svg PUBLIC "-//W3C//DTD SVG 1.1//EN"
 "http://www.w3.org/Graphics/SVG/1.1/DTD/svg11.dtd">
<!-- Generated by graphviz version 2.36.0 (20140111.2315)
 -->
<!-- Title: wdfRoot Pages: 1 -->
<svg width="398pt" height="230pt"
 viewBox="0.00 0.00 398.00 230.00" xmlns="http://www.w3.org/2000/svg" xmlns:xlink="http://www.w3.org/1999/xlink">
<g id="graph0" class="graph" transform="scale(1 1) rotate(0) translate(4 226)">
<title>wdfRoot</title>
<!-- Node1 -->
<g id="node1" class="node"><title>Node1</title>
<polygon fill="#bfbfbf" stroke="black" points="136,-125 136,-221 254,-221 254,-125 136,-125"/>
<text text-anchor="middle" x="195" y="-210.6" font-family="Helvetica,sans-Serif" font-size="8.00">wdfRoot</text>
<polyline fill="none" stroke="black" points="136,-204 254,-204 "/>
<text text-anchor="middle" x="195" y="-193.6" font-family="Helvetica,sans-Serif" font-size="8.00"> </text>
<polyline fill="none" stroke="black" points="136,-187 254,-187 "/>
<text text-anchor="start" x="144" y="-176.6" font-family="Helvetica,sans-Serif" font-size="8.00">+ wdfRoot()</text>
<text text-anchor="start" x="144" y="-167.6" font-family="Helvetica,sans-Serif" font-size="8.00">+ ~wdfRoot()</text>
<text text-anchor="start" x="144" y="-158.6" font-family="Helvetica,sans-Serif" font-size="8.00">+ setPortResistances()</text>
<text text-anchor="start" x="144" y="-149.6" font-family="Helvetica,sans-Serif" font-size="8.00">+ processAscendingWaves()</text>
<text text-anchor="start" x="144" y="-140.6" font-family="Helvetica,sans-Serif" font-size="8.00">+ getRootMatrPtr()</text>
<text text-anchor="start" x="144" y="-131.6" font-family="Helvetica,sans-Serif" font-size="8.00">+ getType()</text>
</g>
<!-- Node2 -->
<g id="node2" class="node"><title>Node2</title>
<g id="a_node2"><a xlink:href="classwdf_root_n_l.html" target="_top" xlink:title="{wdfRootNL\n||+ wdfRootNL()\l+ processAscendingWaves()\l+ getRootMatrPtr()\l+ getType()\l}">
<polygon fill="none" stroke="black" points="0,-5 0,-83 118,-83 118,-5 0,-5"/>
<text text-anchor="middle" x="59" y="-72.6" font-family="Helvetica,sans-Serif" font-size="8.00">wdfRootNL</text>
<polyline fill="none" stroke="black" points="0,-66 118,-66 "/>
<text text-anchor="middle" x="59" y="-55.6" font-family="Helvetica,sans-Serif" font-size="8.00"> </text>
<polyline fill="none" stroke="black" points="0,-49 118,-49 "/>
<text text-anchor="start" x="8" y="-38.6" font-family="Helvetica,sans-Serif" font-size="8.00">+ wdfRootNL()</text>
<text text-anchor="start" x="8" y="-29.6" font-family="Helvetica,sans-Serif" font-size="8.00">+ processAscendingWaves()</text>
<text text-anchor="start" x="8" y="-20.6" font-family="Helvetica,sans-Serif" font-size="8.00">+ getRootMatrPtr()</text>
<text text-anchor="start" x="8" y="-11.6" font-family="Helvetica,sans-Serif" font-size="8.00">+ getType()</text>
</a>
</g>
</g>
<!-- Node1&#45;&gt;Node2 -->
<g id="edge1" class="edge"><title>Node1&#45;&gt;Node2</title>
<path fill="none" stroke="midnightblue" d="M136.717,-117.574C124.329,-106.006 111.502,-94.0273 99.9255,-83.2172"/>
<polygon fill="none" stroke="midnightblue" points="134.661,-120.443 144.359,-124.71 139.439,-115.327 134.661,-120.443"/>
</g>
<!-- Node3 -->
<g id="node3" class="node"><title>Node3</title>
<g id="a_node3"><a xlink:href="classwdf_root_rtype.html" target="_top" xlink:title="{wdfRootRtype\n||+ wdfRootRtype()\l+ processAscendingWaves()\l+ getRootMatrPtr()\l+ getType()\l}">
<polygon fill="none" stroke="black" points="136,-5 136,-83 254,-83 254,-5 136,-5"/>
<text text-anchor="middle" x="195" y="-72.6" font-family="Helvetica,sans-Serif" font-size="8.00">wdfRootRtype</text>
<polyline fill="none" stroke="black" points="136,-66 254,-66 "/>
<text text-anchor="middle" x="195" y="-55.6" font-family="Helvetica,sans-Serif" font-size="8.00"> </text>
<polyline fill="none" stroke="black" points="136,-49 254,-49 "/>
<text text-anchor="start" x="144" y="-38.6" font-family="Helvetica,sans-Serif" font-size="8.00">+ wdfRootRtype()</text>
<text text-anchor="start" x="144" y="-29.6" font-family="Helvetica,sans-Serif" font-size="8.00">+ processAscendingWaves()</text>
<text text-anchor="start" x="144" y="-20.6" font-family="Helvetica,sans-Serif" font-size="8.00">+ getRootMatrPtr()</text>
<text text-anchor="start" x="144" y="-11.6" font-family="Helvetica,sans-Serif" font-size="8.00">+ getType()</text>
</a>
</g>
</g>
<!-- Node1&#45;&gt;Node3 -->
<g id="edge2" class="edge"><title>Node1&#45;&gt;Node3</title>
<path fill="none" stroke="midnightblue" d="M195,-114.62C195,-103.98 195,-93.1095 195,-83.2172"/>
<polygon fill="none" stroke="midnightblue" points="191.5,-114.71 195,-124.71 198.5,-114.71 191.5,-114.71"/>
</g>
<!-- Node4 -->
<g id="node4" class="node"><title>Node4</title>
<g id="a_node4"><a xlink:href="classwdf_root_simple.html" target="_top" xlink:title="{wdfRootSimple\n||+ wdfRootSimple()\l+ setPortResistances()\l+ processAscendingWaves()\l+ getRootMatrPtr()\l+ getType()\l}">
<polygon fill="none" stroke="black" points="272,-0.5 272,-87.5 390,-87.5 390,-0.5 272,-0.5"/>
<text text-anchor="middle" x="331" y="-77.1" font-family="Helvetica,sans-Serif" font-size="8.00">wdfRootSimple</text>
<polyline fill="none" stroke="black" points="272,-70.5 390,-70.5 "/>
<text text-anchor="middle" x="331" y="-60.1" font-family="Helvetica,sans-Serif" font-size="8.00"> </text>
<polyline fill="none" stroke="black" points="272,-53.5 390,-53.5 "/>
<text text-anchor="start" x="280" y="-43.1" font-family="Helvetica,sans-Serif" font-size="8.00">+ wdfRootSimple()</text>
<text text-anchor="start" x="280" y="-34.1" font-family="Helvetica,sans-Serif" font-size="8.00">+ setPortResistances()</text>
<text text-anchor="start" x="280" y="-25.1" font-family="Helvetica,sans-Serif" font-size="8.00">+ processAscendingWaves()</text>
<text text-anchor="start" x="280" y="-16.1" font-family="Helvetica,sans-Serif" font-size="8.00">+ getRootMatrPtr()</text>
<text text-anchor="start" x="280" y="-7.1" font-family="Helvetica,sans-Serif" font-size="8.00">+ getType()</text>
</a>
</g>
</g>
<!-- Node1&#45;&gt;Node4 -->
<g id="edge3" class="edge"><title>Node1&#45;&gt;Node4</title>
<path fill="none" stroke="midnightblue" d="M253.03,-117.81C263.801,-107.752 274.912,-97.3758 285.253,-87.7198"/>
<polygon fill="none" stroke="midnightblue" points="250.561,-115.327 245.641,-124.71 255.339,-120.443 250.561,-115.327"/>
</g>
</g>
</svg>
