<?xml version="1.0" encoding="UTF-8" standalone="no"?>
<!DOCTYPE svg PUBLIC "-//W3C//DTD SVG 1.1//EN"
 "http://www.w3.org/Graphics/SVG/1.1/DTD/svg11.dtd">
<!-- Generated by graphviz version 2.36.0 (20140111.2315)
 -->
<!-- Title: nlNBSolver Pages: 1 -->
<svg width="84pt" height="202pt"
 viewBox="0.00 0.00 84.00 202.00" xmlns="http://www.w3.org/2000/svg" xmlns:xlink="http://www.w3.org/1999/xlink">
<g id="graph0" class="graph" transform="scale(1 1) rotate(0) translate(4 198)">
<title>nlNBSolver</title>
<!-- Node1 -->
<g id="node1" class="node"><title>Node1</title>
<polygon fill="#bfbfbf" stroke="black" points="-0.5,-0.5 -0.5,-69.5 76.5,-69.5 76.5,-0.5 -0.5,-0.5"/>
<text text-anchor="middle" x="38" y="-59.1" font-family="Helvetica,sans-Serif" font-size="8.00">nlNBSolver</text>
<polyline fill="none" stroke="black" points="-0.5,-52.5 76.5,-52.5 "/>
<text text-anchor="middle" x="38" y="-42.1" font-family="Helvetica,sans-Serif" font-size="8.00"> </text>
<polyline fill="none" stroke="black" points="-0.5,-35.5 76.5,-35.5 "/>
<text text-anchor="start" x="7.5" y="-25.1" font-family="Helvetica,sans-Serif" font-size="8.00">+ nlNBSolver()</text>
<text text-anchor="start" x="7.5" y="-16.1" font-family="Helvetica,sans-Serif" font-size="8.00">+ nlSolve()</text>
<text text-anchor="start" x="7.5" y="-7.1" font-family="Helvetica,sans-Serif" font-size="8.00">+ evalNlModels()</text>
</g>
<!-- Node2 -->
<g id="node2" class="node"><title>Node2</title>
<g id="a_node2"><a xlink:href="classnl_solver.html" target="_top" xlink:title="{nlSolver\n|+ nlModels\l+ numNLPorts\l|+ nlSolver()\l+ ~nlSolver()\l+ getNumPorts()\l+ nlSolve()\l}">
<polygon fill="none" stroke="black" points="-0.5,-106.5 -0.5,-193.5 76.5,-193.5 76.5,-106.5 -0.5,-106.5"/>
<text text-anchor="middle" x="38" y="-183.1" font-family="Helvetica,sans-Serif" font-size="8.00">nlSolver</text>
<polyline fill="none" stroke="black" points="-0.5,-176.5 76.5,-176.5 "/>
<text text-anchor="start" x="7.5" y="-166.1" font-family="Helvetica,sans-Serif" font-size="8.00">+ nlModels</text>
<text text-anchor="start" x="7.5" y="-157.1" font-family="Helvetica,sans-Serif" font-size="8.00">+ numNLPorts</text>
<polyline fill="none" stroke="black" points="-0.5,-150.5 76.5,-150.5 "/>
<text text-anchor="start" x="7.5" y="-140.1" font-family="Helvetica,sans-Serif" font-size="8.00">+ nlSolver()</text>
<text text-anchor="start" x="7.5" y="-131.1" font-family="Helvetica,sans-Serif" font-size="8.00">+ ~nlSolver()</text>
<text text-anchor="start" x="7.5" y="-122.1" font-family="Helvetica,sans-Serif" font-size="8.00">+ getNumPorts()</text>
<text text-anchor="start" x="7.5" y="-113.1" font-family="Helvetica,sans-Serif" font-size="8.00">+ nlSolve()</text>
</a>
</g>
</g>
<!-- Node2&#45;&gt;Node1 -->
<g id="edge1" class="edge"><title>Node2&#45;&gt;Node1</title>
<path fill="none" stroke="midnightblue" d="M38,-96.1807C38,-87.1446 38,-77.9825 38,-69.624"/>
<polygon fill="none" stroke="midnightblue" points="34.5001,-96.2795 38,-106.28 41.5001,-96.2796 34.5001,-96.2795"/>
</g>
</g>
</svg>
