<?xml version="1.0" encoding="UTF-8" standalone="no"?>
<!DOCTYPE svg PUBLIC "-//W3C//DTD SVG 1.1//EN"
 "http://www.w3.org/Graphics/SVG/1.1/DTD/svg11.dtd">
<!-- Generated by graphviz version 2.36.0 (20140111.2315)
 -->
<!-- Title: wdfTerminatedLeaf Pages: 1 -->
<svg width="318pt" height="500pt"
 viewBox="0.00 0.00 318.00 500.00" xmlns="http://www.w3.org/2000/svg" xmlns:xlink="http://www.w3.org/1999/xlink">
<g id="graph0" class="graph" transform="scale(1 1) rotate(0) translate(4 496)">
<title>wdfTerminatedLeaf</title>
<!-- Node1 -->
<g id="node1" class="node"><title>Node1</title>
<polygon fill="#bfbfbf" stroke="black" points="111.5,-1 111.5,-61 220.5,-61 220.5,-1 111.5,-1"/>
<text text-anchor="middle" x="166" y="-50.6" font-family="Helvetica,sans-Serif" font-size="8.00">wdfTerminatedLeaf</text>
<polyline fill="none" stroke="black" points="111.5,-44 220.5,-44 "/>
<text text-anchor="middle" x="166" y="-33.6" font-family="Helvetica,sans-Serif" font-size="8.00"> </text>
<polyline fill="none" stroke="black" points="111.5,-27 220.5,-27 "/>
<text text-anchor="start" x="119.5" y="-16.6" font-family="Helvetica,sans-Serif" font-size="8.00">+ wdfTerminatedLeaf()</text>
<text text-anchor="start" x="119.5" y="-7.6" font-family="Helvetica,sans-Serif" font-size="8.00">+ calculateScatterCoeffs()</text>
</g>
<!-- Node2 -->
<g id="node2" class="node"><title>Node2</title>
<g id="a_node2"><a xlink:href="classwdf_tree_node.html" target="_top" xlink:title="{wdfTreeNode\n||+ wdfTreeNode()\l+ ~wdfTreeNode()\l+ setParentInChildren()\l+ createPorts()\l+ adaptPorts()\l+ calculateUpRes()\l+ calculateScatterCoeffs()\l+ pullWaveUp()\l+ calculateUpB()\l+ pushWaveDown()\l+ calculateDownB()\l+ getType()\l}">
<polygon fill="none" stroke="black" points="111.5,-101 111.5,-251 220.5,-251 220.5,-101 111.5,-101"/>
<text text-anchor="middle" x="166" y="-240.6" font-family="Helvetica,sans-Serif" font-size="8.00">wdfTreeNode</text>
<polyline fill="none" stroke="black" points="111.5,-234 220.5,-234 "/>
<text text-anchor="middle" x="166" y="-223.6" font-family="Helvetica,sans-Serif" font-size="8.00"> </text>
<polyline fill="none" stroke="black" points="111.5,-217 220.5,-217 "/>
<text text-anchor="start" x="119.5" y="-206.6" font-family="Helvetica,sans-Serif" font-size="8.00">+ wdfTreeNode()</text>
<text text-anchor="start" x="119.5" y="-197.6" font-family="Helvetica,sans-Serif" font-size="8.00">+ ~wdfTreeNode()</text>
<text text-anchor="start" x="119.5" y="-188.6" font-family="Helvetica,sans-Serif" font-size="8.00">+ setParentInChildren()</text>
<text text-anchor="start" x="119.5" y="-179.6" font-family="Helvetica,sans-Serif" font-size="8.00">+ createPorts()</text>
<text text-anchor="start" x="119.5" y="-170.6" font-family="Helvetica,sans-Serif" font-size="8.00">+ adaptPorts()</text>
<text text-anchor="start" x="119.5" y="-161.6" font-family="Helvetica,sans-Serif" font-size="8.00">+ calculateUpRes()</text>
<text text-anchor="start" x="119.5" y="-152.6" font-family="Helvetica,sans-Serif" font-size="8.00">+ calculateScatterCoeffs()</text>
<text text-anchor="start" x="119.5" y="-143.6" font-family="Helvetica,sans-Serif" font-size="8.00">+ pullWaveUp()</text>
<text text-anchor="start" x="119.5" y="-134.6" font-family="Helvetica,sans-Serif" font-size="8.00">+ calculateUpB()</text>
<text text-anchor="start" x="119.5" y="-125.6" font-family="Helvetica,sans-Serif" font-size="8.00">+ pushWaveDown()</text>
<text text-anchor="start" x="119.5" y="-116.6" font-family="Helvetica,sans-Serif" font-size="8.00">+ calculateDownB()</text>
<text text-anchor="start" x="119.5" y="-107.6" font-family="Helvetica,sans-Serif" font-size="8.00">+ getType()</text>
</a>
</g>
</g>
<!-- Node2&#45;&gt;Node1 -->
<g id="edge1" class="edge"><title>Node2&#45;&gt;Node1</title>
<path fill="none" stroke="midnightblue" d="M166,-90.7425C166,-80.1479 166,-69.9396 166,-61.089"/>
<polygon fill="none" stroke="midnightblue" points="162.5,-90.9868 166,-100.987 169.5,-90.9868 162.5,-90.9868"/>
</g>
<!-- Node2&#45;&gt;Node2 -->
<g id="edge6" class="edge"><title>Node2&#45;&gt;Node2</title>
<path fill="none" stroke="#404040" d="M220.629,-192.72C230.822,-190.661 238,-185.088 238,-176 238,-170.888 235.729,-166.888 231.927,-164"/>
<polygon fill="none" stroke="#404040" points="231.701,-163.906 224.623,-165.284 220.629,-159.28 227.707,-157.902 231.701,-163.906"/>
<text text-anchor="middle" x="263" y="-174.1" font-family="Helvetica,sans-Serif" font-size="8.00"> +parentNode</text>
</g>
<!-- Node3 -->
<g id="node3" class="node"><title>Node3</title>
<polygon fill="none" stroke="#bfbfbf" points="-0.5,-307.5 -0.5,-358.5 106.5,-358.5 106.5,-307.5 -0.5,-307.5"/>
<text text-anchor="middle" x="53" y="-348.1" font-family="Helvetica,sans-Serif" font-size="8.00">vector&lt; wdfTreeNode * &gt;</text>
<polyline fill="none" stroke="#bfbfbf" points="-0.5,-341.5 106.5,-341.5 "/>
<text text-anchor="middle" x="53" y="-331.1" font-family="Helvetica,sans-Serif" font-size="8.00"> </text>
<polyline fill="none" stroke="#bfbfbf" points="-0.5,-324.5 106.5,-324.5 "/>
<text text-anchor="middle" x="53" y="-314.1" font-family="Helvetica,sans-Serif" font-size="8.00"> </text>
</g>
<!-- Node3&#45;&gt;Node2 -->
<g id="edge2" class="edge"><title>Node3&#45;&gt;Node2</title>
<path fill="none" stroke="#404040" d="M70.9052,-307.44C80.2692,-294.595 92.3425,-278.035 104.724,-261.051"/>
<polygon fill="none" stroke="#404040" points="104.962,-260.725 105.264,-253.52 112.031,-251.028 111.729,-258.233 104.962,-260.725"/>
<text text-anchor="middle" x="126" y="-273.1" font-family="Helvetica,sans-Serif" font-size="8.00"> +childrenNodes</text>
</g>
<!-- Node4 -->
<g id="node4" class="node"><title>Node4</title>
<g id="a_node4"><a xlink:href="classwdf_port.html" target="_top" xlink:title="{wdfPort\n||+ wdfPort()\l+ getPortVoltage()\l+ getPortCurrent()\l}">
<polygon fill="none" stroke="black" points="124.5,-298.5 124.5,-367.5 207.5,-367.5 207.5,-298.5 124.5,-298.5"/>
<text text-anchor="middle" x="166" y="-357.1" font-family="Helvetica,sans-Serif" font-size="8.00">wdfPort</text>
<polyline fill="none" stroke="black" points="124.5,-350.5 207.5,-350.5 "/>
<text text-anchor="middle" x="166" y="-340.1" font-family="Helvetica,sans-Serif" font-size="8.00"> </text>
<polyline fill="none" stroke="black" points="124.5,-333.5 207.5,-333.5 "/>
<text text-anchor="start" x="132.5" y="-323.1" font-family="Helvetica,sans-Serif" font-size="8.00">+ wdfPort()</text>
<text text-anchor="start" x="132.5" y="-314.1" font-family="Helvetica,sans-Serif" font-size="8.00">+ getPortVoltage()</text>
<text text-anchor="start" x="132.5" y="-305.1" font-family="Helvetica,sans-Serif" font-size="8.00">+ getPortCurrent()</text>
</a>
</g>
</g>
<!-- Node4&#45;&gt;Node2 -->
<g id="edge3" class="edge"><title>Node4&#45;&gt;Node2</title>
<path fill="none" stroke="#404040" d="M166,-298.367C166,-287.95 166,-275.956 166,-263.65"/>
<polygon fill="none" stroke="#404040" points="166,-263.287 162,-257.287 166,-251.287 170,-257.287 166,-263.287"/>
<text text-anchor="middle" x="181.5" y="-273.1" font-family="Helvetica,sans-Serif" font-size="8.00"> +upPort</text>
</g>
<!-- Node5 -->
<g id="node5" class="node"><title>Node5</title>
<polygon fill="none" stroke="#bfbfbf" points="93.5,-440.5 93.5,-491.5 134.5,-491.5 134.5,-440.5 93.5,-440.5"/>
<text text-anchor="middle" x="114" y="-481.1" font-family="Helvetica,sans-Serif" font-size="8.00">double</text>
<polyline fill="none" stroke="#bfbfbf" points="93.5,-474.5 134.5,-474.5 "/>
<text text-anchor="middle" x="114" y="-464.1" font-family="Helvetica,sans-Serif" font-size="8.00"> </text>
<polyline fill="none" stroke="#bfbfbf" points="93.5,-457.5 134.5,-457.5 "/>
<text text-anchor="middle" x="114" y="-447.1" font-family="Helvetica,sans-Serif" font-size="8.00"> </text>
</g>
<!-- Node5&#45;&gt;Node4 -->
<g id="edge4" class="edge"><title>Node5&#45;&gt;Node4</title>
<path fill="none" stroke="#404040" d="M123.781,-440.36C130.6,-423.18 139.898,-399.756 148.033,-379.263"/>
<polygon fill="none" stroke="#404040" points="148.107,-379.076 146.603,-372.023 152.535,-367.922 154.039,-374.975 148.107,-379.076"/>
<text text-anchor="middle" x="153" y="-415.6" font-family="Helvetica,sans-Serif" font-size="8.00"> +a</text>
<text text-anchor="middle" x="153" y="-406.6" font-family="Helvetica,sans-Serif" font-size="8.00">+b</text>
<text text-anchor="middle" x="153" y="-397.6" font-family="Helvetica,sans-Serif" font-size="8.00">+Rp</text>
<text text-anchor="middle" x="153" y="-388.6" font-family="Helvetica,sans-Serif" font-size="8.00">+Gp</text>
</g>
<!-- Node6 -->
<g id="node6" class="node"><title>Node6</title>
<polygon fill="none" stroke="#bfbfbf" points="153,-440.5 153,-491.5 285,-491.5 285,-440.5 153,-440.5"/>
<text text-anchor="middle" x="219" y="-481.1" font-family="Helvetica,sans-Serif" font-size="8.00">ScopedPointer&lt; wdfTreeNode &gt;</text>
<polyline fill="none" stroke="#bfbfbf" points="153,-474.5 285,-474.5 "/>
<text text-anchor="middle" x="219" y="-464.1" font-family="Helvetica,sans-Serif" font-size="8.00"> </text>
<polyline fill="none" stroke="#bfbfbf" points="153,-457.5 285,-457.5 "/>
<text text-anchor="middle" x="219" y="-447.1" font-family="Helvetica,sans-Serif" font-size="8.00"> </text>
</g>
<!-- Node6&#45;&gt;Node4 -->
<g id="edge5" class="edge"><title>Node6&#45;&gt;Node4</title>
<path fill="none" stroke="#404040" d="M209.031,-440.36C202.08,-423.18 192.604,-399.756 184.312,-379.263"/>
<polygon fill="none" stroke="#404040" points="184.225,-379.046 178.267,-374.984 179.724,-367.922 185.683,-371.984 184.225,-379.046"/>
<text text-anchor="middle" x="233" y="-402.1" font-family="Helvetica,sans-Serif" font-size="8.00"> +connectedNode</text>
</g>
<!-- Node7 -->
<g id="node7" class="node"><title>Node7</title>
<polygon fill="none" stroke="#bfbfbf" points="225.5,-307.5 225.5,-358.5 310.5,-358.5 310.5,-307.5 225.5,-307.5"/>
<text text-anchor="middle" x="268" y="-348.1" font-family="Helvetica,sans-Serif" font-size="8.00">vector&lt; wdfPort * &gt;</text>
<polyline fill="none" stroke="#bfbfbf" points="225.5,-341.5 310.5,-341.5 "/>
<text text-anchor="middle" x="268" y="-331.1" font-family="Helvetica,sans-Serif" font-size="8.00"> </text>
<polyline fill="none" stroke="#bfbfbf" points="225.5,-324.5 310.5,-324.5 "/>
<text text-anchor="middle" x="268" y="-314.1" font-family="Helvetica,sans-Serif" font-size="8.00"> </text>
</g>
<!-- Node7&#45;&gt;Node2 -->
<g id="edge7" class="edge"><title>Node7&#45;&gt;Node2</title>
<path fill="none" stroke="#404040" d="M251.838,-307.44C243.464,-294.715 232.691,-278.344 221.624,-261.527"/>
<polygon fill="none" stroke="#404040" points="221.312,-261.052 214.672,-258.239 214.715,-251.028 221.355,-253.841 221.312,-261.052"/>
<text text-anchor="middle" x="256" y="-273.1" font-family="Helvetica,sans-Serif" font-size="8.00"> +downPorts</text>
</g>
</g>
</svg>
