<?xml version="1.0" encoding="UTF-8" standalone="no"?>
<!DOCTYPE svg PUBLIC "-//W3C//DTD SVG 1.1//EN"
 "http://www.w3.org/Graphics/SVG/1.1/DTD/svg11.dtd">
<!-- Generated by graphviz version 2.36.0 (20140111.2315)
 -->
<!-- Title: diodeApModel Pages: 1 -->
<svg width="88pt" height="176pt"
 viewBox="0.00 0.00 88.00 176.00" xmlns="http://www.w3.org/2000/svg" xmlns:xlink="http://www.w3.org/1999/xlink">
<g id="graph0" class="graph" transform="scale(1 1) rotate(0) translate(4 172)">
<title>diodeApModel</title>
<!-- Node1 -->
<g id="node1" class="node"><title>Node1</title>
<polygon fill="#bfbfbf" stroke="black" points="0,-1 0,-61 80,-61 80,-1 0,-1"/>
<text text-anchor="middle" x="40" y="-50.6" font-family="Helvetica,sans-Serif" font-size="8.00">diodeApModel</text>
<polyline fill="none" stroke="black" points="0,-44 80,-44 "/>
<text text-anchor="middle" x="40" y="-33.6" font-family="Helvetica,sans-Serif" font-size="8.00"> </text>
<polyline fill="none" stroke="black" points="0,-27 80,-27 "/>
<text text-anchor="start" x="8" y="-16.6" font-family="Helvetica,sans-Serif" font-size="8.00">+ diodeApModel()</text>
<text text-anchor="start" x="8" y="-7.6" font-family="Helvetica,sans-Serif" font-size="8.00">+ calculate()</text>
</g>
<!-- Node2 -->
<g id="node2" class="node"><title>Node2</title>
<g id="a_node2"><a xlink:href="classnl_model.html" target="_top" xlink:title="{nlModel\n||+ nlModel()\l+ calculate()\l+ getNumPorts()\l}">
<polygon fill="none" stroke="black" points="1.5,-98.5 1.5,-167.5 78.5,-167.5 78.5,-98.5 1.5,-98.5"/>
<text text-anchor="middle" x="40" y="-157.1" font-family="Helvetica,sans-Serif" font-size="8.00">nlModel</text>
<polyline fill="none" stroke="black" points="1.5,-150.5 78.5,-150.5 "/>
<text text-anchor="middle" x="40" y="-140.1" font-family="Helvetica,sans-Serif" font-size="8.00"> </text>
<polyline fill="none" stroke="black" points="1.5,-133.5 78.5,-133.5 "/>
<text text-anchor="start" x="9.5" y="-123.1" font-family="Helvetica,sans-Serif" font-size="8.00">+ nlModel()</text>
<text text-anchor="start" x="9.5" y="-114.1" font-family="Helvetica,sans-Serif" font-size="8.00">+ calculate()</text>
<text text-anchor="start" x="9.5" y="-105.1" font-family="Helvetica,sans-Serif" font-size="8.00">+ getNumPorts()</text>
</a>
</g>
</g>
<!-- Node2&#45;&gt;Node1 -->
<g id="edge1" class="edge"><title>Node2&#45;&gt;Node1</title>
<path fill="none" stroke="midnightblue" d="M40,-88.3021C40,-79.1716 40,-69.7563 40,-61.3003"/>
<polygon fill="none" stroke="midnightblue" points="36.5001,-88.4232 40,-98.4233 43.5001,-88.4233 36.5001,-88.4232"/>
</g>
</g>
</svg>
