<?xml version="1.0" encoding="UTF-8" standalone="no"?>
<!DOCTYPE svg PUBLIC "-//W3C//DTD SVG 1.1//EN"
 "http://www.w3.org/Graphics/SVG/1.1/DTD/svg11.dtd">
<!-- Generated by graphviz version 2.36.0 (20140111.2315)
 -->
<!-- Title: wdfRootNL Pages: 1 -->
<svg width="126pt" height="222pt"
 viewBox="0.00 0.00 126.00 222.00" xmlns="http://www.w3.org/2000/svg" xmlns:xlink="http://www.w3.org/1999/xlink">
<g id="graph0" class="graph" transform="scale(1 1) rotate(0) translate(4 218)">
<title>wdfRootNL</title>
<!-- Node1 -->
<g id="node1" class="node"><title>Node1</title>
<polygon fill="#bfbfbf" stroke="black" points="0,-1 0,-79 118,-79 118,-1 0,-1"/>
<text text-anchor="middle" x="59" y="-68.6" font-family="Helvetica,sans-Serif" font-size="8.00">wdfRootNL</text>
<polyline fill="none" stroke="black" points="0,-62 118,-62 "/>
<text text-anchor="middle" x="59" y="-51.6" font-family="Helvetica,sans-Serif" font-size="8.00"> </text>
<polyline fill="none" stroke="black" points="0,-45 118,-45 "/>
<text text-anchor="start" x="8" y="-34.6" font-family="Helvetica,sans-Serif" font-size="8.00">+ wdfRootNL()</text>
<text text-anchor="start" x="8" y="-25.6" font-family="Helvetica,sans-Serif" font-size="8.00">+ processAscendingWaves()</text>
<text text-anchor="start" x="8" y="-16.6" font-family="Helvetica,sans-Serif" font-size="8.00">+ getRootMatrPtr()</text>
<text text-anchor="start" x="8" y="-7.6" font-family="Helvetica,sans-Serif" font-size="8.00">+ getType()</text>
</g>
<!-- Node2 -->
<g id="node2" class="node"><title>Node2</title>
<g id="a_node2"><a xlink:href="classwdf_root.html" target="_top" xlink:title="{wdfRoot\n||+ wdfRoot()\l+ ~wdfRoot()\l+ setPortResistances()\l+ processAscendingWaves()\l+ getRootMatrPtr()\l+ getType()\l}">
<polygon fill="none" stroke="black" points="0,-117 0,-213 118,-213 118,-117 0,-117"/>
<text text-anchor="middle" x="59" y="-202.6" font-family="Helvetica,sans-Serif" font-size="8.00">wdfRoot</text>
<polyline fill="none" stroke="black" points="0,-196 118,-196 "/>
<text text-anchor="middle" x="59" y="-185.6" font-family="Helvetica,sans-Serif" font-size="8.00"> </text>
<polyline fill="none" stroke="black" points="0,-179 118,-179 "/>
<text text-anchor="start" x="8" y="-168.6" font-family="Helvetica,sans-Serif" font-size="8.00">+ wdfRoot()</text>
<text text-anchor="start" x="8" y="-159.6" font-family="Helvetica,sans-Serif" font-size="8.00">+ ~wdfRoot()</text>
<text text-anchor="start" x="8" y="-150.6" font-family="Helvetica,sans-Serif" font-size="8.00">+ setPortResistances()</text>
<text text-anchor="start" x="8" y="-141.6" font-family="Helvetica,sans-Serif" font-size="8.00">+ processAscendingWaves()</text>
<text text-anchor="start" x="8" y="-132.6" font-family="Helvetica,sans-Serif" font-size="8.00">+ getRootMatrPtr()</text>
<text text-anchor="start" x="8" y="-123.6" font-family="Helvetica,sans-Serif" font-size="8.00">+ getType()</text>
</a>
</g>
</g>
<!-- Node2&#45;&gt;Node1 -->
<g id="edge1" class="edge"><title>Node2&#45;&gt;Node1</title>
<path fill="none" stroke="midnightblue" d="M59,-106.729C59,-97.3653 59,-87.8703 59,-79.1176"/>
<polygon fill="none" stroke="midnightblue" points="55.5001,-106.797 59,-116.797 62.5001,-106.797 55.5001,-106.797"/>
</g>
</g>
</svg>
