<?xml version="1.0" encoding="UTF-8" standalone="no"?>
<!DOCTYPE svg PUBLIC "-//W3C//DTD SVG 1.1//EN"
 "http://www.w3.org/Graphics/SVG/1.1/DTD/svg11.dtd">
<!-- Generated by graphviz version 2.36.0 (20140111.2315)
 -->
<!-- Title: wdfTree Pages: 1 -->
<svg width="420pt" height="212pt"
 viewBox="0.00 0.00 420.00 212.00" xmlns="http://www.w3.org/2000/svg" xmlns:xlink="http://www.w3.org/1999/xlink">
<g id="graph0" class="graph" transform="scale(1 1) rotate(0) translate(4 208)">
<title>wdfTree</title>
<!-- Node1 -->
<g id="node1" class="node"><title>Node1</title>
<polygon fill="#bfbfbf" stroke="black" points="150.5,-1 150.5,-97 241.5,-97 241.5,-1 150.5,-1"/>
<text text-anchor="middle" x="196" y="-86.6" font-family="Helvetica,sans-Serif" font-size="8.00">wdfTree</text>
<polyline fill="none" stroke="black" points="150.5,-80 241.5,-80 "/>
<text text-anchor="middle" x="196" y="-69.6" font-family="Helvetica,sans-Serif" font-size="8.00"> </text>
<polyline fill="none" stroke="black" points="150.5,-63 241.5,-63 "/>
<text text-anchor="start" x="158.5" y="-52.6" font-family="Helvetica,sans-Serif" font-size="8.00">+ cycleWave()</text>
<text text-anchor="start" x="158.5" y="-43.6" font-family="Helvetica,sans-Serif" font-size="8.00">+ initTree()</text>
<text text-anchor="start" x="158.5" y="-34.6" font-family="Helvetica,sans-Serif" font-size="8.00">+ setSamplerate()</text>
<text text-anchor="start" x="158.5" y="-25.6" font-family="Helvetica,sans-Serif" font-size="8.00">+ adaptTree()</text>
<text text-anchor="start" x="158.5" y="-16.6" font-family="Helvetica,sans-Serif" font-size="8.00">+ setRootMatrData()</text>
<text text-anchor="start" x="158.5" y="-7.6" font-family="Helvetica,sans-Serif" font-size="8.00"># wdfTree()</text>
</g>
<!-- Node2 -->
<g id="node2" class="node"><title>Node2</title>
<polygon fill="none" stroke="#bfbfbf" points="-0.5,-152.5 -0.5,-203.5 106.5,-203.5 106.5,-152.5 -0.5,-152.5"/>
<text text-anchor="middle" x="53" y="-193.1" font-family="Helvetica,sans-Serif" font-size="8.00">vector&lt; wdfTreeNode * &gt;</text>
<polyline fill="none" stroke="#bfbfbf" points="-0.5,-186.5 106.5,-186.5 "/>
<text text-anchor="middle" x="53" y="-176.1" font-family="Helvetica,sans-Serif" font-size="8.00"> </text>
<polyline fill="none" stroke="#bfbfbf" points="-0.5,-169.5 106.5,-169.5 "/>
<text text-anchor="middle" x="53" y="-159.1" font-family="Helvetica,sans-Serif" font-size="8.00"> </text>
</g>
<!-- Node2&#45;&gt;Node1 -->
<g id="edge1" class="edge"><title>Node2&#45;&gt;Node1</title>
<path fill="none" stroke="#404040" d="M62.1383,-152.462C67.4781,-140.469 75.1265,-126.414 85,-116 100.416,-99.7393 120.713,-86.1158 139.73,-75.5487"/>
<polygon fill="none" stroke="#404040" points="139.841,-75.4898 143.25,-69.1358 150.427,-69.8397 147.017,-76.1936 139.841,-75.4898"/>
<text text-anchor="middle" x="123" y="-123.1" font-family="Helvetica,sans-Serif" font-size="8.00"> #subtreeEntryNodes</text>
</g>
<!-- Node3 -->
<g id="node3" class="node"><title>Node3</title>
<polygon fill="none" stroke="#bfbfbf" points="127.5,-152.5 127.5,-203.5 168.5,-203.5 168.5,-152.5 127.5,-152.5"/>
<text text-anchor="middle" x="148" y="-193.1" font-family="Helvetica,sans-Serif" font-size="8.00">double</text>
<polyline fill="none" stroke="#bfbfbf" points="127.5,-186.5 168.5,-186.5 "/>
<text text-anchor="middle" x="148" y="-176.1" font-family="Helvetica,sans-Serif" font-size="8.00"> </text>
<polyline fill="none" stroke="#bfbfbf" points="127.5,-169.5 168.5,-169.5 "/>
<text text-anchor="middle" x="148" y="-159.1" font-family="Helvetica,sans-Serif" font-size="8.00"> </text>
</g>
<!-- Node3&#45;&gt;Node1 -->
<g id="edge2" class="edge"><title>Node3&#45;&gt;Node1</title>
<path fill="none" stroke="#404040" d="M157.369,-152.212C162.087,-139.729 168.024,-124.019 173.82,-108.686"/>
<polygon fill="none" stroke="#404040" points="173.958,-108.318 172.338,-101.292 178.201,-97.0934 179.821,-104.12 173.958,-108.318"/>
<text text-anchor="middle" x="177.5" y="-127.6" font-family="Helvetica,sans-Serif" font-size="8.00"> #fs</text>
<text text-anchor="middle" x="177.5" y="-118.6" font-family="Helvetica,sans-Serif" font-size="8.00">#T</text>
</g>
<!-- Node4 -->
<g id="node4" class="node"><title>Node4</title>
<polygon fill="none" stroke="#bfbfbf" points="186.5,-152.5 186.5,-203.5 299.5,-203.5 299.5,-152.5 186.5,-152.5"/>
<text text-anchor="middle" x="243" y="-193.1" font-family="Helvetica,sans-Serif" font-size="8.00">ScopedPointer&lt; wdfRoot &gt;</text>
<polyline fill="none" stroke="#bfbfbf" points="186.5,-186.5 299.5,-186.5 "/>
<text text-anchor="middle" x="243" y="-176.1" font-family="Helvetica,sans-Serif" font-size="8.00"> </text>
<polyline fill="none" stroke="#bfbfbf" points="186.5,-169.5 299.5,-169.5 "/>
<text text-anchor="middle" x="243" y="-159.1" font-family="Helvetica,sans-Serif" font-size="8.00"> </text>
</g>
<!-- Node4&#45;&gt;Node1 -->
<g id="edge3" class="edge"><title>Node4&#45;&gt;Node1</title>
<path fill="none" stroke="#404040" d="M233.826,-152.212C229.207,-139.729 223.393,-124.019 217.718,-108.686"/>
<polygon fill="none" stroke="#404040" points="217.593,-108.347 211.759,-104.109 213.428,-97.0934 219.262,-101.332 217.593,-108.347"/>
<text text-anchor="middle" x="237" y="-123.1" font-family="Helvetica,sans-Serif" font-size="8.00"> #root</text>
</g>
<!-- Node5 -->
<g id="node5" class="node"><title>Node5</title>
<polygon fill="none" stroke="#bfbfbf" points="317.5,-152.5 317.5,-203.5 412.5,-203.5 412.5,-152.5 317.5,-152.5"/>
<text text-anchor="middle" x="365" y="-193.1" font-family="Helvetica,sans-Serif" font-size="8.00">ScopedPointer&lt; vec &gt;</text>
<polyline fill="none" stroke="#bfbfbf" points="317.5,-186.5 412.5,-186.5 "/>
<text text-anchor="middle" x="365" y="-176.1" font-family="Helvetica,sans-Serif" font-size="8.00"> </text>
<polyline fill="none" stroke="#bfbfbf" points="317.5,-169.5 412.5,-169.5 "/>
<text text-anchor="middle" x="365" y="-159.1" font-family="Helvetica,sans-Serif" font-size="8.00"> </text>
</g>
<!-- Node5&#45;&gt;Node1 -->
<g id="edge4" class="edge"><title>Node5&#45;&gt;Node1</title>
<path fill="none" stroke="#404040" d="M332.014,-152.212C309.086,-134.982 277.975,-111.603 251.295,-91.5527"/>
<polygon fill="none" stroke="#404040" points="251.282,-91.5431 244.082,-91.1363 241.689,-84.334 248.888,-84.7409 251.282,-91.5431"/>
<text text-anchor="middle" x="341" y="-127.6" font-family="Helvetica,sans-Serif" font-size="8.00"> #descendingWaves</text>
<text text-anchor="middle" x="341" y="-118.6" font-family="Helvetica,sans-Serif" font-size="8.00">#ascendingWaves</text>
</g>
</g>
</svg>
