<?xml version="1.0" encoding="UTF-8" standalone="no"?>
<!DOCTYPE svg PUBLIC "-//W3C//DTD SVG 1.1//EN"
 "http://www.w3.org/Graphics/SVG/1.1/DTD/svg11.dtd">
<!-- Generated by graphviz version 2.36.0 (20140111.2315)
 -->
<!-- Title: wdfTerminatedResVSource Pages: 1 -->
<svg width="379pt" height="626pt"
 viewBox="0.00 0.00 379.00 626.00" xmlns="http://www.w3.org/2000/svg" xmlns:xlink="http://www.w3.org/1999/xlink">
<g id="graph0" class="graph" transform="scale(1 1) rotate(0) translate(4 622)">
<title>wdfTerminatedResVSource</title>
<!-- Node1 -->
<g id="node1" class="node"><title>Node1</title>
<polygon fill="#bfbfbf" stroke="black" points="0,-0.5 0,-87.5 128,-87.5 128,-0.5 0,-0.5"/>
<text text-anchor="middle" x="64" y="-77.1" font-family="Helvetica,sans-Serif" font-size="8.00">wdfTerminatedResVSource</text>
<polyline fill="none" stroke="black" points="0,-70.5 128,-70.5 "/>
<text text-anchor="middle" x="64" y="-60.1" font-family="Helvetica,sans-Serif" font-size="8.00"> </text>
<polyline fill="none" stroke="black" points="0,-53.5 128,-53.5 "/>
<text text-anchor="start" x="8" y="-43.1" font-family="Helvetica,sans-Serif" font-size="8.00">+ wdfTerminatedResVSource()</text>
<text text-anchor="start" x="8" y="-34.1" font-family="Helvetica,sans-Serif" font-size="8.00">+ calculateUpRes()</text>
<text text-anchor="start" x="8" y="-25.1" font-family="Helvetica,sans-Serif" font-size="8.00">+ calculateUpB()</text>
<text text-anchor="start" x="8" y="-16.1" font-family="Helvetica,sans-Serif" font-size="8.00">+ calculateDownB()</text>
<text text-anchor="start" x="8" y="-7.1" font-family="Helvetica,sans-Serif" font-size="8.00">+ getType()</text>
</g>
<!-- Node2 -->
<g id="node2" class="node"><title>Node2</title>
<g id="a_node2"><a xlink:href="classwdf_terminated_leaf.html" target="_top" xlink:title="{wdfTerminatedLeaf\n||+ wdfTerminatedLeaf()\l+ calculateScatterCoeffs()\l}">
<polygon fill="none" stroke="black" points="82.5,-127 82.5,-187 191.5,-187 191.5,-127 82.5,-127"/>
<text text-anchor="middle" x="137" y="-176.6" font-family="Helvetica,sans-Serif" font-size="8.00">wdfTerminatedLeaf</text>
<polyline fill="none" stroke="black" points="82.5,-170 191.5,-170 "/>
<text text-anchor="middle" x="137" y="-159.6" font-family="Helvetica,sans-Serif" font-size="8.00"> </text>
<polyline fill="none" stroke="black" points="82.5,-153 191.5,-153 "/>
<text text-anchor="start" x="90.5" y="-142.6" font-family="Helvetica,sans-Serif" font-size="8.00">+ wdfTerminatedLeaf()</text>
<text text-anchor="start" x="90.5" y="-133.6" font-family="Helvetica,sans-Serif" font-size="8.00">+ calculateScatterCoeffs()</text>
</a>
</g>
</g>
<!-- Node2&#45;&gt;Node1 -->
<g id="edge1" class="edge"><title>Node2&#45;&gt;Node1</title>
<path fill="none" stroke="midnightblue" d="M112.289,-118.425C105.804,-108.566 98.7641,-97.8605 92.116,-87.7518"/>
<polygon fill="none" stroke="midnightblue" points="109.401,-120.404 117.82,-126.836 115.25,-116.558 109.401,-120.404"/>
</g>
<!-- Node3 -->
<g id="node3" class="node"><title>Node3</title>
<g id="a_node3"><a xlink:href="classwdf_tree_node.html" target="_top" xlink:title="{wdfTreeNode\n||+ wdfTreeNode()\l+ ~wdfTreeNode()\l+ setParentInChildren()\l+ createPorts()\l+ adaptPorts()\l+ calculateUpRes()\l+ calculateScatterCoeffs()\l+ pullWaveUp()\l+ calculateUpB()\l+ pushWaveDown()\l+ calculateDownB()\l+ getType()\l}">
<polygon fill="none" stroke="black" points="138.5,-227 138.5,-377 247.5,-377 247.5,-227 138.5,-227"/>
<text text-anchor="middle" x="193" y="-366.6" font-family="Helvetica,sans-Serif" font-size="8.00">wdfTreeNode</text>
<polyline fill="none" stroke="black" points="138.5,-360 247.5,-360 "/>
<text text-anchor="middle" x="193" y="-349.6" font-family="Helvetica,sans-Serif" font-size="8.00"> </text>
<polyline fill="none" stroke="black" points="138.5,-343 247.5,-343 "/>
<text text-anchor="start" x="146.5" y="-332.6" font-family="Helvetica,sans-Serif" font-size="8.00">+ wdfTreeNode()</text>
<text text-anchor="start" x="146.5" y="-323.6" font-family="Helvetica,sans-Serif" font-size="8.00">+ ~wdfTreeNode()</text>
<text text-anchor="start" x="146.5" y="-314.6" font-family="Helvetica,sans-Serif" font-size="8.00">+ setParentInChildren()</text>
<text text-anchor="start" x="146.5" y="-305.6" font-family="Helvetica,sans-Serif" font-size="8.00">+ createPorts()</text>
<text text-anchor="start" x="146.5" y="-296.6" font-family="Helvetica,sans-Serif" font-size="8.00">+ adaptPorts()</text>
<text text-anchor="start" x="146.5" y="-287.6" font-family="Helvetica,sans-Serif" font-size="8.00">+ calculateUpRes()</text>
<text text-anchor="start" x="146.5" y="-278.6" font-family="Helvetica,sans-Serif" font-size="8.00">+ calculateScatterCoeffs()</text>
<text text-anchor="start" x="146.5" y="-269.6" font-family="Helvetica,sans-Serif" font-size="8.00">+ pullWaveUp()</text>
<text text-anchor="start" x="146.5" y="-260.6" font-family="Helvetica,sans-Serif" font-size="8.00">+ calculateUpB()</text>
<text text-anchor="start" x="146.5" y="-251.6" font-family="Helvetica,sans-Serif" font-size="8.00">+ pushWaveDown()</text>
<text text-anchor="start" x="146.5" y="-242.6" font-family="Helvetica,sans-Serif" font-size="8.00">+ calculateDownB()</text>
<text text-anchor="start" x="146.5" y="-233.6" font-family="Helvetica,sans-Serif" font-size="8.00">+ getType()</text>
</a>
</g>
</g>
<!-- Node3&#45;&gt;Node2 -->
<g id="edge2" class="edge"><title>Node3&#45;&gt;Node2</title>
<path fill="none" stroke="midnightblue" d="M160.261,-217.398C156.02,-206.569 151.929,-196.122 148.391,-187.089"/>
<polygon fill="none" stroke="midnightblue" points="157.11,-218.952 164.016,-226.987 163.628,-216.399 157.11,-218.952"/>
</g>
<!-- Node3&#45;&gt;Node3 -->
<g id="edge7" class="edge"><title>Node3&#45;&gt;Node3</title>
<path fill="none" stroke="#404040" d="M247.629,-318.72C257.822,-316.661 265,-311.088 265,-302 265,-296.888 262.729,-292.888 258.927,-290"/>
<polygon fill="none" stroke="#404040" points="258.701,-289.906 251.623,-291.284 247.629,-285.28 254.707,-283.902 258.701,-289.906"/>
<text text-anchor="middle" x="290" y="-300.1" font-family="Helvetica,sans-Serif" font-size="8.00"> +parentNode</text>
</g>
<!-- Node4 -->
<g id="node4" class="node"><title>Node4</title>
<polygon fill="none" stroke="#bfbfbf" points="264.5,-433.5 264.5,-484.5 371.5,-484.5 371.5,-433.5 264.5,-433.5"/>
<text text-anchor="middle" x="318" y="-474.1" font-family="Helvetica,sans-Serif" font-size="8.00">vector&lt; wdfTreeNode * &gt;</text>
<polyline fill="none" stroke="#bfbfbf" points="264.5,-467.5 371.5,-467.5 "/>
<text text-anchor="middle" x="318" y="-457.1" font-family="Helvetica,sans-Serif" font-size="8.00"> </text>
<polyline fill="none" stroke="#bfbfbf" points="264.5,-450.5 371.5,-450.5 "/>
<text text-anchor="middle" x="318" y="-440.1" font-family="Helvetica,sans-Serif" font-size="8.00"> </text>
</g>
<!-- Node4&#45;&gt;Node3 -->
<g id="edge3" class="edge"><title>Node4&#45;&gt;Node3</title>
<path fill="none" stroke="#404040" d="M298.193,-433.44C286.42,-418.841 270.776,-399.443 255.16,-380.079"/>
<polygon fill="none" stroke="#404040" points="255.047,-379.938 248.166,-377.778 247.514,-370.597 254.394,-372.756 255.047,-379.938"/>
<text text-anchor="middle" x="303" y="-399.1" font-family="Helvetica,sans-Serif" font-size="8.00"> +childrenNodes</text>
</g>
<!-- Node5 -->
<g id="node5" class="node"><title>Node5</title>
<g id="a_node5"><a xlink:href="classwdf_port.html" target="_top" xlink:title="{wdfPort\n||+ wdfPort()\l+ getPortVoltage()\l+ getPortCurrent()\l}">
<polygon fill="none" stroke="black" points="60.5,-424.5 60.5,-493.5 143.5,-493.5 143.5,-424.5 60.5,-424.5"/>
<text text-anchor="middle" x="102" y="-483.1" font-family="Helvetica,sans-Serif" font-size="8.00">wdfPort</text>
<polyline fill="none" stroke="black" points="60.5,-476.5 143.5,-476.5 "/>
<text text-anchor="middle" x="102" y="-466.1" font-family="Helvetica,sans-Serif" font-size="8.00"> </text>
<polyline fill="none" stroke="black" points="60.5,-459.5 143.5,-459.5 "/>
<text text-anchor="start" x="68.5" y="-449.1" font-family="Helvetica,sans-Serif" font-size="8.00">+ wdfPort()</text>
<text text-anchor="start" x="68.5" y="-440.1" font-family="Helvetica,sans-Serif" font-size="8.00">+ getPortVoltage()</text>
<text text-anchor="start" x="68.5" y="-431.1" font-family="Helvetica,sans-Serif" font-size="8.00">+ getPortCurrent()</text>
</a>
</g>
</g>
<!-- Node5&#45;&gt;Node3 -->
<g id="edge4" class="edge"><title>Node5&#45;&gt;Node3</title>
<path fill="none" stroke="#404040" d="M121.746,-424.367C128.18,-413.407 135.639,-400.702 143.258,-387.725"/>
<polygon fill="none" stroke="#404040" points="143.311,-387.635 142.899,-380.436 149.387,-377.287 149.798,-384.486 143.311,-387.635"/>
<text text-anchor="middle" x="152.5" y="-399.1" font-family="Helvetica,sans-Serif" font-size="8.00"> +upPort</text>
</g>
<!-- Node6 -->
<g id="node6" class="node"><title>Node6</title>
<polygon fill="none" stroke="#bfbfbf" points="11.5,-566.5 11.5,-617.5 52.5,-617.5 52.5,-566.5 11.5,-566.5"/>
<text text-anchor="middle" x="32" y="-607.1" font-family="Helvetica,sans-Serif" font-size="8.00">double</text>
<polyline fill="none" stroke="#bfbfbf" points="11.5,-600.5 52.5,-600.5 "/>
<text text-anchor="middle" x="32" y="-590.1" font-family="Helvetica,sans-Serif" font-size="8.00"> </text>
<polyline fill="none" stroke="#bfbfbf" points="11.5,-583.5 52.5,-583.5 "/>
<text text-anchor="middle" x="32" y="-573.1" font-family="Helvetica,sans-Serif" font-size="8.00"> </text>
</g>
<!-- Node6&#45;&gt;Node1 -->
<g id="edge9" class="edge"><title>Node6&#45;&gt;Node1</title>
<path fill="none" stroke="#404040" d="M32,-566.373C32,-540.043 32,-497.071 32,-460 32,-460 32,-460 32,-156 32,-137.089 36.3416,-117.049 41.8264,-99.2781"/>
<polygon fill="none" stroke="#404040" points="41.8966,-99.0654 39.9824,-92.113 45.6637,-87.6719 47.578,-94.6243 41.8966,-99.0654"/>
<text text-anchor="middle" x="44" y="-309.1" font-family="Helvetica,sans-Serif" font-size="8.00"> +Vs</text>
<text text-anchor="middle" x="44" y="-300.1" font-family="Helvetica,sans-Serif" font-size="8.00">+Rp</text>
<text text-anchor="middle" x="44" y="-291.1" font-family="Helvetica,sans-Serif" font-size="8.00">+RSer</text>
</g>
<!-- Node6&#45;&gt;Node5 -->
<g id="edge5" class="edge"><title>Node6&#45;&gt;Node5</title>
<path fill="none" stroke="#404040" d="M45.1665,-566.36C54.432,-549.02 67.0964,-525.32 78.119,-504.692"/>
<polygon fill="none" stroke="#404040" points="78.2182,-504.506 77.518,-497.329 83.8737,-493.922 84.5739,-501.099 78.2182,-504.506"/>
<text text-anchor="middle" x="82" y="-541.6" font-family="Helvetica,sans-Serif" font-size="8.00"> +a</text>
<text text-anchor="middle" x="82" y="-532.6" font-family="Helvetica,sans-Serif" font-size="8.00">+b</text>
<text text-anchor="middle" x="82" y="-523.6" font-family="Helvetica,sans-Serif" font-size="8.00">+Rp</text>
<text text-anchor="middle" x="82" y="-514.6" font-family="Helvetica,sans-Serif" font-size="8.00">+Gp</text>
</g>
<!-- Node7 -->
<g id="node7" class="node"><title>Node7</title>
<polygon fill="none" stroke="#bfbfbf" points="71,-566.5 71,-617.5 203,-617.5 203,-566.5 71,-566.5"/>
<text text-anchor="middle" x="137" y="-607.1" font-family="Helvetica,sans-Serif" font-size="8.00">ScopedPointer&lt; wdfTreeNode &gt;</text>
<polyline fill="none" stroke="#bfbfbf" points="71,-600.5 203,-600.5 "/>
<text text-anchor="middle" x="137" y="-590.1" font-family="Helvetica,sans-Serif" font-size="8.00"> </text>
<polyline fill="none" stroke="#bfbfbf" points="71,-583.5 203,-583.5 "/>
<text text-anchor="middle" x="137" y="-573.1" font-family="Helvetica,sans-Serif" font-size="8.00"> </text>
</g>
<!-- Node7&#45;&gt;Node5 -->
<g id="edge6" class="edge"><title>Node7&#45;&gt;Node5</title>
<path fill="none" stroke="#404040" d="M130.417,-566.36C125.848,-549.26 119.627,-525.974 114.17,-505.549"/>
<polygon fill="none" stroke="#404040" points="114.161,-505.515 108.747,-500.751 111.063,-493.922 116.476,-498.686 114.161,-505.515"/>
<text text-anchor="middle" x="157" y="-528.1" font-family="Helvetica,sans-Serif" font-size="8.00"> +connectedNode</text>
</g>
<!-- Node8 -->
<g id="node8" class="node"><title>Node8</title>
<polygon fill="none" stroke="#bfbfbf" points="161.5,-433.5 161.5,-484.5 246.5,-484.5 246.5,-433.5 161.5,-433.5"/>
<text text-anchor="middle" x="204" y="-474.1" font-family="Helvetica,sans-Serif" font-size="8.00">vector&lt; wdfPort * &gt;</text>
<polyline fill="none" stroke="#bfbfbf" points="161.5,-467.5 246.5,-467.5 "/>
<text text-anchor="middle" x="204" y="-457.1" font-family="Helvetica,sans-Serif" font-size="8.00"> </text>
<polyline fill="none" stroke="#bfbfbf" points="161.5,-450.5 246.5,-450.5 "/>
<text text-anchor="middle" x="204" y="-440.1" font-family="Helvetica,sans-Serif" font-size="8.00"> </text>
</g>
<!-- Node8&#45;&gt;Node3 -->
<g id="edge8" class="edge"><title>Node8&#45;&gt;Node3</title>
<path fill="none" stroke="#404040" d="M202.257,-433.44C201.388,-421.196 200.279,-405.574 199.134,-389.429"/>
<polygon fill="none" stroke="#404040" points="199.103,-388.998 194.688,-383.296 198.254,-377.028 202.668,-382.73 199.103,-388.998"/>
<text text-anchor="middle" x="224" y="-399.1" font-family="Helvetica,sans-Serif" font-size="8.00"> +downPorts</text>
</g>
</g>
</svg>
