<?xml version="1.0" encoding="UTF-8" standalone="no"?>
<!DOCTYPE svg PUBLIC "-//W3C//DTD SVG 1.1//EN"
 "http://www.w3.org/Graphics/SVG/1.1/DTD/svg11.dtd">
<!-- Generated by graphviz version 2.36.0 (20140111.2315)
 -->
<!-- Title: wdfTreeNode Pages: 1 -->
<svg width="318pt" height="400pt"
 viewBox="0.00 0.00 318.00 400.00" xmlns="http://www.w3.org/2000/svg" xmlns:xlink="http://www.w3.org/1999/xlink">
<g id="graph0" class="graph" transform="scale(1 1) rotate(0) translate(4 396)">
<title>wdfTreeNode</title>
<!-- Node1 -->
<g id="node1" class="node"><title>Node1</title>
<polygon fill="#bfbfbf" stroke="black" points="111.5,-1 111.5,-151 220.5,-151 220.5,-1 111.5,-1"/>
<text text-anchor="middle" x="166" y="-140.6" font-family="Helvetica,sans-Serif" font-size="8.00">wdfTreeNode</text>
<polyline fill="none" stroke="black" points="111.5,-134 220.5,-134 "/>
<text text-anchor="middle" x="166" y="-123.6" font-family="Helvetica,sans-Serif" font-size="8.00"> </text>
<polyline fill="none" stroke="black" points="111.5,-117 220.5,-117 "/>
<text text-anchor="start" x="119.5" y="-106.6" font-family="Helvetica,sans-Serif" font-size="8.00">+ wdfTreeNode()</text>
<text text-anchor="start" x="119.5" y="-97.6" font-family="Helvetica,sans-Serif" font-size="8.00">+ ~wdfTreeNode()</text>
<text text-anchor="start" x="119.5" y="-88.6" font-family="Helvetica,sans-Serif" font-size="8.00">+ setParentInChildren()</text>
<text text-anchor="start" x="119.5" y="-79.6" font-family="Helvetica,sans-Serif" font-size="8.00">+ createPorts()</text>
<text text-anchor="start" x="119.5" y="-70.6" font-family="Helvetica,sans-Serif" font-size="8.00">+ adaptPorts()</text>
<text text-anchor="start" x="119.5" y="-61.6" font-family="Helvetica,sans-Serif" font-size="8.00">+ calculateUpRes()</text>
<text text-anchor="start" x="119.5" y="-52.6" font-family="Helvetica,sans-Serif" font-size="8.00">+ calculateScatterCoeffs()</text>
<text text-anchor="start" x="119.5" y="-43.6" font-family="Helvetica,sans-Serif" font-size="8.00">+ pullWaveUp()</text>
<text text-anchor="start" x="119.5" y="-34.6" font-family="Helvetica,sans-Serif" font-size="8.00">+ calculateUpB()</text>
<text text-anchor="start" x="119.5" y="-25.6" font-family="Helvetica,sans-Serif" font-size="8.00">+ pushWaveDown()</text>
<text text-anchor="start" x="119.5" y="-16.6" font-family="Helvetica,sans-Serif" font-size="8.00">+ calculateDownB()</text>
<text text-anchor="start" x="119.5" y="-7.6" font-family="Helvetica,sans-Serif" font-size="8.00">+ getType()</text>
</g>
<!-- Node1&#45;&gt;Node1 -->
<g id="edge5" class="edge"><title>Node1&#45;&gt;Node1</title>
<path fill="none" stroke="#404040" d="M220.629,-93.4318C230.822,-91.2852 238,-85.4746 238,-76 238,-70.6705 235.729,-66.5004 231.927,-63.4895"/>
<polygon fill="none" stroke="#404040" points="231.63,-63.3603 224.532,-64.6315 220.629,-58.5682 227.727,-57.297 231.63,-63.3603"/>
<text text-anchor="middle" x="263" y="-74.1" font-family="Helvetica,sans-Serif" font-size="8.00"> +parentNode</text>
</g>
<!-- Node2 -->
<g id="node2" class="node"><title>Node2</title>
<polygon fill="none" stroke="#bfbfbf" points="-0.5,-207.5 -0.5,-258.5 106.5,-258.5 106.5,-207.5 -0.5,-207.5"/>
<text text-anchor="middle" x="53" y="-248.1" font-family="Helvetica,sans-Serif" font-size="8.00">vector&lt; wdfTreeNode * &gt;</text>
<polyline fill="none" stroke="#bfbfbf" points="-0.5,-241.5 106.5,-241.5 "/>
<text text-anchor="middle" x="53" y="-231.1" font-family="Helvetica,sans-Serif" font-size="8.00"> </text>
<polyline fill="none" stroke="#bfbfbf" points="-0.5,-224.5 106.5,-224.5 "/>
<text text-anchor="middle" x="53" y="-214.1" font-family="Helvetica,sans-Serif" font-size="8.00"> </text>
</g>
<!-- Node2&#45;&gt;Node1 -->
<g id="edge1" class="edge"><title>Node2&#45;&gt;Node1</title>
<path fill="none" stroke="#404040" d="M70.9052,-207.44C80.2692,-194.595 92.3425,-178.035 104.724,-161.051"/>
<polygon fill="none" stroke="#404040" points="104.962,-160.725 105.264,-153.52 112.031,-151.028 111.729,-158.233 104.962,-160.725"/>
<text text-anchor="middle" x="126" y="-173.1" font-family="Helvetica,sans-Serif" font-size="8.00"> +childrenNodes</text>
</g>
<!-- Node3 -->
<g id="node3" class="node"><title>Node3</title>
<g id="a_node3"><a xlink:href="classwdf_port.html" target="_top" xlink:title="{wdfPort\n||+ wdfPort()\l+ getPortVoltage()\l+ getPortCurrent()\l}">
<polygon fill="none" stroke="black" points="124.5,-198.5 124.5,-267.5 207.5,-267.5 207.5,-198.5 124.5,-198.5"/>
<text text-anchor="middle" x="166" y="-257.1" font-family="Helvetica,sans-Serif" font-size="8.00">wdfPort</text>
<polyline fill="none" stroke="black" points="124.5,-250.5 207.5,-250.5 "/>
<text text-anchor="middle" x="166" y="-240.1" font-family="Helvetica,sans-Serif" font-size="8.00"> </text>
<polyline fill="none" stroke="black" points="124.5,-233.5 207.5,-233.5 "/>
<text text-anchor="start" x="132.5" y="-223.1" font-family="Helvetica,sans-Serif" font-size="8.00">+ wdfPort()</text>
<text text-anchor="start" x="132.5" y="-214.1" font-family="Helvetica,sans-Serif" font-size="8.00">+ getPortVoltage()</text>
<text text-anchor="start" x="132.5" y="-205.1" font-family="Helvetica,sans-Serif" font-size="8.00">+ getPortCurrent()</text>
</a>
</g>
</g>
<!-- Node3&#45;&gt;Node1 -->
<g id="edge2" class="edge"><title>Node3&#45;&gt;Node1</title>
<path fill="none" stroke="#404040" d="M166,-198.367C166,-187.95 166,-175.956 166,-163.65"/>
<polygon fill="none" stroke="#404040" points="166,-163.287 162,-157.287 166,-151.287 170,-157.287 166,-163.287"/>
<text text-anchor="middle" x="181.5" y="-173.1" font-family="Helvetica,sans-Serif" font-size="8.00"> +upPort</text>
</g>
<!-- Node4 -->
<g id="node4" class="node"><title>Node4</title>
<polygon fill="none" stroke="#bfbfbf" points="93.5,-340.5 93.5,-391.5 134.5,-391.5 134.5,-340.5 93.5,-340.5"/>
<text text-anchor="middle" x="114" y="-381.1" font-family="Helvetica,sans-Serif" font-size="8.00">double</text>
<polyline fill="none" stroke="#bfbfbf" points="93.5,-374.5 134.5,-374.5 "/>
<text text-anchor="middle" x="114" y="-364.1" font-family="Helvetica,sans-Serif" font-size="8.00"> </text>
<polyline fill="none" stroke="#bfbfbf" points="93.5,-357.5 134.5,-357.5 "/>
<text text-anchor="middle" x="114" y="-347.1" font-family="Helvetica,sans-Serif" font-size="8.00"> </text>
</g>
<!-- Node4&#45;&gt;Node3 -->
<g id="edge3" class="edge"><title>Node4&#45;&gt;Node3</title>
<path fill="none" stroke="#404040" d="M123.781,-340.36C130.6,-323.18 139.898,-299.756 148.033,-279.263"/>
<polygon fill="none" stroke="#404040" points="148.107,-279.076 146.603,-272.023 152.535,-267.922 154.039,-274.975 148.107,-279.076"/>
<text text-anchor="middle" x="153" y="-315.6" font-family="Helvetica,sans-Serif" font-size="8.00"> +a</text>
<text text-anchor="middle" x="153" y="-306.6" font-family="Helvetica,sans-Serif" font-size="8.00">+b</text>
<text text-anchor="middle" x="153" y="-297.6" font-family="Helvetica,sans-Serif" font-size="8.00">+Rp</text>
<text text-anchor="middle" x="153" y="-288.6" font-family="Helvetica,sans-Serif" font-size="8.00">+Gp</text>
</g>
<!-- Node5 -->
<g id="node5" class="node"><title>Node5</title>
<polygon fill="none" stroke="#bfbfbf" points="153,-340.5 153,-391.5 285,-391.5 285,-340.5 153,-340.5"/>
<text text-anchor="middle" x="219" y="-381.1" font-family="Helvetica,sans-Serif" font-size="8.00">ScopedPointer&lt; wdfTreeNode &gt;</text>
<polyline fill="none" stroke="#bfbfbf" points="153,-374.5 285,-374.5 "/>
<text text-anchor="middle" x="219" y="-364.1" font-family="Helvetica,sans-Serif" font-size="8.00"> </text>
<polyline fill="none" stroke="#bfbfbf" points="153,-357.5 285,-357.5 "/>
<text text-anchor="middle" x="219" y="-347.1" font-family="Helvetica,sans-Serif" font-size="8.00"> </text>
</g>
<!-- Node5&#45;&gt;Node3 -->
<g id="edge4" class="edge"><title>Node5&#45;&gt;Node3</title>
<path fill="none" stroke="#404040" d="M209.031,-340.36C202.08,-323.18 192.604,-299.756 184.312,-279.263"/>
<polygon fill="none" stroke="#404040" points="184.225,-279.046 178.267,-274.984 179.724,-267.922 185.683,-271.984 184.225,-279.046"/>
<text text-anchor="middle" x="233" y="-302.1" font-family="Helvetica,sans-Serif" font-size="8.00"> +connectedNode</text>
</g>
<!-- Node6 -->
<g id="node6" class="node"><title>Node6</title>
<polygon fill="none" stroke="#bfbfbf" points="225.5,-207.5 225.5,-258.5 310.5,-258.5 310.5,-207.5 225.5,-207.5"/>
<text text-anchor="middle" x="268" y="-248.1" font-family="Helvetica,sans-Serif" font-size="8.00">vector&lt; wdfPort * &gt;</text>
<polyline fill="none" stroke="#bfbfbf" points="225.5,-241.5 310.5,-241.5 "/>
<text text-anchor="middle" x="268" y="-231.1" font-family="Helvetica,sans-Serif" font-size="8.00"> </text>
<polyline fill="none" stroke="#bfbfbf" points="225.5,-224.5 310.5,-224.5 "/>
<text text-anchor="middle" x="268" y="-214.1" font-family="Helvetica,sans-Serif" font-size="8.00"> </text>
</g>
<!-- Node6&#45;&gt;Node1 -->
<g id="edge6" class="edge"><title>Node6&#45;&gt;Node1</title>
<path fill="none" stroke="#404040" d="M251.838,-207.44C243.464,-194.715 232.691,-178.344 221.624,-161.527"/>
<polygon fill="none" stroke="#404040" points="221.312,-161.052 214.672,-158.239 214.715,-151.028 221.355,-153.841 221.312,-161.052"/>
<text text-anchor="middle" x="256" y="-173.1" font-family="Helvetica,sans-Serif" font-size="8.00"> +downPorts</text>
</g>
</g>
</svg>
