<?xml version="1.0" encoding="UTF-8" standalone="no"?>
<!DOCTYPE svg PUBLIC "-//W3C//DTD SVG 1.1//EN"
 "http://www.w3.org/Graphics/SVG/1.1/DTD/svg11.dtd">
<!-- Generated by graphviz version 2.36.0 (20140111.2315)
 -->
<!-- Title: wdfPort Pages: 1 -->
<svg width="199pt" height="202pt"
 viewBox="0.00 0.00 199.00 202.00" xmlns="http://www.w3.org/2000/svg" xmlns:xlink="http://www.w3.org/1999/xlink">
<g id="graph0" class="graph" transform="scale(1 1) rotate(0) translate(4 198)">
<title>wdfPort</title>
<!-- Node1 -->
<g id="node1" class="node"><title>Node1</title>
<polygon fill="#bfbfbf" stroke="black" points="30.5,-0.5 30.5,-69.5 113.5,-69.5 113.5,-0.5 30.5,-0.5"/>
<text text-anchor="middle" x="72" y="-59.1" font-family="Helvetica,sans-Serif" font-size="8.00">wdfPort</text>
<polyline fill="none" stroke="black" points="30.5,-52.5 113.5,-52.5 "/>
<text text-anchor="middle" x="72" y="-42.1" font-family="Helvetica,sans-Serif" font-size="8.00"> </text>
<polyline fill="none" stroke="black" points="30.5,-35.5 113.5,-35.5 "/>
<text text-anchor="start" x="38.5" y="-25.1" font-family="Helvetica,sans-Serif" font-size="8.00">+ wdfPort()</text>
<text text-anchor="start" x="38.5" y="-16.1" font-family="Helvetica,sans-Serif" font-size="8.00">+ getPortVoltage()</text>
<text text-anchor="start" x="38.5" y="-7.1" font-family="Helvetica,sans-Serif" font-size="8.00">+ getPortCurrent()</text>
</g>
<!-- Node2 -->
<g id="node2" class="node"><title>Node2</title>
<polygon fill="none" stroke="#bfbfbf" points="-0.5,-142.5 -0.5,-193.5 40.5,-193.5 40.5,-142.5 -0.5,-142.5"/>
<text text-anchor="middle" x="20" y="-183.1" font-family="Helvetica,sans-Serif" font-size="8.00">double</text>
<polyline fill="none" stroke="#bfbfbf" points="-0.5,-176.5 40.5,-176.5 "/>
<text text-anchor="middle" x="20" y="-166.1" font-family="Helvetica,sans-Serif" font-size="8.00"> </text>
<polyline fill="none" stroke="#bfbfbf" points="-0.5,-159.5 40.5,-159.5 "/>
<text text-anchor="middle" x="20" y="-149.1" font-family="Helvetica,sans-Serif" font-size="8.00"> </text>
</g>
<!-- Node2&#45;&gt;Node1 -->
<g id="edge1" class="edge"><title>Node2&#45;&gt;Node1</title>
<path fill="none" stroke="#404040" d="M29.7808,-142.36C36.6003,-125.18 45.8984,-101.756 54.0331,-81.2627"/>
<polygon fill="none" stroke="#404040" points="54.1074,-81.0755 52.6032,-74.023 58.5347,-69.9221 60.0389,-76.9746 54.1074,-81.0755"/>
<text text-anchor="middle" x="59" y="-117.6" font-family="Helvetica,sans-Serif" font-size="8.00"> +a</text>
<text text-anchor="middle" x="59" y="-108.6" font-family="Helvetica,sans-Serif" font-size="8.00">+b</text>
<text text-anchor="middle" x="59" y="-99.6" font-family="Helvetica,sans-Serif" font-size="8.00">+Rp</text>
<text text-anchor="middle" x="59" y="-90.6" font-family="Helvetica,sans-Serif" font-size="8.00">+Gp</text>
</g>
<!-- Node3 -->
<g id="node3" class="node"><title>Node3</title>
<polygon fill="none" stroke="#bfbfbf" points="59,-142.5 59,-193.5 191,-193.5 191,-142.5 59,-142.5"/>
<text text-anchor="middle" x="125" y="-183.1" font-family="Helvetica,sans-Serif" font-size="8.00">ScopedPointer&lt; wdfTreeNode &gt;</text>
<polyline fill="none" stroke="#bfbfbf" points="59,-176.5 191,-176.5 "/>
<text text-anchor="middle" x="125" y="-166.1" font-family="Helvetica,sans-Serif" font-size="8.00"> </text>
<polyline fill="none" stroke="#bfbfbf" points="59,-159.5 191,-159.5 "/>
<text text-anchor="middle" x="125" y="-149.1" font-family="Helvetica,sans-Serif" font-size="8.00"> </text>
</g>
<!-- Node3&#45;&gt;Node1 -->
<g id="edge2" class="edge"><title>Node3&#45;&gt;Node1</title>
<path fill="none" stroke="#404040" d="M115.031,-142.36C108.08,-125.18 98.6035,-101.756 90.3124,-81.2627"/>
<polygon fill="none" stroke="#404040" points="90.2248,-81.0462 84.2665,-76.9844 85.7242,-69.9221 91.6826,-73.9839 90.2248,-81.0462"/>
<text text-anchor="middle" x="139" y="-104.1" font-family="Helvetica,sans-Serif" font-size="8.00"> +connectedNode</text>
</g>
</g>
</svg>
