<?xml version="1.0" encoding="UTF-8" standalone="no"?>
<!DOCTYPE svg PUBLIC "-//W3C//DTD SVG 1.1//EN"
 "http://www.w3.org/Graphics/SVG/1.1/DTD/svg11.dtd">
<!-- Generated by graphviz version 2.36.0 (20140111.2315)
 -->
<!-- Title: wdfTerminatedRes Pages: 1 -->
<svg width="367pt" height="626pt"
 viewBox="0.00 0.00 367.00 626.00" xmlns="http://www.w3.org/2000/svg" xmlns:xlink="http://www.w3.org/1999/xlink">
<g id="graph0" class="graph" transform="scale(1 1) rotate(0) translate(4 622)">
<title>wdfTerminatedRes</title>
<!-- Node1 -->
<g id="node1" class="node"><title>Node1</title>
<polygon fill="#bfbfbf" stroke="black" points="0,-0.5 0,-87.5 98,-87.5 98,-0.5 0,-0.5"/>
<text text-anchor="middle" x="49" y="-77.1" font-family="Helvetica,sans-Serif" font-size="8.00">wdfTerminatedRes</text>
<polyline fill="none" stroke="black" points="0,-70.5 98,-70.5 "/>
<text text-anchor="middle" x="49" y="-60.1" font-family="Helvetica,sans-Serif" font-size="8.00"> </text>
<polyline fill="none" stroke="black" points="0,-53.5 98,-53.5 "/>
<text text-anchor="start" x="8" y="-43.1" font-family="Helvetica,sans-Serif" font-size="8.00">+ wdfTerminatedRes()</text>
<text text-anchor="start" x="8" y="-34.1" font-family="Helvetica,sans-Serif" font-size="8.00">+ calculateUpRes()</text>
<text text-anchor="start" x="8" y="-25.1" font-family="Helvetica,sans-Serif" font-size="8.00">+ calculateUpB()</text>
<text text-anchor="start" x="8" y="-16.1" font-family="Helvetica,sans-Serif" font-size="8.00">+ calculateDownB()</text>
<text text-anchor="start" x="8" y="-7.1" font-family="Helvetica,sans-Serif" font-size="8.00">+ getType()</text>
</g>
<!-- Node2 -->
<g id="node2" class="node"><title>Node2</title>
<g id="a_node2"><a xlink:href="classwdf_terminated_leaf.html" target="_top" xlink:title="{wdfTerminatedLeaf\n||+ wdfTerminatedLeaf()\l+ calculateScatterCoeffs()\l}">
<polygon fill="none" stroke="black" points="59.5,-127 59.5,-187 168.5,-187 168.5,-127 59.5,-127"/>
<text text-anchor="middle" x="114" y="-176.6" font-family="Helvetica,sans-Serif" font-size="8.00">wdfTerminatedLeaf</text>
<polyline fill="none" stroke="black" points="59.5,-170 168.5,-170 "/>
<text text-anchor="middle" x="114" y="-159.6" font-family="Helvetica,sans-Serif" font-size="8.00"> </text>
<polyline fill="none" stroke="black" points="59.5,-153 168.5,-153 "/>
<text text-anchor="start" x="67.5" y="-142.6" font-family="Helvetica,sans-Serif" font-size="8.00">+ wdfTerminatedLeaf()</text>
<text text-anchor="start" x="67.5" y="-133.6" font-family="Helvetica,sans-Serif" font-size="8.00">+ calculateScatterCoeffs()</text>
</a>
</g>
</g>
<!-- Node2&#45;&gt;Node1 -->
<g id="edge1" class="edge"><title>Node2&#45;&gt;Node1</title>
<path fill="none" stroke="midnightblue" d="M91.8218,-118.126C86.0966,-108.35 79.8946,-97.7584 74.0348,-87.7518"/>
<polygon fill="none" stroke="midnightblue" points="88.8485,-119.975 96.922,-126.836 94.889,-116.438 88.8485,-119.975"/>
</g>
<!-- Node3 -->
<g id="node3" class="node"><title>Node3</title>
<g id="a_node3"><a xlink:href="classwdf_tree_node.html" target="_top" xlink:title="{wdfTreeNode\n||+ wdfTreeNode()\l+ ~wdfTreeNode()\l+ setParentInChildren()\l+ createPorts()\l+ adaptPorts()\l+ calculateUpRes()\l+ calculateScatterCoeffs()\l+ pullWaveUp()\l+ calculateUpB()\l+ pushWaveDown()\l+ calculateDownB()\l+ getType()\l}">
<polygon fill="none" stroke="black" points="94.5,-227 94.5,-377 203.5,-377 203.5,-227 94.5,-227"/>
<text text-anchor="middle" x="149" y="-366.6" font-family="Helvetica,sans-Serif" font-size="8.00">wdfTreeNode</text>
<polyline fill="none" stroke="black" points="94.5,-360 203.5,-360 "/>
<text text-anchor="middle" x="149" y="-349.6" font-family="Helvetica,sans-Serif" font-size="8.00"> </text>
<polyline fill="none" stroke="black" points="94.5,-343 203.5,-343 "/>
<text text-anchor="start" x="102.5" y="-332.6" font-family="Helvetica,sans-Serif" font-size="8.00">+ wdfTreeNode()</text>
<text text-anchor="start" x="102.5" y="-323.6" font-family="Helvetica,sans-Serif" font-size="8.00">+ ~wdfTreeNode()</text>
<text text-anchor="start" x="102.5" y="-314.6" font-family="Helvetica,sans-Serif" font-size="8.00">+ setParentInChildren()</text>
<text text-anchor="start" x="102.5" y="-305.6" font-family="Helvetica,sans-Serif" font-size="8.00">+ createPorts()</text>
<text text-anchor="start" x="102.5" y="-296.6" font-family="Helvetica,sans-Serif" font-size="8.00">+ adaptPorts()</text>
<text text-anchor="start" x="102.5" y="-287.6" font-family="Helvetica,sans-Serif" font-size="8.00">+ calculateUpRes()</text>
<text text-anchor="start" x="102.5" y="-278.6" font-family="Helvetica,sans-Serif" font-size="8.00">+ calculateScatterCoeffs()</text>
<text text-anchor="start" x="102.5" y="-269.6" font-family="Helvetica,sans-Serif" font-size="8.00">+ pullWaveUp()</text>
<text text-anchor="start" x="102.5" y="-260.6" font-family="Helvetica,sans-Serif" font-size="8.00">+ calculateUpB()</text>
<text text-anchor="start" x="102.5" y="-251.6" font-family="Helvetica,sans-Serif" font-size="8.00">+ pushWaveDown()</text>
<text text-anchor="start" x="102.5" y="-242.6" font-family="Helvetica,sans-Serif" font-size="8.00">+ calculateDownB()</text>
<text text-anchor="start" x="102.5" y="-233.6" font-family="Helvetica,sans-Serif" font-size="8.00">+ getType()</text>
</a>
</g>
</g>
<!-- Node3&#45;&gt;Node2 -->
<g id="edge2" class="edge"><title>Node3&#45;&gt;Node2</title>
<path fill="none" stroke="midnightblue" d="M128.458,-217.07C125.836,-206.359 123.308,-196.031 121.12,-187.089"/>
<polygon fill="none" stroke="midnightblue" points="125.108,-218.106 130.885,-226.987 131.907,-216.441 125.108,-218.106"/>
</g>
<!-- Node3&#45;&gt;Node3 -->
<g id="edge7" class="edge"><title>Node3&#45;&gt;Node3</title>
<path fill="none" stroke="#404040" d="M203.629,-318.72C213.822,-316.661 221,-311.088 221,-302 221,-296.888 218.729,-292.888 214.927,-290"/>
<polygon fill="none" stroke="#404040" points="214.701,-289.906 207.623,-291.284 203.629,-285.28 210.707,-283.902 214.701,-289.906"/>
<text text-anchor="middle" x="246" y="-300.1" font-family="Helvetica,sans-Serif" font-size="8.00"> +parentNode</text>
</g>
<!-- Node4 -->
<g id="node4" class="node"><title>Node4</title>
<polygon fill="none" stroke="#bfbfbf" points="252.5,-433.5 252.5,-484.5 359.5,-484.5 359.5,-433.5 252.5,-433.5"/>
<text text-anchor="middle" x="306" y="-474.1" font-family="Helvetica,sans-Serif" font-size="8.00">vector&lt; wdfTreeNode * &gt;</text>
<polyline fill="none" stroke="#bfbfbf" points="252.5,-467.5 359.5,-467.5 "/>
<text text-anchor="middle" x="306" y="-457.1" font-family="Helvetica,sans-Serif" font-size="8.00"> </text>
<polyline fill="none" stroke="#bfbfbf" points="252.5,-450.5 359.5,-450.5 "/>
<text text-anchor="middle" x="306" y="-440.1" font-family="Helvetica,sans-Serif" font-size="8.00"> </text>
</g>
<!-- Node4&#45;&gt;Node3 -->
<g id="edge3" class="edge"><title>Node4&#45;&gt;Node3</title>
<path fill="none" stroke="#404040" d="M281.123,-433.44C262.641,-415.193 236.563,-389.448 212.453,-365.645"/>
<polygon fill="none" stroke="#404040" points="212.216,-365.411 205.136,-364.042 203.677,-356.98 210.757,-358.349 212.216,-365.411"/>
<text text-anchor="middle" x="280" y="-399.1" font-family="Helvetica,sans-Serif" font-size="8.00"> +childrenNodes</text>
</g>
<!-- Node5 -->
<g id="node5" class="node"><title>Node5</title>
<g id="a_node5"><a xlink:href="classwdf_port.html" target="_top" xlink:title="{wdfPort\n||+ wdfPort()\l+ getPortVoltage()\l+ getPortCurrent()\l}">
<polygon fill="none" stroke="black" points="48.5,-424.5 48.5,-493.5 131.5,-493.5 131.5,-424.5 48.5,-424.5"/>
<text text-anchor="middle" x="90" y="-483.1" font-family="Helvetica,sans-Serif" font-size="8.00">wdfPort</text>
<polyline fill="none" stroke="black" points="48.5,-476.5 131.5,-476.5 "/>
<text text-anchor="middle" x="90" y="-466.1" font-family="Helvetica,sans-Serif" font-size="8.00"> </text>
<polyline fill="none" stroke="black" points="48.5,-459.5 131.5,-459.5 "/>
<text text-anchor="start" x="56.5" y="-449.1" font-family="Helvetica,sans-Serif" font-size="8.00">+ wdfPort()</text>
<text text-anchor="start" x="56.5" y="-440.1" font-family="Helvetica,sans-Serif" font-size="8.00">+ getPortVoltage()</text>
<text text-anchor="start" x="56.5" y="-431.1" font-family="Helvetica,sans-Serif" font-size="8.00">+ getPortCurrent()</text>
</a>
</g>
</g>
<!-- Node5&#45;&gt;Node3 -->
<g id="edge4" class="edge"><title>Node5&#45;&gt;Node3</title>
<path fill="none" stroke="#404040" d="M102.802,-424.367C106.85,-413.733 111.523,-401.456 116.31,-388.88"/>
<polygon fill="none" stroke="#404040" points="116.454,-388.502 114.85,-381.471 120.723,-377.287 122.327,-384.317 116.454,-388.502"/>
<text text-anchor="middle" x="128.5" y="-399.1" font-family="Helvetica,sans-Serif" font-size="8.00"> +upPort</text>
</g>
<!-- Node6 -->
<g id="node6" class="node"><title>Node6</title>
<polygon fill="none" stroke="#bfbfbf" points="-0.5,-566.5 -0.5,-617.5 40.5,-617.5 40.5,-566.5 -0.5,-566.5"/>
<text text-anchor="middle" x="20" y="-607.1" font-family="Helvetica,sans-Serif" font-size="8.00">double</text>
<polyline fill="none" stroke="#bfbfbf" points="-0.5,-600.5 40.5,-600.5 "/>
<text text-anchor="middle" x="20" y="-590.1" font-family="Helvetica,sans-Serif" font-size="8.00"> </text>
<polyline fill="none" stroke="#bfbfbf" points="-0.5,-583.5 40.5,-583.5 "/>
<text text-anchor="middle" x="20" y="-573.1" font-family="Helvetica,sans-Serif" font-size="8.00"> </text>
</g>
<!-- Node6&#45;&gt;Node1 -->
<g id="edge9" class="edge"><title>Node6&#45;&gt;Node1</title>
<path fill="none" stroke="#404040" d="M20,-566.373C20,-540.043 20,-497.071 20,-460 20,-460 20,-460 20,-156 20,-137.137 23.9687,-117.04 28.9698,-99.203"/>
<polygon fill="none" stroke="#404040" points="29.017,-99.0455 26.9108,-92.1488 32.4669,-87.5521 34.5731,-94.4488 29.017,-99.0455"/>
<text text-anchor="middle" x="26.5" y="-300.1" font-family="Helvetica,sans-Serif" font-size="8.00"> +R</text>
</g>
<!-- Node6&#45;&gt;Node5 -->
<g id="edge5" class="edge"><title>Node6&#45;&gt;Node5</title>
<path fill="none" stroke="#404040" d="M33.1665,-566.36C42.432,-549.02 55.0964,-525.32 66.119,-504.692"/>
<polygon fill="none" stroke="#404040" points="66.2182,-504.506 65.518,-497.329 71.8737,-493.922 72.5739,-501.099 66.2182,-504.506"/>
<text text-anchor="middle" x="70" y="-541.6" font-family="Helvetica,sans-Serif" font-size="8.00"> +a</text>
<text text-anchor="middle" x="70" y="-532.6" font-family="Helvetica,sans-Serif" font-size="8.00">+b</text>
<text text-anchor="middle" x="70" y="-523.6" font-family="Helvetica,sans-Serif" font-size="8.00">+Rp</text>
<text text-anchor="middle" x="70" y="-514.6" font-family="Helvetica,sans-Serif" font-size="8.00">+Gp</text>
</g>
<!-- Node7 -->
<g id="node7" class="node"><title>Node7</title>
<polygon fill="none" stroke="#bfbfbf" points="59,-566.5 59,-617.5 191,-617.5 191,-566.5 59,-566.5"/>
<text text-anchor="middle" x="125" y="-607.1" font-family="Helvetica,sans-Serif" font-size="8.00">ScopedPointer&lt; wdfTreeNode &gt;</text>
<polyline fill="none" stroke="#bfbfbf" points="59,-600.5 191,-600.5 "/>
<text text-anchor="middle" x="125" y="-590.1" font-family="Helvetica,sans-Serif" font-size="8.00"> </text>
<polyline fill="none" stroke="#bfbfbf" points="59,-583.5 191,-583.5 "/>
<text text-anchor="middle" x="125" y="-573.1" font-family="Helvetica,sans-Serif" font-size="8.00"> </text>
</g>
<!-- Node7&#45;&gt;Node5 -->
<g id="edge6" class="edge"><title>Node7&#45;&gt;Node5</title>
<path fill="none" stroke="#404040" d="M118.417,-566.36C113.848,-549.26 107.627,-525.974 102.17,-505.549"/>
<polygon fill="none" stroke="#404040" points="102.161,-505.515 96.7475,-500.751 99.0632,-493.922 104.476,-498.686 102.161,-505.515"/>
<text text-anchor="middle" x="145" y="-528.1" font-family="Helvetica,sans-Serif" font-size="8.00"> +connectedNode</text>
</g>
<!-- Node8 -->
<g id="node8" class="node"><title>Node8</title>
<polygon fill="none" stroke="#bfbfbf" points="149.5,-433.5 149.5,-484.5 234.5,-484.5 234.5,-433.5 149.5,-433.5"/>
<text text-anchor="middle" x="192" y="-474.1" font-family="Helvetica,sans-Serif" font-size="8.00">vector&lt; wdfPort * &gt;</text>
<polyline fill="none" stroke="#bfbfbf" points="149.5,-467.5 234.5,-467.5 "/>
<text text-anchor="middle" x="192" y="-457.1" font-family="Helvetica,sans-Serif" font-size="8.00"> </text>
<polyline fill="none" stroke="#bfbfbf" points="149.5,-450.5 234.5,-450.5 "/>
<text text-anchor="middle" x="192" y="-440.1" font-family="Helvetica,sans-Serif" font-size="8.00"> </text>
</g>
<!-- Node8&#45;&gt;Node3 -->
<g id="edge8" class="edge"><title>Node8&#45;&gt;Node3</title>
<path fill="none" stroke="#404040" d="M185.187,-433.44C181.756,-421.076 177.371,-405.268 172.845,-388.954"/>
<polygon fill="none" stroke="#404040" points="172.745,-388.591 167.286,-383.879 169.537,-377.028 174.995,-381.74 172.745,-388.591"/>
<text text-anchor="middle" x="200" y="-399.1" font-family="Helvetica,sans-Serif" font-size="8.00"> +downPorts</text>
</g>
</g>
</svg>
