<?xml version="1.0" encoding="UTF-8" standalone="no"?>
<!DOCTYPE svg PUBLIC "-//W3C//DTD SVG 1.1//EN"
 "http://www.w3.org/Graphics/SVG/1.1/DTD/svg11.dtd">
<!-- Generated by graphviz version 2.36.0 (20140111.2315)
 -->
<!-- Title: Graph Legend Pages: 1 -->
<svg width="449pt" height="154pt"
 viewBox="0.00 0.00 449.00 154.00" xmlns="http://www.w3.org/2000/svg" xmlns:xlink="http://www.w3.org/1999/xlink">
<g id="graph0" class="graph" transform="scale(1 1) rotate(0) translate(4 150)">
<title>Graph Legend</title>
<!-- Node9 -->
<g id="node1" class="node"><title>Node9</title>
<polygon fill="#bfbfbf" stroke="black" points="256,-17.5 208,-17.5 208,-0.5 256,-0.5 256,-17.5"/>
<text text-anchor="middle" x="232" y="-7.1" font-family="Helvetica,sans-Serif" font-size="8.00">Inherited</text>
</g>
<!-- Node10 -->
<g id="node2" class="node"><title>Node10</title>
<g id="a_node2"><a xlink:href="$classPublicBase.html" xlink:title="PublicBase">
<polygon fill="none" stroke="black" points="55.5,-81.5 0.5,-81.5 0.5,-64.5 55.5,-64.5 55.5,-81.5"/>
<text text-anchor="middle" x="28" y="-71.1" font-family="Helvetica,sans-Serif" font-size="8.00">PublicBase</text>
</a>
</g>
</g>
<!-- Node10&#45;&gt;Node9 -->
<g id="edge1" class="edge"><title>Node10&#45;&gt;Node9</title>
<path fill="none" stroke="midnightblue" d="M62.6418,-61.4716C103.886,-48.9365 171.704,-28.3253 207.734,-17.3748"/>
<polygon fill="midnightblue" stroke="midnightblue" points="61.5645,-58.1409 53.0144,-64.3976 63.6001,-64.8384 61.5645,-58.1409"/>
</g>
<!-- Node11 -->
<g id="node3" class="node"><title>Node11</title>
<g id="a_node3"><a xlink:href="$classTruncated.html" xlink:title="Truncated">
<polygon fill="none" stroke="red" points="54.25,-145.5 1.75,-145.5 1.75,-128.5 54.25,-128.5 54.25,-145.5"/>
<text text-anchor="middle" x="28" y="-135.1" font-family="Helvetica,sans-Serif" font-size="8.00">Truncated</text>
</a>
</g>
</g>
<!-- Node11&#45;&gt;Node10 -->
<g id="edge2" class="edge"><title>Node11&#45;&gt;Node10</title>
<path fill="none" stroke="midnightblue" d="M28,-118.129C28,-106.051 28,-90.7111 28,-81.6646"/>
<polygon fill="midnightblue" stroke="midnightblue" points="24.5001,-118.398 28,-128.398 31.5001,-118.398 24.5001,-118.398"/>
</g>
<!-- Node13 -->
<g id="node4" class="node"><title>Node13</title>
<g id="a_node4"><a xlink:href="$classProtectedBase.html" xlink:title="ProtectedBase">
<polygon fill="none" stroke="black" points="143.25,-81.5 74.75,-81.5 74.75,-64.5 143.25,-64.5 143.25,-81.5"/>
<text text-anchor="middle" x="109" y="-71.1" font-family="Helvetica,sans-Serif" font-size="8.00">ProtectedBase</text>
</a>
</g>
</g>
<!-- Node13&#45;&gt;Node9 -->
<g id="edge3" class="edge"><title>Node13&#45;&gt;Node9</title>
<path fill="none" stroke="darkgreen" d="M133.21,-59.7965C158.037,-47.2824 195.887,-28.2033 216.794,-17.6646"/>
<polygon fill="darkgreen" stroke="darkgreen" points="131.437,-56.771 124.082,-64.3976 134.587,-63.0218 131.437,-56.771"/>
</g>
<!-- Node14 -->
<g id="node5" class="node"><title>Node14</title>
<g id="a_node5"><a xlink:href="$classPrivateBase.html" xlink:title="PrivateBase">
<polygon fill="none" stroke="black" points="220.25,-81.5 161.75,-81.5 161.75,-64.5 220.25,-64.5 220.25,-81.5"/>
<text text-anchor="middle" x="191" y="-71.1" font-family="Helvetica,sans-Serif" font-size="8.00">PrivateBase</text>
</a>
</g>
</g>
<!-- Node14&#45;&gt;Node9 -->
<g id="edge4" class="edge"><title>Node14&#45;&gt;Node9</title>
<path fill="none" stroke="#8b1a1a" d="M201.601,-55.9692C209.748,-43.6488 220.641,-27.1774 226.931,-17.6646"/>
<polygon fill="#8b1a1a" stroke="#8b1a1a" points="198.624,-54.1258 196.027,-64.3976 204.463,-57.987 198.624,-54.1258"/>
</g>
<!-- Node15 -->
<g id="node6" class="node"><title>Node15</title>
<polygon fill="none" stroke="#bfbfbf" points="309.25,-81.5 238.75,-81.5 238.75,-64.5 309.25,-64.5 309.25,-81.5"/>
<text text-anchor="middle" x="274" y="-71.1" font-family="Helvetica,sans-Serif" font-size="8.00">Undocumented</text>
</g>
<!-- Node15&#45;&gt;Node9 -->
<g id="edge5" class="edge"><title>Node15&#45;&gt;Node9</title>
<path fill="none" stroke="midnightblue" d="M263.14,-55.9692C254.794,-43.6488 243.636,-27.1774 237.192,-17.6646"/>
<polygon fill="midnightblue" stroke="midnightblue" points="260.344,-58.0814 268.85,-64.3976 266.139,-54.1554 260.344,-58.0814"/>
</g>
<!-- Node16 -->
<g id="node7" class="node"><title>Node16</title>
<g id="a_node7"><a xlink:href="$classTempl.html" xlink:title="Templ&lt; int &gt;">
<polygon fill="none" stroke="black" points="388.25,-81.5 327.75,-81.5 327.75,-64.5 388.25,-64.5 388.25,-81.5"/>
<text text-anchor="middle" x="358" y="-71.1" font-family="Helvetica,sans-Serif" font-size="8.00">Templ&lt; int &gt;</text>
</a>
</g>
</g>
<!-- Node16&#45;&gt;Node9 -->
<g id="edge6" class="edge"><title>Node16&#45;&gt;Node9</title>
<path fill="none" stroke="midnightblue" d="M333.536,-59.9622C308.111,-47.4514 269.089,-28.2499 247.576,-17.6646"/>
<polygon fill="midnightblue" stroke="midnightblue" points="332.032,-63.1229 342.55,-64.3976 335.123,-56.842 332.032,-63.1229"/>
</g>
<!-- Node17 -->
<g id="node8" class="node"><title>Node17</title>
<g id="a_node8"><a xlink:href="$classTempl.html" xlink:title="Templ&lt; T &gt;">
<polygon fill="none" stroke="black" points="386.5,-145.5 329.5,-145.5 329.5,-128.5 386.5,-128.5 386.5,-145.5"/>
<text text-anchor="middle" x="358" y="-135.1" font-family="Helvetica,sans-Serif" font-size="8.00">Templ&lt; T &gt;</text>
</a>
</g>
</g>
<!-- Node17&#45;&gt;Node16 -->
<g id="edge7" class="edge"><title>Node17&#45;&gt;Node16</title>
<path fill="none" stroke="orange" stroke-dasharray="5,2" d="M358,-118.129C358,-106.051 358,-90.7111 358,-81.6646"/>
<polygon fill="orange" stroke="orange" points="354.5,-118.398 358,-128.398 361.5,-118.398 354.5,-118.398"/>
<text text-anchor="middle" x="369" y="-103.1" font-family="Helvetica,sans-Serif" font-size="8.00">&lt; int &gt;</text>
</g>
<!-- Node18 -->
<g id="node9" class="node"><title>Node18</title>
<g id="a_node9"><a xlink:href="$classUsed.html" xlink:title="Used">
<polygon fill="none" stroke="black" points="441.25,-81.5 406.75,-81.5 406.75,-64.5 441.25,-64.5 441.25,-81.5"/>
<text text-anchor="middle" x="424" y="-71.1" font-family="Helvetica,sans-Serif" font-size="8.00">Used</text>
</a>
</g>
</g>
<!-- Node18&#45;&gt;Node9 -->
<g id="edge8" class="edge"><title>Node18&#45;&gt;Node9</title>
<path fill="none" stroke="#9a32cd" stroke-dasharray="5,2" d="M396.798,-63.216C358.956,-50.9964 291.068,-29.0739 255.382,-17.5503"/>
<polygon fill="#9a32cd" stroke="#9a32cd" points="396.031,-66.6462 406.623,-66.3886 398.182,-59.9849 396.031,-66.6462"/>
<text text-anchor="middle" x="364.5" y="-39.1" font-family="Helvetica,sans-Serif" font-size="8.00">m_usedClass</text>
</g>
</g>
</svg>
