<?xml version="1.0" encoding="UTF-8" standalone="no"?>
<!DOCTYPE svg PUBLIC "-//W3C//DTD SVG 1.1//EN"
 "http://www.w3.org/Graphics/SVG/1.1/DTD/svg11.dtd">
<!-- Generated by graphviz version 2.36.0 (20140111.2315)
 -->
<!-- Title: Graphical Class Hierarchy Pages: 1 -->
<svg width="362pt" height="206pt"
 viewBox="0.00 0.00 362.00 206.00" xmlns="http://www.w3.org/2000/svg" xmlns:xlink="http://www.w3.org/1999/xlink">
<g id="graph0" class="graph" transform="scale(1 1) rotate(0) translate(4 202)">
<title>Graphical Class Hierarchy</title>
<!-- Node1 -->
<g id="node1" class="node"><title>Node1</title>
<g id="a_node1"><a xlink:href="classwdf_tree_node.html" target="_top" xlink:title="wdfTreeNode">
<polygon fill="none" stroke="black" points="0,-108.5 0,-125.5 66,-125.5 66,-108.5 0,-108.5"/>
<text text-anchor="middle" x="33" y="-115.1" font-family="Helvetica,sans-Serif" font-size="8.00">wdfTreeNode</text>
</a>
</g>
</g>
<!-- Node2 -->
<g id="node2" class="node"><title>Node2</title>
<g id="a_node2"><a xlink:href="classwdf_terminated_adapter.html" target="_top" xlink:title="wdfTerminatedAdapter">
<polygon fill="none" stroke="black" points="102.5,-144.5 102.5,-161.5 201.5,-161.5 201.5,-144.5 102.5,-144.5"/>
<text text-anchor="middle" x="152" y="-151.1" font-family="Helvetica,sans-Serif" font-size="8.00">wdfTerminatedAdapter</text>
</a>
</g>
</g>
<!-- Node1&#45;&gt;Node2 -->
<g id="edge1" class="edge"><title>Node1&#45;&gt;Node2</title>
<path fill="none" stroke="midnightblue" d="M71.7258,-128.608C88.4155,-133.743 107.698,-139.676 123.066,-144.405"/>
<polygon fill="midnightblue" stroke="midnightblue" points="72.3145,-125.127 61.7274,-125.531 70.2558,-131.818 72.3145,-125.127"/>
</g>
<!-- Node5 -->
<g id="node5" class="node"><title>Node5</title>
<g id="a_node5"><a xlink:href="classwdf_terminated_leaf.html" target="_top" xlink:title="wdfTerminatedLeaf">
<polygon fill="none" stroke="black" points="109,-72.5 109,-89.5 195,-89.5 195,-72.5 109,-72.5"/>
<text text-anchor="middle" x="152" y="-79.1" font-family="Helvetica,sans-Serif" font-size="8.00">wdfTerminatedLeaf</text>
</a>
</g>
</g>
<!-- Node1&#45;&gt;Node5 -->
<g id="edge4" class="edge"><title>Node1&#45;&gt;Node5</title>
<path fill="none" stroke="midnightblue" d="M71.7258,-105.392C88.4155,-100.257 107.698,-94.3238 123.066,-89.595"/>
<polygon fill="midnightblue" stroke="midnightblue" points="70.2558,-102.182 61.7274,-108.469 72.3145,-108.873 70.2558,-102.182"/>
</g>
<!-- Node3 -->
<g id="node3" class="node"><title>Node3</title>
<g id="a_node3"><a xlink:href="classwdf_terminated_parallel.html" target="_top" xlink:title="wdfTerminatedParallel">
<polygon fill="none" stroke="black" points="247.5,-180.5 247.5,-197.5 344.5,-197.5 344.5,-180.5 247.5,-180.5"/>
<text text-anchor="middle" x="296" y="-187.1" font-family="Helvetica,sans-Serif" font-size="8.00">wdfTerminatedParallel</text>
</a>
</g>
</g>
<!-- Node2&#45;&gt;Node3 -->
<g id="edge2" class="edge"><title>Node2&#45;&gt;Node3</title>
<path fill="none" stroke="midnightblue" d="M196.508,-164.03C217.27,-169.294 241.741,-175.498 261.097,-180.405"/>
<polygon fill="midnightblue" stroke="midnightblue" points="197.206,-160.596 186.652,-161.531 195.485,-167.382 197.206,-160.596"/>
</g>
<!-- Node4 -->
<g id="node4" class="node"><title>Node4</title>
<g id="a_node4"><a xlink:href="classwdf_terminated_series.html" target="_top" xlink:title="wdfTerminatedSeries">
<polygon fill="none" stroke="black" points="249.5,-144.5 249.5,-161.5 342.5,-161.5 342.5,-144.5 249.5,-144.5"/>
<text text-anchor="middle" x="296" y="-151.1" font-family="Helvetica,sans-Serif" font-size="8.00">wdfTerminatedSeries</text>
</a>
</g>
</g>
<!-- Node2&#45;&gt;Node4 -->
<g id="edge3" class="edge"><title>Node2&#45;&gt;Node4</title>
<path fill="none" stroke="midnightblue" d="M212.164,-153C224.601,-153 237.537,-153 249.387,-153"/>
<polygon fill="midnightblue" stroke="midnightblue" points="211.868,-149.5 201.868,-153 211.868,-156.5 211.868,-149.5"/>
</g>
<!-- Node6 -->
<g id="node6" class="node"><title>Node6</title>
<g id="a_node6"><a xlink:href="classwdf_terminated_cap.html" target="_top" xlink:title="wdfTerminatedCap">
<polygon fill="none" stroke="black" points="253,-108.5 253,-125.5 339,-125.5 339,-108.5 253,-108.5"/>
<text text-anchor="middle" x="296" y="-115.1" font-family="Helvetica,sans-Serif" font-size="8.00">wdfTerminatedCap</text>
</a>
</g>
</g>
<!-- Node5&#45;&gt;Node6 -->
<g id="edge5" class="edge"><title>Node5&#45;&gt;Node6</title>
<path fill="none" stroke="midnightblue" d="M196.508,-92.0301C217.27,-97.2937 241.741,-103.498 261.097,-108.405"/>
<polygon fill="midnightblue" stroke="midnightblue" points="197.206,-88.5964 186.652,-89.5315 195.485,-95.3817 197.206,-88.5964"/>
</g>
<!-- Node7 -->
<g id="node7" class="node"><title>Node7</title>
<g id="a_node7"><a xlink:href="classwdf_terminated_ind.html" target="_top" xlink:title="wdfTerminatedInd">
<polygon fill="none" stroke="black" points="255,-72.5 255,-89.5 337,-89.5 337,-72.5 255,-72.5"/>
<text text-anchor="middle" x="296" y="-79.1" font-family="Helvetica,sans-Serif" font-size="8.00">wdfTerminatedInd</text>
</a>
</g>
</g>
<!-- Node5&#45;&gt;Node7 -->
<g id="edge6" class="edge"><title>Node5&#45;&gt;Node7</title>
<path fill="none" stroke="midnightblue" d="M205.631,-81C221.834,-81 239.407,-81 254.648,-81"/>
<polygon fill="midnightblue" stroke="midnightblue" points="205.22,-77.5001 195.22,-81 205.22,-84.5001 205.22,-77.5001"/>
</g>
<!-- Node8 -->
<g id="node8" class="node"><title>Node8</title>
<g id="a_node8"><a xlink:href="classwdf_terminated_res.html" target="_top" xlink:title="wdfTerminatedRes">
<polygon fill="none" stroke="black" points="253.5,-36.5 253.5,-53.5 338.5,-53.5 338.5,-36.5 253.5,-36.5"/>
<text text-anchor="middle" x="296" y="-43.1" font-family="Helvetica,sans-Serif" font-size="8.00">wdfTerminatedRes</text>
</a>
</g>
</g>
<!-- Node5&#45;&gt;Node8 -->
<g id="edge7" class="edge"><title>Node5&#45;&gt;Node8</title>
<path fill="none" stroke="midnightblue" d="M196.508,-69.9699C217.27,-64.7063 241.741,-58.5022 261.097,-53.595"/>
<polygon fill="midnightblue" stroke="midnightblue" points="195.485,-66.6183 186.652,-72.4685 197.206,-73.4036 195.485,-66.6183"/>
</g>
<!-- Node9 -->
<g id="node9" class="node"><title>Node9</title>
<g id="a_node9"><a xlink:href="classwdf_terminated_res_v_source.html" target="_top" xlink:title="wdfTerminatedResVSource">
<polygon fill="none" stroke="black" points="238,-0.5 238,-17.5 354,-17.5 354,-0.5 238,-0.5"/>
<text text-anchor="middle" x="296" y="-7.1" font-family="Helvetica,sans-Serif" font-size="8.00">wdfTerminatedResVSource</text>
</a>
</g>
</g>
<!-- Node5&#45;&gt;Node9 -->
<g id="edge8" class="edge"><title>Node5&#45;&gt;Node9</title>
<path fill="none" stroke="midnightblue" d="M172.644,-66.4317C189.351,-54.564 214.332,-38.0248 238,-27 245.808,-23.363 254.544,-20.1923 262.787,-17.5678"/>
<polygon fill="midnightblue" stroke="midnightblue" points="170.329,-63.7857 164.274,-72.4795 174.429,-69.4595 170.329,-63.7857"/>
</g>
</g>
</svg>
