<?xml version="1.0" encoding="UTF-8" standalone="no"?>
<!DOCTYPE svg PUBLIC "-//W3C//DTD SVG 1.1//EN"
 "http://www.w3.org/Graphics/SVG/1.1/DTD/svg11.dtd">
<!-- Generated by graphviz version 2.36.0 (20140111.2315)
 -->
<!-- Title: Graphical Class Hierarchy Pages: 1 -->
<svg width="156pt" height="170pt"
 viewBox="0.00 0.00 156.00 170.00" xmlns="http://www.w3.org/2000/svg" xmlns:xlink="http://www.w3.org/1999/xlink">
<g id="graph0" class="graph" transform="scale(1 1) rotate(0) translate(4 166)">
<title>Graphical Class Hierarchy</title>
<!-- Node1 -->
<g id="node1" class="node"><title>Node1</title>
<g id="a_node1"><a xlink:href="classnl_model.html" target="_top" xlink:title="nlModel">
<polygon fill="none" stroke="black" points="0,-72.5 0,-89.5 44,-89.5 44,-72.5 0,-72.5"/>
<text text-anchor="middle" x="22" y="-79.1" font-family="Helvetica,sans-Serif" font-size="8.00">nlModel</text>
</a>
</g>
</g>
<!-- Node2 -->
<g id="node2" class="node"><title>Node2</title>
<g id="a_node2"><a xlink:href="classbjt_em_model.html" target="_top" xlink:title="bjtEmModel">
<polygon fill="none" stroke="black" points="84.5,-144.5 84.5,-161.5 143.5,-161.5 143.5,-144.5 84.5,-144.5"/>
<text text-anchor="middle" x="114" y="-151.1" font-family="Helvetica,sans-Serif" font-size="8.00">bjtEmModel</text>
</a>
</g>
</g>
<!-- Node1&#45;&gt;Node2 -->
<g id="edge1" class="edge"><title>Node1&#45;&gt;Node2</title>
<path fill="none" stroke="midnightblue" d="M37.9939,-97.2957C48.963,-108.673 64.565,-123.773 80,-135 84.7498,-138.455 90.2386,-141.705 95.3597,-144.468"/>
<polygon fill="midnightblue" stroke="midnightblue" points="40.3046,-94.645 30.8941,-89.7775 35.2152,-99.4511 40.3046,-94.645"/>
</g>
<!-- Node3 -->
<g id="node3" class="node"><title>Node3</title>
<g id="a_node3"><a xlink:href="classdiode_ap_model.html" target="_top" xlink:title="diodeApModel">
<polygon fill="none" stroke="black" points="80,-108.5 80,-125.5 148,-125.5 148,-108.5 80,-108.5"/>
<text text-anchor="middle" x="114" y="-115.1" font-family="Helvetica,sans-Serif" font-size="8.00">diodeApModel</text>
</a>
</g>
</g>
<!-- Node1&#45;&gt;Node3 -->
<g id="edge2" class="edge"><title>Node1&#45;&gt;Node3</title>
<path fill="none" stroke="midnightblue" d="M53.8494,-93.3398C66.2507,-98.3003 80.2482,-103.899 91.5125,-108.405"/>
<polygon fill="midnightblue" stroke="midnightblue" points="54.9134,-89.9958 44.3287,-89.5315 52.3136,-96.4951 54.9134,-89.9958"/>
</g>
<!-- Node4 -->
<g id="node4" class="node"><title>Node4</title>
<g id="a_node4"><a xlink:href="classdiode_model.html" target="_top" xlink:title="diodeModel">
<polygon fill="none" stroke="black" points="85,-72.5 85,-89.5 143,-89.5 143,-72.5 85,-72.5"/>
<text text-anchor="middle" x="114" y="-79.1" font-family="Helvetica,sans-Serif" font-size="8.00">diodeModel</text>
</a>
</g>
</g>
<!-- Node1&#45;&gt;Node4 -->
<g id="edge3" class="edge"><title>Node1&#45;&gt;Node4</title>
<path fill="none" stroke="midnightblue" d="M54.5096,-81C64.3257,-81 75.0854,-81 84.6701,-81"/>
<polygon fill="midnightblue" stroke="midnightblue" points="54.3288,-77.5001 44.3287,-81 54.3287,-84.5001 54.3288,-77.5001"/>
</g>
<!-- Node5 -->
<g id="node5" class="node"><title>Node5</title>
<g id="a_node5"><a xlink:href="classtri_ca_model.html" target="_top" xlink:title="triCaModel">
<polygon fill="none" stroke="black" points="86,-36.5 86,-53.5 142,-53.5 142,-36.5 86,-36.5"/>
<text text-anchor="middle" x="114" y="-43.1" font-family="Helvetica,sans-Serif" font-size="8.00">triCaModel</text>
</a>
</g>
</g>
<!-- Node1&#45;&gt;Node5 -->
<g id="edge4" class="edge"><title>Node1&#45;&gt;Node5</title>
<path fill="none" stroke="midnightblue" d="M53.8494,-68.6602C66.2507,-63.6997 80.2482,-58.1007 91.5125,-53.595"/>
<polygon fill="midnightblue" stroke="midnightblue" points="52.3136,-65.5049 44.3287,-72.4685 54.9134,-72.0042 52.3136,-65.5049"/>
</g>
<!-- Node6 -->
<g id="node6" class="node"><title>Node6</title>
<g id="a_node6"><a xlink:href="classtri_dw_model.html" target="_top" xlink:title="triDwModel">
<polygon fill="none" stroke="black" points="85.5,-0.5 85.5,-17.5 142.5,-17.5 142.5,-0.5 85.5,-0.5"/>
<text text-anchor="middle" x="114" y="-7.1" font-family="Helvetica,sans-Serif" font-size="8.00">triDwModel</text>
</a>
</g>
</g>
<!-- Node1&#45;&gt;Node6 -->
<g id="edge5" class="edge"><title>Node1&#45;&gt;Node6</title>
<path fill="none" stroke="midnightblue" d="M37.9939,-64.7043C48.963,-53.3266 64.565,-38.227 80,-27 84.7498,-23.5451 90.2386,-20.2947 95.3597,-17.532"/>
<polygon fill="midnightblue" stroke="midnightblue" points="35.2152,-62.5489 30.8941,-72.2225 40.3046,-67.355 35.2152,-62.5489"/>
</g>
</g>
</svg>
