<?xml version="1.0" encoding="UTF-8" standalone="no"?>
<!DOCTYPE svg PUBLIC "-//W3C//DTD SVG 1.1//EN"
 "http://www.w3.org/Graphics/SVG/1.1/DTD/svg11.dtd">
<!-- Generated by graphviz version 2.36.0 (20140111.2315)
 -->
<!-- Title: Graphical Class Hierarchy Pages: 1 -->
<svg width="164pt" height="98pt"
 viewBox="0.00 0.00 164.00 98.00" xmlns="http://www.w3.org/2000/svg" xmlns:xlink="http://www.w3.org/1999/xlink">
<g id="graph0" class="graph" transform="scale(1 1) rotate(0) translate(4 94)">
<title>Graphical Class Hierarchy</title>
<!-- Node1 -->
<g id="node1" class="node"><title>Node1</title>
<g id="a_node1"><a xlink:href="classwdf_root.html" target="_top" xlink:title="wdfRoot">
<polygon fill="none" stroke="black" points="0.5,-36.5 0.5,-53.5 47.5,-53.5 47.5,-36.5 0.5,-36.5"/>
<text text-anchor="middle" x="24" y="-43.1" font-family="Helvetica,sans-Serif" font-size="8.00">wdfRoot</text>
</a>
</g>
</g>
<!-- Node2 -->
<g id="node2" class="node"><title>Node2</title>
<g id="a_node2"><a xlink:href="classwdf_root_n_l.html" target="_top" xlink:title="wdfRootNL">
<polygon fill="none" stroke="black" points="91.5,-72.5 91.5,-89.5 148.5,-89.5 148.5,-72.5 91.5,-72.5"/>
<text text-anchor="middle" x="120" y="-79.1" font-family="Helvetica,sans-Serif" font-size="8.00">wdfRootNL</text>
</a>
</g>
</g>
<!-- Node1&#45;&gt;Node2 -->
<g id="edge1" class="edge"><title>Node1&#45;&gt;Node2</title>
<path fill="none" stroke="midnightblue" d="M56.8362,-57.1926C69.8831,-62.1893 84.6761,-67.8547 96.5575,-72.405"/>
<polygon fill="midnightblue" stroke="midnightblue" points="57.867,-53.8395 47.2767,-53.5315 55.3635,-60.3765 57.867,-53.8395"/>
</g>
<!-- Node3 -->
<g id="node3" class="node"><title>Node3</title>
<g id="a_node3"><a xlink:href="classwdf_root_rtype.html" target="_top" xlink:title="wdfRootRtype">
<polygon fill="none" stroke="black" points="86,-36.5 86,-53.5 154,-53.5 154,-36.5 86,-36.5"/>
<text text-anchor="middle" x="120" y="-43.1" font-family="Helvetica,sans-Serif" font-size="8.00">wdfRootRtype</text>
</a>
</g>
</g>
<!-- Node1&#45;&gt;Node3 -->
<g id="edge2" class="edge"><title>Node1&#45;&gt;Node3</title>
<path fill="none" stroke="midnightblue" d="M57.9147,-45C66.9457,-45 76.7413,-45 85.7889,-45"/>
<polygon fill="midnightblue" stroke="midnightblue" points="57.7548,-41.5001 47.7548,-45 57.7547,-48.5001 57.7548,-41.5001"/>
</g>
<!-- Node4 -->
<g id="node4" class="node"><title>Node4</title>
<g id="a_node4"><a xlink:href="classwdf_root_simple.html" target="_top" xlink:title="wdfRootSimple">
<polygon fill="none" stroke="black" points="84.5,-0.5 84.5,-17.5 155.5,-17.5 155.5,-0.5 84.5,-0.5"/>
<text text-anchor="middle" x="120" y="-7.1" font-family="Helvetica,sans-Serif" font-size="8.00">wdfRootSimple</text>
</a>
</g>
</g>
<!-- Node1&#45;&gt;Node4 -->
<g id="edge3" class="edge"><title>Node1&#45;&gt;Node4</title>
<path fill="none" stroke="midnightblue" d="M56.8362,-32.8074C69.8831,-27.8107 84.6761,-22.1453 96.5575,-17.595"/>
<polygon fill="midnightblue" stroke="midnightblue" points="55.3635,-29.6235 47.2767,-36.4685 57.867,-36.1605 55.3635,-29.6235"/>
</g>
</g>
</svg>
