<?xml version="1.0" encoding="UTF-8" standalone="no"?>
<!DOCTYPE svg PUBLIC "-//W3C//DTD SVG 1.1//EN"
 "http://www.w3.org/Graphics/SVG/1.1/DTD/svg11.dtd">
<!-- Generated by graphviz version 2.36.0 (20140111.2315)
 -->
<!-- Title: /home/ccrma/Development/montana/Libs/wdfClass/nlModelClass.h Pages: 1 -->
<svg width="316pt" height="260pt"
 viewBox="0.00 0.00 316.00 260.00" xmlns="http://www.w3.org/2000/svg" xmlns:xlink="http://www.w3.org/1999/xlink">
<g id="graph0" class="graph" transform="scale(1 1) rotate(0) translate(4 256)">
<title>/home/ccrma/Development/montana/Libs/wdfClass/nlModelClass.h</title>
<!-- Node1 -->
<g id="node1" class="node"><title>Node1</title>
<polygon fill="#bfbfbf" stroke="black" points="64.5,-216.5 64.5,-251.5 177.5,-251.5 177.5,-216.5 64.5,-216.5"/>
<text text-anchor="start" x="72.5" y="-241.1" font-family="Helvetica,sans-Serif" font-size="8.00">/home/ccrma/Development</text>
<text text-anchor="start" x="72.5" y="-232.1" font-family="Helvetica,sans-Serif" font-size="8.00">/montana/Libs/wdfClass</text>
<text text-anchor="middle" x="121" y="-223.1" font-family="Helvetica,sans-Serif" font-size="8.00">/nlModelClass.h</text>
</g>
<!-- Node2 -->
<g id="node2" class="node"><title>Node2</title>
<g id="a_node2"><a xlink:href="nl_model_class_8cpp.html" target="_top" xlink:title="/home/ccrma/Development\l/montana/Libs/wdfClass\l/nlModelClass.cpp">
<polygon fill="none" stroke="black" points="-0.5,-144.5 -0.5,-179.5 112.5,-179.5 112.5,-144.5 -0.5,-144.5"/>
<text text-anchor="start" x="7.5" y="-169.1" font-family="Helvetica,sans-Serif" font-size="8.00">/home/ccrma/Development</text>
<text text-anchor="start" x="7.5" y="-160.1" font-family="Helvetica,sans-Serif" font-size="8.00">/montana/Libs/wdfClass</text>
<text text-anchor="middle" x="56" y="-151.1" font-family="Helvetica,sans-Serif" font-size="8.00">/nlModelClass.cpp</text>
</a>
</g>
</g>
<!-- Node1&#45;&gt;Node2 -->
<g id="edge1" class="edge"><title>Node1&#45;&gt;Node2</title>
<path fill="none" stroke="midnightblue" d="M98.7723,-209.062C89.8857,-199.492 79.8569,-188.692 71.7451,-179.956"/>
<polygon fill="midnightblue" stroke="midnightblue" points="96.2266,-211.465 105.596,-216.411 101.356,-206.701 96.2266,-211.465"/>
</g>
<!-- Node3 -->
<g id="node3" class="node"><title>Node3</title>
<g id="a_node3"><a xlink:href="nl_solver_class_8h.html" target="_top" xlink:title="/home/ccrma/Development\l/montana/Libs/wdfClass\l/nlSolverClass.h">
<polygon fill="none" stroke="black" points="130.5,-144.5 130.5,-179.5 243.5,-179.5 243.5,-144.5 130.5,-144.5"/>
<text text-anchor="start" x="138.5" y="-169.1" font-family="Helvetica,sans-Serif" font-size="8.00">/home/ccrma/Development</text>
<text text-anchor="start" x="138.5" y="-160.1" font-family="Helvetica,sans-Serif" font-size="8.00">/montana/Libs/wdfClass</text>
<text text-anchor="middle" x="187" y="-151.1" font-family="Helvetica,sans-Serif" font-size="8.00">/nlSolverClass.h</text>
</a>
</g>
</g>
<!-- Node1&#45;&gt;Node3 -->
<g id="edge2" class="edge"><title>Node1&#45;&gt;Node3</title>
<path fill="none" stroke="midnightblue" d="M143.57,-209.062C152.593,-199.492 162.776,-188.692 171.013,-179.956"/>
<polygon fill="midnightblue" stroke="midnightblue" points="140.955,-206.734 136.641,-216.411 146.048,-211.536 140.955,-206.734"/>
</g>
<!-- Node4 -->
<g id="node4" class="node"><title>Node4</title>
<g id="a_node4"><a xlink:href="nl_solver_class_8cpp.html" target="_top" xlink:title="/home/ccrma/Development\l/montana/Libs/wdfClass\l/nlSolverClass.cpp">
<polygon fill="none" stroke="black" points="64.5,-72.5 64.5,-107.5 177.5,-107.5 177.5,-72.5 64.5,-72.5"/>
<text text-anchor="start" x="72.5" y="-97.1" font-family="Helvetica,sans-Serif" font-size="8.00">/home/ccrma/Development</text>
<text text-anchor="start" x="72.5" y="-88.1" font-family="Helvetica,sans-Serif" font-size="8.00">/montana/Libs/wdfClass</text>
<text text-anchor="middle" x="121" y="-79.1" font-family="Helvetica,sans-Serif" font-size="8.00">/nlSolverClass.cpp</text>
</a>
</g>
</g>
<!-- Node3&#45;&gt;Node4 -->
<g id="edge3" class="edge"><title>Node3&#45;&gt;Node4</title>
<path fill="none" stroke="midnightblue" d="M164.43,-137.062C155.407,-127.492 145.224,-116.692 136.987,-107.956"/>
<polygon fill="midnightblue" stroke="midnightblue" points="161.952,-139.536 171.359,-144.411 167.045,-134.734 161.952,-139.536"/>
</g>
<!-- Node5 -->
<g id="node5" class="node"><title>Node5</title>
<g id="a_node5"><a xlink:href="wdf_class_8h.html" target="_top" xlink:title="/home/ccrma/Development\l/montana/Libs/wdfClass\l/wdfClass.h">
<polygon fill="none" stroke="black" points="195.5,-72.5 195.5,-107.5 308.5,-107.5 308.5,-72.5 195.5,-72.5"/>
<text text-anchor="start" x="203.5" y="-97.1" font-family="Helvetica,sans-Serif" font-size="8.00">/home/ccrma/Development</text>
<text text-anchor="start" x="203.5" y="-88.1" font-family="Helvetica,sans-Serif" font-size="8.00">/montana/Libs/wdfClass</text>
<text text-anchor="middle" x="252" y="-79.1" font-family="Helvetica,sans-Serif" font-size="8.00">/wdfClass.h</text>
</a>
</g>
</g>
<!-- Node3&#45;&gt;Node5 -->
<g id="edge4" class="edge"><title>Node3&#45;&gt;Node5</title>
<path fill="none" stroke="midnightblue" d="M209.228,-137.062C218.114,-127.492 228.143,-116.692 236.255,-107.956"/>
<polygon fill="midnightblue" stroke="midnightblue" points="206.644,-134.701 202.404,-144.411 211.773,-139.465 206.644,-134.701"/>
</g>
<!-- Node6 -->
<g id="node6" class="node"><title>Node6</title>
<g id="a_node6"><a xlink:href="wdf_class_8cpp.html" target="_top" xlink:title="/home/ccrma/Development\l/montana/Libs/wdfClass\l/wdfClass.cpp">
<polygon fill="none" stroke="black" points="195.5,-0.5 195.5,-35.5 308.5,-35.5 308.5,-0.5 195.5,-0.5"/>
<text text-anchor="start" x="203.5" y="-25.1" font-family="Helvetica,sans-Serif" font-size="8.00">/home/ccrma/Development</text>
<text text-anchor="start" x="203.5" y="-16.1" font-family="Helvetica,sans-Serif" font-size="8.00">/montana/Libs/wdfClass</text>
<text text-anchor="middle" x="252" y="-7.1" font-family="Helvetica,sans-Serif" font-size="8.00">/wdfClass.cpp</text>
</a>
</g>
</g>
<!-- Node5&#45;&gt;Node6 -->
<g id="edge5" class="edge"><title>Node5&#45;&gt;Node6</title>
<path fill="none" stroke="midnightblue" d="M252,-62.1869C252,-53.3739 252,-43.8272 252,-35.9562"/>
<polygon fill="midnightblue" stroke="midnightblue" points="248.5,-62.4109 252,-72.411 255.5,-62.411 248.5,-62.4109"/>
</g>
</g>
</svg>
