<?xml version="1.0" encoding="UTF-8" standalone="no"?>
<!DOCTYPE svg PUBLIC "-//W3C//DTD SVG 1.1//EN"
 "http://www.w3.org/Graphics/SVG/1.1/DTD/svg11.dtd">
<!-- Generated by graphviz version 2.36.0 (20140111.2315)
 -->
<!-- Title: /home/ccrma/Development/montana/Libs/wdfClass/nlModelClass.h Pages: 1 -->
<svg width="133pt" height="98pt"
 viewBox="0.00 0.00 133.00 98.00" xmlns="http://www.w3.org/2000/svg" xmlns:xlink="http://www.w3.org/1999/xlink">
<g id="graph0" class="graph" transform="scale(1 1) rotate(0) translate(4 94)">
<title>/home/ccrma/Development/montana/Libs/wdfClass/nlModelClass.h</title>
<!-- Node1 -->
<g id="node1" class="node"><title>Node1</title>
<polygon fill="#bfbfbf" stroke="black" points="3.5,-54.5 3.5,-89.5 116.5,-89.5 116.5,-54.5 3.5,-54.5"/>
<text text-anchor="start" x="11.5" y="-79.1" font-family="Helvetica,sans-Serif" font-size="8.00">/home/ccrma/Development</text>
<text text-anchor="start" x="11.5" y="-70.1" font-family="Helvetica,sans-Serif" font-size="8.00">/montana/Libs/wdfClass</text>
<text text-anchor="middle" x="60" y="-61.1" font-family="Helvetica,sans-Serif" font-size="8.00">/nlModelClass.h</text>
</g>
<!-- Node2 -->
<g id="node2" class="node"><title>Node2</title>
<polygon fill="none" stroke="#bfbfbf" points="-0.5,-0.5 -0.5,-17.5 48.5,-17.5 48.5,-0.5 -0.5,-0.5"/>
<text text-anchor="middle" x="24" y="-7.1" font-family="Helvetica,sans-Serif" font-size="8.00">armadillo</text>
</g>
<!-- Node1&#45;&gt;Node2 -->
<g id="edge1" class="edge"><title>Node1&#45;&gt;Node2</title>
<path fill="none" stroke="midnightblue" d="M50.1628,-54.3315C45.0201,-45.6174 38.7495,-34.9922 33.6365,-26.3286"/>
<polygon fill="midnightblue" stroke="midnightblue" points="36.5744,-24.4202 28.4776,-17.587 30.5459,-27.978 36.5744,-24.4202"/>
</g>
<!-- Node3 -->
<g id="node3" class="node"><title>Node3</title>
<g id="a_node3"><a xlink:href="wdf_types_8h.html" target="_top" xlink:title="wdfTypes.h">
<polygon fill="none" stroke="black" points="67,-0.5 67,-17.5 125,-17.5 125,-0.5 67,-0.5"/>
<text text-anchor="middle" x="96" y="-7.1" font-family="Helvetica,sans-Serif" font-size="8.00">wdfTypes.h</text>
</a>
</g>
</g>
<!-- Node1&#45;&gt;Node3 -->
<g id="edge2" class="edge"><title>Node1&#45;&gt;Node3</title>
<path fill="none" stroke="midnightblue" d="M69.8372,-54.3315C74.9799,-45.6174 81.2505,-34.9922 86.3635,-26.3286"/>
<polygon fill="midnightblue" stroke="midnightblue" points="89.4541,-27.978 91.5224,-17.587 83.4256,-24.4202 89.4541,-27.978"/>
</g>
</g>
</svg>
