<?xml version="1.0" encoding="UTF-8" standalone="no"?>
<!DOCTYPE svg PUBLIC "-//W3C//DTD SVG 1.1//EN"
 "http://www.w3.org/Graphics/SVG/1.1/DTD/svg11.dtd">
<!-- Generated by graphviz version 2.36.0 (20140111.2315)
 -->
<!-- Title: /home/ccrma/Development/montana/Libs/wdfClass/nlSolverClass.h Pages: 1 -->
<svg width="216pt" height="152pt"
 viewBox="0.00 0.00 216.00 152.00" xmlns="http://www.w3.org/2000/svg" xmlns:xlink="http://www.w3.org/1999/xlink">
<g id="graph0" class="graph" transform="scale(1 1) rotate(0) translate(4 148)">
<title>/home/ccrma/Development/montana/Libs/wdfClass/nlSolverClass.h</title>
<!-- Node1 -->
<g id="node1" class="node"><title>Node1</title>
<polygon fill="#bfbfbf" stroke="black" points="41.5,-108.5 41.5,-143.5 154.5,-143.5 154.5,-108.5 41.5,-108.5"/>
<text text-anchor="start" x="49.5" y="-133.1" font-family="Helvetica,sans-Serif" font-size="8.00">/home/ccrma/Development</text>
<text text-anchor="start" x="49.5" y="-124.1" font-family="Helvetica,sans-Serif" font-size="8.00">/montana/Libs/wdfClass</text>
<text text-anchor="middle" x="98" y="-115.1" font-family="Helvetica,sans-Serif" font-size="8.00">/nlSolverClass.h</text>
</g>
<!-- Node2 -->
<g id="node2" class="node"><title>Node2</title>
<polygon fill="none" stroke="#bfbfbf" points="0,-54.5 0,-71.5 38,-71.5 38,-54.5 0,-54.5"/>
<text text-anchor="middle" x="19" y="-61.1" font-family="Helvetica,sans-Serif" font-size="8.00">float.h</text>
</g>
<!-- Node1&#45;&gt;Node2 -->
<g id="edge1" class="edge"><title>Node1&#45;&gt;Node2</title>
<path fill="none" stroke="midnightblue" d="M76.4129,-108.331C64.0353,-98.7741 48.6804,-86.9178 36.9653,-77.8719"/>
<polygon fill="midnightblue" stroke="midnightblue" points="38.8799,-74.9284 28.8258,-71.587 34.6018,-80.4689 38.8799,-74.9284"/>
</g>
<!-- Node3 -->
<g id="node3" class="node"><title>Node3</title>
<polygon fill="none" stroke="#bfbfbf" points="55.5,-0.5 55.5,-17.5 104.5,-17.5 104.5,-0.5 55.5,-0.5"/>
<text text-anchor="middle" x="80" y="-7.1" font-family="Helvetica,sans-Serif" font-size="8.00">armadillo</text>
</g>
<!-- Node1&#45;&gt;Node3 -->
<g id="edge2" class="edge"><title>Node1&#45;&gt;Node3</title>
<path fill="none" stroke="midnightblue" d="M93.2113,-108.431C90.3925,-98.0504 86.9986,-84.3451 85,-72 82.6197,-57.2975 81.3529,-40.4411 80.6907,-28.0191"/>
<polygon fill="midnightblue" stroke="midnightblue" points="84.1717,-27.5154 80.2245,-17.6833 77.1788,-27.8309 84.1717,-27.5154"/>
</g>
<!-- Node4 -->
<g id="node4" class="node"><title>Node4</title>
<g id="a_node4"><a xlink:href="nl_model_class_8h.html" target="_top" xlink:title="nlModelClass.h">
<polygon fill="none" stroke="black" points="94.5,-54.5 94.5,-71.5 165.5,-71.5 165.5,-54.5 94.5,-54.5"/>
<text text-anchor="middle" x="130" y="-61.1" font-family="Helvetica,sans-Serif" font-size="8.00">nlModelClass.h</text>
</a>
</g>
</g>
<!-- Node1&#45;&gt;Node4 -->
<g id="edge3" class="edge"><title>Node1&#45;&gt;Node4</title>
<path fill="none" stroke="midnightblue" d="M106.744,-108.331C111.266,-99.7111 116.77,-89.2204 121.287,-80.6087"/>
<polygon fill="midnightblue" stroke="midnightblue" points="124.474,-82.0684 126.02,-71.587 118.275,-78.8165 124.474,-82.0684"/>
</g>
<!-- Node5 -->
<g id="node5" class="node"><title>Node5</title>
<g id="a_node5"><a xlink:href="wdf_types_8h.html" target="_top" xlink:title="wdfTypes.h">
<polygon fill="none" stroke="black" points="151,-0.5 151,-17.5 209,-17.5 209,-0.5 151,-0.5"/>
<text text-anchor="middle" x="180" y="-7.1" font-family="Helvetica,sans-Serif" font-size="8.00">wdfTypes.h</text>
</a>
</g>
</g>
<!-- Node1&#45;&gt;Node5 -->
<g id="edge6" class="edge"><title>Node1&#45;&gt;Node5</title>
<path fill="none" stroke="midnightblue" d="M134.455,-108.32C149.222,-99.6408 164.905,-87.5523 174,-72 181.769,-58.7149 182.754,-41.0403 182.098,-27.962"/>
<polygon fill="midnightblue" stroke="midnightblue" points="185.574,-27.5399 181.227,-17.8781 178.6,-28.1422 185.574,-27.5399"/>
</g>
<!-- Node4&#45;&gt;Node3 -->
<g id="edge4" class="edge"><title>Node4&#45;&gt;Node3</title>
<path fill="none" stroke="midnightblue" d="M122.622,-54.3272C115.237,-46.6464 103.677,-34.6239 94.458,-25.0363"/>
<polygon fill="midnightblue" stroke="midnightblue" points="96.862,-22.4867 87.4079,-17.7043 91.8161,-27.3385 96.862,-22.4867"/>
</g>
<!-- Node4&#45;&gt;Node5 -->
<g id="edge5" class="edge"><title>Node4&#45;&gt;Node5</title>
<path fill="none" stroke="midnightblue" d="M137.378,-54.3272C144.763,-46.6464 156.323,-34.6239 165.542,-25.0363"/>
<polygon fill="midnightblue" stroke="midnightblue" points="168.184,-27.3385 172.592,-17.7043 163.138,-22.4867 168.184,-27.3385"/>
</g>
</g>
</svg>
