<?xml version="1.0" encoding="UTF-8" standalone="no"?>
<!DOCTYPE svg PUBLIC "-//W3C//DTD SVG 1.1//EN"
 "http://www.w3.org/Graphics/SVG/1.1/DTD/svg11.dtd">
<!-- Generated by graphviz version 2.36.0 (20140111.2315)
 -->
<!-- Title: /home/ccrma/Development/montana/Libs/wdfClass/nlSolverClass.h Pages: 1 -->
<svg width="251pt" height="188pt"
 viewBox="0.00 0.00 251.00 188.00" xmlns="http://www.w3.org/2000/svg" xmlns:xlink="http://www.w3.org/1999/xlink">
<g id="graph0" class="graph" transform="scale(1 1) rotate(0) translate(4 184)">
<title>/home/ccrma/Development/montana/Libs/wdfClass/nlSolverClass.h</title>
<!-- Node1 -->
<g id="node1" class="node"><title>Node1</title>
<polygon fill="#bfbfbf" stroke="black" points="64.5,-144.5 64.5,-179.5 177.5,-179.5 177.5,-144.5 64.5,-144.5"/>
<text text-anchor="start" x="72.5" y="-169.1" font-family="Helvetica,sans-Serif" font-size="8.00">/home/ccrma/Development</text>
<text text-anchor="start" x="72.5" y="-160.1" font-family="Helvetica,sans-Serif" font-size="8.00">/montana/Libs/wdfClass</text>
<text text-anchor="middle" x="121" y="-151.1" font-family="Helvetica,sans-Serif" font-size="8.00">/nlSolverClass.h</text>
</g>
<!-- Node2 -->
<g id="node2" class="node"><title>Node2</title>
<g id="a_node2"><a xlink:href="nl_solver_class_8cpp.html" target="_top" xlink:title="/home/ccrma/Development\l/montana/Libs/wdfClass\l/nlSolverClass.cpp">
<polygon fill="none" stroke="black" points="-0.5,-72.5 -0.5,-107.5 112.5,-107.5 112.5,-72.5 -0.5,-72.5"/>
<text text-anchor="start" x="7.5" y="-97.1" font-family="Helvetica,sans-Serif" font-size="8.00">/home/ccrma/Development</text>
<text text-anchor="start" x="7.5" y="-88.1" font-family="Helvetica,sans-Serif" font-size="8.00">/montana/Libs/wdfClass</text>
<text text-anchor="middle" x="56" y="-79.1" font-family="Helvetica,sans-Serif" font-size="8.00">/nlSolverClass.cpp</text>
</a>
</g>
</g>
<!-- Node1&#45;&gt;Node2 -->
<g id="edge1" class="edge"><title>Node1&#45;&gt;Node2</title>
<path fill="none" stroke="midnightblue" d="M98.7723,-137.062C89.8857,-127.492 79.8569,-116.692 71.7451,-107.956"/>
<polygon fill="midnightblue" stroke="midnightblue" points="96.2266,-139.465 105.596,-144.411 101.356,-134.701 96.2266,-139.465"/>
</g>
<!-- Node3 -->
<g id="node3" class="node"><title>Node3</title>
<g id="a_node3"><a xlink:href="wdf_class_8h.html" target="_top" xlink:title="/home/ccrma/Development\l/montana/Libs/wdfClass\l/wdfClass.h">
<polygon fill="none" stroke="black" points="130.5,-72.5 130.5,-107.5 243.5,-107.5 243.5,-72.5 130.5,-72.5"/>
<text text-anchor="start" x="138.5" y="-97.1" font-family="Helvetica,sans-Serif" font-size="8.00">/home/ccrma/Development</text>
<text text-anchor="start" x="138.5" y="-88.1" font-family="Helvetica,sans-Serif" font-size="8.00">/montana/Libs/wdfClass</text>
<text text-anchor="middle" x="187" y="-79.1" font-family="Helvetica,sans-Serif" font-size="8.00">/wdfClass.h</text>
</a>
</g>
</g>
<!-- Node1&#45;&gt;Node3 -->
<g id="edge2" class="edge"><title>Node1&#45;&gt;Node3</title>
<path fill="none" stroke="midnightblue" d="M143.57,-137.062C152.593,-127.492 162.776,-116.692 171.013,-107.956"/>
<polygon fill="midnightblue" stroke="midnightblue" points="140.955,-134.734 136.641,-144.411 146.048,-139.536 140.955,-134.734"/>
</g>
<!-- Node4 -->
<g id="node4" class="node"><title>Node4</title>
<g id="a_node4"><a xlink:href="wdf_class_8cpp.html" target="_top" xlink:title="/home/ccrma/Development\l/montana/Libs/wdfClass\l/wdfClass.cpp">
<polygon fill="none" stroke="black" points="130.5,-0.5 130.5,-35.5 243.5,-35.5 243.5,-0.5 130.5,-0.5"/>
<text text-anchor="start" x="138.5" y="-25.1" font-family="Helvetica,sans-Serif" font-size="8.00">/home/ccrma/Development</text>
<text text-anchor="start" x="138.5" y="-16.1" font-family="Helvetica,sans-Serif" font-size="8.00">/montana/Libs/wdfClass</text>
<text text-anchor="middle" x="187" y="-7.1" font-family="Helvetica,sans-Serif" font-size="8.00">/wdfClass.cpp</text>
</a>
</g>
</g>
<!-- Node3&#45;&gt;Node4 -->
<g id="edge3" class="edge"><title>Node3&#45;&gt;Node4</title>
<path fill="none" stroke="midnightblue" d="M187,-62.1869C187,-53.3739 187,-43.8272 187,-35.9562"/>
<polygon fill="midnightblue" stroke="midnightblue" points="183.5,-62.4109 187,-72.411 190.5,-62.411 183.5,-62.4109"/>
</g>
</g>
</svg>
