<?xml version="1.0" encoding="UTF-8" standalone="no"?>
<!DOCTYPE svg PUBLIC "-//W3C//DTD SVG 1.1//EN"
 "http://www.w3.org/Graphics/SVG/1.1/DTD/svg11.dtd">
<!-- Generated by graphviz version 2.36.0 (20140111.2315)
 -->
<!-- Title: /home/ccrma/Development/montana/Libs/wdfClass/nlSolverClass.cpp Pages: 1 -->
<svg width="216pt" height="206pt"
 viewBox="0.00 0.00 216.00 206.00" xmlns="http://www.w3.org/2000/svg" xmlns:xlink="http://www.w3.org/1999/xlink">
<g id="graph0" class="graph" transform="scale(1 1) rotate(0) translate(4 202)">
<title>/home/ccrma/Development/montana/Libs/wdfClass/nlSolverClass.cpp</title>
<!-- Node1 -->
<g id="node1" class="node"><title>Node1</title>
<polygon fill="#bfbfbf" stroke="black" points="41.5,-162.5 41.5,-197.5 154.5,-197.5 154.5,-162.5 41.5,-162.5"/>
<text text-anchor="start" x="49.5" y="-187.1" font-family="Helvetica,sans-Serif" font-size="8.00">/home/ccrma/Development</text>
<text text-anchor="start" x="49.5" y="-178.1" font-family="Helvetica,sans-Serif" font-size="8.00">/montana/Libs/wdfClass</text>
<text text-anchor="middle" x="98" y="-169.1" font-family="Helvetica,sans-Serif" font-size="8.00">/nlSolverClass.cpp</text>
</g>
<!-- Node2 -->
<g id="node2" class="node"><title>Node2</title>
<g id="a_node2"><a xlink:href="nl_solver_class_8h.html" target="_top" xlink:title="nlSolverClass.h">
<polygon fill="none" stroke="black" points="62.5,-108.5 62.5,-125.5 133.5,-125.5 133.5,-108.5 62.5,-108.5"/>
<text text-anchor="middle" x="98" y="-115.1" font-family="Helvetica,sans-Serif" font-size="8.00">nlSolverClass.h</text>
</a>
</g>
</g>
<!-- Node1&#45;&gt;Node2 -->
<g id="edge1" class="edge"><title>Node1&#45;&gt;Node2</title>
<path fill="none" stroke="midnightblue" d="M98,-162.331C98,-154.086 98,-144.129 98,-135.742"/>
<polygon fill="midnightblue" stroke="midnightblue" points="101.5,-135.587 98,-125.587 94.5001,-135.587 101.5,-135.587"/>
</g>
<!-- Node3 -->
<g id="node3" class="node"><title>Node3</title>
<polygon fill="none" stroke="#bfbfbf" points="0,-54.5 0,-71.5 38,-71.5 38,-54.5 0,-54.5"/>
<text text-anchor="middle" x="19" y="-61.1" font-family="Helvetica,sans-Serif" font-size="8.00">float.h</text>
</g>
<!-- Node2&#45;&gt;Node3 -->
<g id="edge2" class="edge"><title>Node2&#45;&gt;Node3</title>
<path fill="none" stroke="midnightblue" d="M86.3433,-108.327C73.9031,-100.139 53.9662,-87.0157 39.0071,-77.1692"/>
<polygon fill="midnightblue" stroke="midnightblue" points="40.725,-74.1098 30.4477,-71.5352 36.8763,-79.9569 40.725,-74.1098"/>
</g>
<!-- Node4 -->
<g id="node4" class="node"><title>Node4</title>
<polygon fill="none" stroke="#bfbfbf" points="55.5,-0.5 55.5,-17.5 104.5,-17.5 104.5,-0.5 55.5,-0.5"/>
<text text-anchor="middle" x="80" y="-7.1" font-family="Helvetica,sans-Serif" font-size="8.00">armadillo</text>
</g>
<!-- Node2&#45;&gt;Node4 -->
<g id="edge3" class="edge"><title>Node2&#45;&gt;Node4</title>
<path fill="none" stroke="midnightblue" d="M95.2059,-108.329C92.166,-99.641 87.4176,-84.9995 85,-72 82.2768,-57.3571 81.0366,-40.4961 80.4718,-28.0572"/>
<polygon fill="midnightblue" stroke="midnightblue" points="83.9573,-27.575 80.111,-17.703 76.9615,-27.8189 83.9573,-27.575"/>
</g>
<!-- Node5 -->
<g id="node5" class="node"><title>Node5</title>
<g id="a_node5"><a xlink:href="nl_model_class_8h.html" target="_top" xlink:title="nlModelClass.h">
<polygon fill="none" stroke="black" points="94.5,-54.5 94.5,-71.5 165.5,-71.5 165.5,-54.5 94.5,-54.5"/>
<text text-anchor="middle" x="130" y="-61.1" font-family="Helvetica,sans-Serif" font-size="8.00">nlModelClass.h</text>
</a>
</g>
</g>
<!-- Node2&#45;&gt;Node5 -->
<g id="edge4" class="edge"><title>Node2&#45;&gt;Node5</title>
<path fill="none" stroke="midnightblue" d="M102.722,-108.327C107.212,-101.03 114.114,-89.8153 119.851,-80.4919"/>
<polygon fill="midnightblue" stroke="midnightblue" points="122.999,-82.0552 125.259,-71.7043 117.037,-78.3865 122.999,-82.0552"/>
</g>
<!-- Node6 -->
<g id="node6" class="node"><title>Node6</title>
<g id="a_node6"><a xlink:href="wdf_types_8h.html" target="_top" xlink:title="wdfTypes.h">
<polygon fill="none" stroke="black" points="151,-0.5 151,-17.5 209,-17.5 209,-0.5 151,-0.5"/>
<text text-anchor="middle" x="180" y="-7.1" font-family="Helvetica,sans-Serif" font-size="8.00">wdfTypes.h</text>
</a>
</g>
</g>
<!-- Node2&#45;&gt;Node6 -->
<g id="edge7" class="edge"><title>Node2&#45;&gt;Node6</title>
<path fill="none" stroke="midnightblue" d="M122.827,-108.43C140.191,-101.758 162.295,-90.2123 174,-72 182.411,-58.9128 183.264,-40.9554 182.397,-27.7343"/>
<polygon fill="midnightblue" stroke="midnightblue" points="185.856,-27.16 181.339,-17.5763 178.894,-27.8851 185.856,-27.16"/>
</g>
<!-- Node5&#45;&gt;Node4 -->
<g id="edge5" class="edge"><title>Node5&#45;&gt;Node4</title>
<path fill="none" stroke="midnightblue" d="M122.622,-54.3272C115.237,-46.6464 103.677,-34.6239 94.458,-25.0363"/>
<polygon fill="midnightblue" stroke="midnightblue" points="96.862,-22.4867 87.4079,-17.7043 91.8161,-27.3385 96.862,-22.4867"/>
</g>
<!-- Node5&#45;&gt;Node6 -->
<g id="edge6" class="edge"><title>Node5&#45;&gt;Node6</title>
<path fill="none" stroke="midnightblue" d="M137.378,-54.3272C144.763,-46.6464 156.323,-34.6239 165.542,-25.0363"/>
<polygon fill="midnightblue" stroke="midnightblue" points="168.184,-27.3385 172.592,-17.7043 163.138,-22.4867 168.184,-27.3385"/>
</g>
</g>
</svg>
