<?xml version="1.0" encoding="UTF-8" standalone="no"?>
<!DOCTYPE svg PUBLIC "-//W3C//DTD SVG 1.1//EN"
 "http://www.w3.org/Graphics/SVG/1.1/DTD/svg11.dtd">
<!-- Generated by graphviz version 2.36.0 (20140111.2315)
 -->
<!-- Title: matData Pages: 1 -->
<svg width="57pt" height="194pt"
 viewBox="0.00 0.00 57.00 194.00" xmlns="http://www.w3.org/2000/svg" xmlns:xlink="http://www.w3.org/1999/xlink">
<g id="graph0" class="graph" transform="scale(1 1) rotate(0) translate(4 190)">
<title>matData</title>
<!-- Node1 -->
<g id="node1" class="node"><title>Node1</title>
<polygon fill="#bfbfbf" stroke="black" points="-0.5,-0.5 -0.5,-51.5 46.5,-51.5 46.5,-0.5 -0.5,-0.5"/>
<text text-anchor="middle" x="23" y="-41.1" font-family="Helvetica,sans-Serif" font-size="8.00">matData</text>
<polyline fill="none" stroke="black" points="-0.5,-34.5 46.5,-34.5 "/>
<text text-anchor="middle" x="23" y="-24.1" font-family="Helvetica,sans-Serif" font-size="8.00"> </text>
<polyline fill="none" stroke="black" points="-0.5,-17.5 46.5,-17.5 "/>
<text text-anchor="middle" x="23" y="-7.1" font-family="Helvetica,sans-Serif" font-size="8.00"> </text>
</g>
<!-- Node2 -->
<g id="node2" class="node"><title>Node2</title>
<polygon fill="none" stroke="#bfbfbf" points="8,-134.5 8,-185.5 38,-185.5 38,-134.5 8,-134.5"/>
<text text-anchor="middle" x="23" y="-175.1" font-family="Helvetica,sans-Serif" font-size="8.00">mat</text>
<polyline fill="none" stroke="#bfbfbf" points="8,-168.5 38,-168.5 "/>
<text text-anchor="middle" x="23" y="-158.1" font-family="Helvetica,sans-Serif" font-size="8.00"> </text>
<polyline fill="none" stroke="#bfbfbf" points="8,-151.5 38,-151.5 "/>
<text text-anchor="middle" x="23" y="-141.1" font-family="Helvetica,sans-Serif" font-size="8.00"> </text>
</g>
<!-- Node2&#45;&gt;Node1 -->
<g id="edge1" class="edge"><title>Node2&#45;&gt;Node1</title>
<path fill="none" stroke="#404040" d="M23,-134.481C23,-114.694 23,-86.5424 23,-64.0136"/>
<polygon fill="none" stroke="#404040" points="23.0001,-63.8355 19,-57.8355 23,-51.8355 27,-57.8354 23.0001,-63.8355"/>
<text text-anchor="middle" x="36" y="-109.1" font-family="Helvetica,sans-Serif" font-size="8.00"> +Emat</text>
<text text-anchor="middle" x="36" y="-100.1" font-family="Helvetica,sans-Serif" font-size="8.00">+Smat</text>
<text text-anchor="middle" x="36" y="-91.1" font-family="Helvetica,sans-Serif" font-size="8.00">+Nmat</text>
<text text-anchor="middle" x="36" y="-82.1" font-family="Helvetica,sans-Serif" font-size="8.00">+Mmat</text>
<text text-anchor="middle" x="36" y="-73.1" font-family="Helvetica,sans-Serif" font-size="8.00">+Fmat</text>
</g>
</g>
</svg>
