<?xml version="1.0" encoding="UTF-8" standalone="no"?>
<!DOCTYPE svg PUBLIC "-//W3C//DTD SVG 1.1//EN"
 "http://www.w3.org/Graphics/SVG/1.1/DTD/svg11.dtd">
<!-- Generated by graphviz version 2.36.0 (20140111.2315)
 -->
<!-- Title: /home/ccrma/Development/montana/Libs/wdfClass/wdfClass.cpp Pages: 1 -->
<svg width="442pt" height="270pt"
 viewBox="0.00 0.00 442.00 270.00" xmlns="http://www.w3.org/2000/svg" xmlns:xlink="http://www.w3.org/1999/xlink">
<g id="graph0" class="graph" transform="scale(1 1) rotate(0) translate(4 266)">
<title>/home/ccrma/Development/montana/Libs/wdfClass/wdfClass.cpp</title>
<!-- Node1 -->
<g id="node1" class="node"><title>Node1</title>
<polygon fill="#bfbfbf" stroke="black" points="126.5,-226.5 126.5,-261.5 239.5,-261.5 239.5,-226.5 126.5,-226.5"/>
<text text-anchor="start" x="134.5" y="-251.1" font-family="Helvetica,sans-Serif" font-size="8.00">/home/ccrma/Development</text>
<text text-anchor="start" x="134.5" y="-242.1" font-family="Helvetica,sans-Serif" font-size="8.00">/montana/Libs/wdfClass</text>
<text text-anchor="middle" x="183" y="-233.1" font-family="Helvetica,sans-Serif" font-size="8.00">/wdfClass.cpp</text>
</g>
<!-- Node2 -->
<g id="node2" class="node"><title>Node2</title>
<g id="a_node2"><a xlink:href="wdf_class_8h.html" target="_top" xlink:title="wdfClass.h">
<polygon fill="none" stroke="black" points="155,-172.5 155,-189.5 211,-189.5 211,-172.5 155,-172.5"/>
<text text-anchor="middle" x="183" y="-179.1" font-family="Helvetica,sans-Serif" font-size="8.00">wdfClass.h</text>
</a>
</g>
</g>
<!-- Node1&#45;&gt;Node2 -->
<g id="edge1" class="edge"><title>Node1&#45;&gt;Node2</title>
<path fill="none" stroke="midnightblue" d="M183,-226.331C183,-218.086 183,-208.129 183,-199.742"/>
<polygon fill="midnightblue" stroke="midnightblue" points="186.5,-199.587 183,-189.587 179.5,-199.587 186.5,-199.587"/>
</g>
<!-- Node3 -->
<g id="node3" class="node"><title>Node3</title>
<polygon fill="none" stroke="#bfbfbf" points="-0.5,-109 -0.5,-135 90.5,-135 90.5,-109 -0.5,-109"/>
<text text-anchor="start" x="7.5" y="-124.6" font-family="Helvetica,sans-Serif" font-size="8.00">../../JuceLibraryCode</text>
<text text-anchor="middle" x="45" y="-115.6" font-family="Helvetica,sans-Serif" font-size="8.00">/JuceHeader.h</text>
</g>
<!-- Node2&#45;&gt;Node3 -->
<g id="edge2" class="edge"><title>Node2&#45;&gt;Node3</title>
<path fill="none" stroke="midnightblue" d="M164.675,-172.431C144.106,-163.935 110.147,-149.908 83.6471,-138.963"/>
<polygon fill="midnightblue" stroke="midnightblue" points="84.8391,-135.669 74.2603,-135.086 82.1668,-142.138 84.8391,-135.669"/>
</g>
<!-- Node4 -->
<g id="node4" class="node"><title>Node4</title>
<polygon fill="none" stroke="#bfbfbf" points="109,-113.5 109,-130.5 155,-130.5 155,-113.5 109,-113.5"/>
<text text-anchor="middle" x="132" y="-120.1" font-family="Helvetica,sans-Serif" font-size="8.00">memory</text>
</g>
<!-- Node2&#45;&gt;Node4 -->
<g id="edge3" class="edge"><title>Node2&#45;&gt;Node4</title>
<path fill="none" stroke="midnightblue" d="M175.909,-172.074C168.144,-163.396 155.504,-149.269 145.775,-138.395"/>
<polygon fill="midnightblue" stroke="midnightblue" points="148.307,-135.977 139.031,-130.858 143.091,-140.645 148.307,-135.977"/>
</g>
<!-- Node5 -->
<g id="node5" class="node"><title>Node5</title>
<polygon fill="none" stroke="#bfbfbf" points="196.5,-0.5 196.5,-17.5 245.5,-17.5 245.5,-0.5 196.5,-0.5"/>
<text text-anchor="middle" x="221" y="-7.1" font-family="Helvetica,sans-Serif" font-size="8.00">armadillo</text>
</g>
<!-- Node2&#45;&gt;Node5 -->
<g id="edge4" class="edge"><title>Node2&#45;&gt;Node5</title>
<path fill="none" stroke="midnightblue" d="M184.732,-172.254C190.444,-146.699 208.792,-64.6155 216.984,-27.9655"/>
<polygon fill="midnightblue" stroke="midnightblue" points="220.492,-28.3145 219.258,-17.7918 213.661,-26.7874 220.492,-28.3145"/>
</g>
<!-- Node6 -->
<g id="node6" class="node"><title>Node6</title>
<g id="a_node6"><a xlink:href="nl_solver_class_8h.html" target="_top" xlink:title="nlSolverClass.h">
<polygon fill="none" stroke="black" points="232.5,-113.5 232.5,-130.5 303.5,-130.5 303.5,-113.5 232.5,-113.5"/>
<text text-anchor="middle" x="268" y="-120.1" font-family="Helvetica,sans-Serif" font-size="8.00">nlSolverClass.h</text>
</a>
</g>
</g>
<!-- Node2&#45;&gt;Node6 -->
<g id="edge5" class="edge"><title>Node2&#45;&gt;Node6</title>
<path fill="none" stroke="midnightblue" d="M194.463,-172.313C208.228,-163.082 231.542,-147.448 248.231,-136.257"/>
<polygon fill="midnightblue" stroke="midnightblue" points="250.362,-139.042 256.718,-130.565 246.463,-133.228 250.362,-139.042"/>
</g>
<!-- Node9 -->
<g id="node9" class="node"><title>Node9</title>
<g id="a_node9"><a xlink:href="wdf_types_8h.html" target="_top" xlink:title="wdfTypes.h">
<polygon fill="none" stroke="black" points="376,-0.5 376,-17.5 434,-17.5 434,-0.5 376,-0.5"/>
<text text-anchor="middle" x="405" y="-7.1" font-family="Helvetica,sans-Serif" font-size="8.00">wdfTypes.h</text>
</a>
</g>
</g>
<!-- Node2&#45;&gt;Node9 -->
<g id="edge12" class="edge"><title>Node2&#45;&gt;Node9</title>
<path fill="none" stroke="midnightblue" d="M211.089,-176.57C261.502,-168.674 365.645,-143.985 404,-72 411.204,-58.4792 410.708,-40.8309 408.846,-27.8226"/>
<polygon fill="midnightblue" stroke="midnightblue" points="412.256,-27.0148 407.018,-17.8058 405.37,-28.2718 412.256,-27.0148"/>
</g>
<!-- Node6&#45;&gt;Node5 -->
<g id="edge7" class="edge"><title>Node6&#45;&gt;Node5</title>
<path fill="none" stroke="midnightblue" d="M262.882,-113.302C256.79,-103.879 246.613,-87.2875 240,-72 233.708,-57.4551 228.591,-40.1598 225.259,-27.5365"/>
<polygon fill="midnightblue" stroke="midnightblue" points="228.65,-26.6697 222.806,-17.8326 221.864,-28.3855 228.65,-26.6697"/>
</g>
<!-- Node7 -->
<g id="node7" class="node"><title>Node7</title>
<polygon fill="none" stroke="#bfbfbf" points="249,-54.5 249,-71.5 287,-71.5 287,-54.5 249,-54.5"/>
<text text-anchor="middle" x="268" y="-61.1" font-family="Helvetica,sans-Serif" font-size="8.00">float.h</text>
</g>
<!-- Node6&#45;&gt;Node7 -->
<g id="edge6" class="edge"><title>Node6&#45;&gt;Node7</title>
<path fill="none" stroke="midnightblue" d="M268,-113.074C268,-105.077 268,-92.4516 268,-82.0096"/>
<polygon fill="midnightblue" stroke="midnightblue" points="271.5,-81.8583 268,-71.8583 264.5,-81.8583 271.5,-81.8583"/>
</g>
<!-- Node8 -->
<g id="node8" class="node"><title>Node8</title>
<g id="a_node8"><a xlink:href="nl_model_class_8h.html" target="_top" xlink:title="nlModelClass.h">
<polygon fill="none" stroke="black" points="305.5,-54.5 305.5,-71.5 376.5,-71.5 376.5,-54.5 305.5,-54.5"/>
<text text-anchor="middle" x="341" y="-61.1" font-family="Helvetica,sans-Serif" font-size="8.00">nlModelClass.h</text>
</a>
</g>
</g>
<!-- Node6&#45;&gt;Node8 -->
<g id="edge8" class="edge"><title>Node6&#45;&gt;Node8</title>
<path fill="none" stroke="midnightblue" d="M277.845,-113.313C289.447,-104.253 308.951,-89.0249 323.22,-77.883"/>
<polygon fill="midnightblue" stroke="midnightblue" points="325.583,-80.4785 331.311,-71.5655 321.275,-74.9612 325.583,-80.4785"/>
</g>
<!-- Node6&#45;&gt;Node9 -->
<g id="edge11" class="edge"><title>Node6&#45;&gt;Node9</title>
<path fill="none" stroke="midnightblue" d="M303.539,-114.41C329.445,-107.849 363.619,-95.2702 385,-72 396.12,-59.8979 401.06,-41.5583 403.253,-27.9617"/>
<polygon fill="midnightblue" stroke="midnightblue" points="406.743,-28.257 404.524,-17.8971 399.798,-27.3796 406.743,-28.257"/>
</g>
<!-- Node8&#45;&gt;Node5 -->
<g id="edge9" class="edge"><title>Node8&#45;&gt;Node5</title>
<path fill="none" stroke="midnightblue" d="M323.551,-54.4388C303.644,-45.8123 270.861,-31.6064 247.728,-21.5821"/>
<polygon fill="midnightblue" stroke="midnightblue" points="249.037,-18.3351 238.47,-17.5704 246.254,-24.758 249.037,-18.3351"/>
</g>
<!-- Node8&#45;&gt;Node9 -->
<g id="edge10" class="edge"><title>Node8&#45;&gt;Node9</title>
<path fill="none" stroke="midnightblue" d="M350.443,-54.3272C360.18,-46.416 375.586,-33.8986 387.547,-24.1802"/>
<polygon fill="midnightblue" stroke="midnightblue" points="389.964,-26.7266 395.518,-17.7043 385.55,-21.2938 389.964,-26.7266"/>
</g>
</g>
</svg>
