<?xml version="1.0" encoding="UTF-8" standalone="no"?>
<!DOCTYPE svg PUBLIC "-//W3C//DTD SVG 1.1//EN"
 "http://www.w3.org/Graphics/SVG/1.1/DTD/svg11.dtd">
<!-- Generated by graphviz version 2.36.0 (20140111.2315)
 -->
<!-- Title: /home/ccrma/Development/montana/Libs/wdfClass/wdfClass.h Pages: 1 -->
<svg width="442pt" height="216pt"
 viewBox="0.00 0.00 442.00 216.00" xmlns="http://www.w3.org/2000/svg" xmlns:xlink="http://www.w3.org/1999/xlink">
<g id="graph0" class="graph" transform="scale(1 1) rotate(0) translate(4 212)">
<title>/home/ccrma/Development/montana/Libs/wdfClass/wdfClass.h</title>
<!-- Node1 -->
<g id="node1" class="node"><title>Node1</title>
<polygon fill="#bfbfbf" stroke="black" points="126.5,-172.5 126.5,-207.5 239.5,-207.5 239.5,-172.5 126.5,-172.5"/>
<text text-anchor="start" x="134.5" y="-197.1" font-family="Helvetica,sans-Serif" font-size="8.00">/home/ccrma/Development</text>
<text text-anchor="start" x="134.5" y="-188.1" font-family="Helvetica,sans-Serif" font-size="8.00">/montana/Libs/wdfClass</text>
<text text-anchor="middle" x="183" y="-179.1" font-family="Helvetica,sans-Serif" font-size="8.00">/wdfClass.h</text>
</g>
<!-- Node2 -->
<g id="node2" class="node"><title>Node2</title>
<polygon fill="none" stroke="#bfbfbf" points="-0.5,-109 -0.5,-135 90.5,-135 90.5,-109 -0.5,-109"/>
<text text-anchor="start" x="7.5" y="-124.6" font-family="Helvetica,sans-Serif" font-size="8.00">../../JuceLibraryCode</text>
<text text-anchor="middle" x="45" y="-115.6" font-family="Helvetica,sans-Serif" font-size="8.00">/JuceHeader.h</text>
</g>
<!-- Node1&#45;&gt;Node2 -->
<g id="edge1" class="edge"><title>Node1&#45;&gt;Node2</title>
<path fill="none" stroke="midnightblue" d="M148.177,-172.345C127.127,-162.278 100.401,-149.496 79.4235,-139.463"/>
<polygon fill="midnightblue" stroke="midnightblue" points="80.7625,-136.224 70.2311,-135.067 77.7423,-142.539 80.7625,-136.224"/>
</g>
<!-- Node3 -->
<g id="node3" class="node"><title>Node3</title>
<polygon fill="none" stroke="#bfbfbf" points="109,-113.5 109,-130.5 155,-130.5 155,-113.5 109,-113.5"/>
<text text-anchor="middle" x="132" y="-120.1" font-family="Helvetica,sans-Serif" font-size="8.00">memory</text>
</g>
<!-- Node1&#45;&gt;Node3 -->
<g id="edge2" class="edge"><title>Node1&#45;&gt;Node3</title>
<path fill="none" stroke="midnightblue" d="M170.131,-172.345C162.097,-161.949 151.826,-148.657 143.968,-138.488"/>
<polygon fill="midnightblue" stroke="midnightblue" points="146.685,-136.28 137.801,-130.507 141.146,-140.56 146.685,-136.28"/>
</g>
<!-- Node4 -->
<g id="node4" class="node"><title>Node4</title>
<polygon fill="none" stroke="#bfbfbf" points="196.5,-0.5 196.5,-17.5 245.5,-17.5 245.5,-0.5 196.5,-0.5"/>
<text text-anchor="middle" x="221" y="-7.1" font-family="Helvetica,sans-Serif" font-size="8.00">armadillo</text>
</g>
<!-- Node1&#45;&gt;Node4 -->
<g id="edge3" class="edge"><title>Node1&#45;&gt;Node4</title>
<path fill="none" stroke="midnightblue" d="M186.507,-172.481C193.671,-138.734 209.929,-62.1518 217.274,-27.5509"/>
<polygon fill="midnightblue" stroke="midnightblue" points="220.744,-28.0575 219.398,-17.5486 213.897,-26.6038 220.744,-28.0575"/>
</g>
<!-- Node5 -->
<g id="node5" class="node"><title>Node5</title>
<g id="a_node5"><a xlink:href="nl_solver_class_8h.html" target="_top" xlink:title="nlSolverClass.h">
<polygon fill="none" stroke="black" points="232.5,-113.5 232.5,-130.5 303.5,-130.5 303.5,-113.5 232.5,-113.5"/>
<text text-anchor="middle" x="268" y="-120.1" font-family="Helvetica,sans-Serif" font-size="8.00">nlSolverClass.h</text>
</a>
</g>
</g>
<!-- Node1&#45;&gt;Node5 -->
<g id="edge4" class="edge"><title>Node1&#45;&gt;Node5</title>
<path fill="none" stroke="midnightblue" d="M204.449,-172.345C218.65,-161.319 237.046,-147.035 250.389,-136.675"/>
<polygon fill="midnightblue" stroke="midnightblue" points="252.58,-139.404 258.332,-130.507 248.287,-133.875 252.58,-139.404"/>
</g>
<!-- Node8 -->
<g id="node8" class="node"><title>Node8</title>
<g id="a_node8"><a xlink:href="wdf_types_8h.html" target="_top" xlink:title="wdfTypes.h">
<polygon fill="none" stroke="black" points="376,-0.5 376,-17.5 434,-17.5 434,-0.5 376,-0.5"/>
<text text-anchor="middle" x="405" y="-7.1" font-family="Helvetica,sans-Serif" font-size="8.00">wdfTypes.h</text>
</a>
</g>
</g>
<!-- Node1&#45;&gt;Node8 -->
<g id="edge11" class="edge"><title>Node1&#45;&gt;Node8</title>
<path fill="none" stroke="midnightblue" d="M239.653,-177.709C293.662,-163.49 371.439,-133.111 404,-72 411.204,-58.4792 410.708,-40.8309 408.846,-27.8226"/>
<polygon fill="midnightblue" stroke="midnightblue" points="412.256,-27.0148 407.018,-17.8058 405.37,-28.2718 412.256,-27.0148"/>
</g>
<!-- Node5&#45;&gt;Node4 -->
<g id="edge6" class="edge"><title>Node5&#45;&gt;Node4</title>
<path fill="none" stroke="midnightblue" d="M262.882,-113.302C256.79,-103.879 246.613,-87.2875 240,-72 233.708,-57.4551 228.591,-40.1598 225.259,-27.5365"/>
<polygon fill="midnightblue" stroke="midnightblue" points="228.65,-26.6697 222.806,-17.8326 221.864,-28.3855 228.65,-26.6697"/>
</g>
<!-- Node6 -->
<g id="node6" class="node"><title>Node6</title>
<polygon fill="none" stroke="#bfbfbf" points="249,-54.5 249,-71.5 287,-71.5 287,-54.5 249,-54.5"/>
<text text-anchor="middle" x="268" y="-61.1" font-family="Helvetica,sans-Serif" font-size="8.00">float.h</text>
</g>
<!-- Node5&#45;&gt;Node6 -->
<g id="edge5" class="edge"><title>Node5&#45;&gt;Node6</title>
<path fill="none" stroke="midnightblue" d="M268,-113.074C268,-105.077 268,-92.4516 268,-82.0096"/>
<polygon fill="midnightblue" stroke="midnightblue" points="271.5,-81.8583 268,-71.8583 264.5,-81.8583 271.5,-81.8583"/>
</g>
<!-- Node7 -->
<g id="node7" class="node"><title>Node7</title>
<g id="a_node7"><a xlink:href="nl_model_class_8h.html" target="_top" xlink:title="nlModelClass.h">
<polygon fill="none" stroke="black" points="305.5,-54.5 305.5,-71.5 376.5,-71.5 376.5,-54.5 305.5,-54.5"/>
<text text-anchor="middle" x="341" y="-61.1" font-family="Helvetica,sans-Serif" font-size="8.00">nlModelClass.h</text>
</a>
</g>
</g>
<!-- Node5&#45;&gt;Node7 -->
<g id="edge7" class="edge"><title>Node5&#45;&gt;Node7</title>
<path fill="none" stroke="midnightblue" d="M277.845,-113.313C289.447,-104.253 308.951,-89.0249 323.22,-77.883"/>
<polygon fill="midnightblue" stroke="midnightblue" points="325.583,-80.4785 331.311,-71.5655 321.275,-74.9612 325.583,-80.4785"/>
</g>
<!-- Node5&#45;&gt;Node8 -->
<g id="edge10" class="edge"><title>Node5&#45;&gt;Node8</title>
<path fill="none" stroke="midnightblue" d="M303.539,-114.41C329.445,-107.849 363.619,-95.2702 385,-72 396.12,-59.8979 401.06,-41.5583 403.253,-27.9617"/>
<polygon fill="midnightblue" stroke="midnightblue" points="406.743,-28.257 404.524,-17.8971 399.798,-27.3796 406.743,-28.257"/>
</g>
<!-- Node7&#45;&gt;Node4 -->
<g id="edge8" class="edge"><title>Node7&#45;&gt;Node4</title>
<path fill="none" stroke="midnightblue" d="M323.551,-54.4388C303.644,-45.8123 270.861,-31.6064 247.728,-21.5821"/>
<polygon fill="midnightblue" stroke="midnightblue" points="249.037,-18.3351 238.47,-17.5704 246.254,-24.758 249.037,-18.3351"/>
</g>
<!-- Node7&#45;&gt;Node8 -->
<g id="edge9" class="edge"><title>Node7&#45;&gt;Node8</title>
<path fill="none" stroke="midnightblue" d="M350.443,-54.3272C360.18,-46.416 375.586,-33.8986 387.547,-24.1802"/>
<polygon fill="midnightblue" stroke="midnightblue" points="389.964,-26.7266 395.518,-17.7043 385.55,-21.2938 389.964,-26.7266"/>
</g>
</g>
</svg>
