<?xml version="1.0" encoding="UTF-8" standalone="no"?>
<!DOCTYPE svg PUBLIC "-//W3C//DTD SVG 1.1//EN"
 "http://www.w3.org/Graphics/SVG/1.1/DTD/svg11.dtd">
<!-- Generated by graphviz version 2.36.0 (20140111.2315)
 -->
<!-- Title: /home/ccrma/Development/montana/Libs/wdfClass/wdfTypes.h Pages: 1 -->
<svg width="336pt" height="332pt"
 viewBox="0.00 0.00 336.00 332.00" xmlns="http://www.w3.org/2000/svg" xmlns:xlink="http://www.w3.org/1999/xlink">
<g id="graph0" class="graph" transform="scale(1 1) rotate(0) translate(4 328)">
<title>/home/ccrma/Development/montana/Libs/wdfClass/wdfTypes.h</title>
<!-- Node1 -->
<g id="node1" class="node"><title>Node1</title>
<polygon fill="#bfbfbf" stroke="black" points="154.5,-288.5 154.5,-323.5 267.5,-323.5 267.5,-288.5 154.5,-288.5"/>
<text text-anchor="start" x="162.5" y="-313.1" font-family="Helvetica,sans-Serif" font-size="8.00">/home/ccrma/Development</text>
<text text-anchor="start" x="162.5" y="-304.1" font-family="Helvetica,sans-Serif" font-size="8.00">/montana/Libs/wdfClass</text>
<text text-anchor="middle" x="211" y="-295.1" font-family="Helvetica,sans-Serif" font-size="8.00">/wdfTypes.h</text>
</g>
<!-- Node2 -->
<g id="node2" class="node"><title>Node2</title>
<g id="a_node2"><a xlink:href="nl_model_class_8h.html" target="_top" xlink:title="/home/ccrma/Development\l/montana/Libs/wdfClass\l/nlModelClass.h">
<polygon fill="none" stroke="black" points="69.5,-216.5 69.5,-251.5 182.5,-251.5 182.5,-216.5 69.5,-216.5"/>
<text text-anchor="start" x="77.5" y="-241.1" font-family="Helvetica,sans-Serif" font-size="8.00">/home/ccrma/Development</text>
<text text-anchor="start" x="77.5" y="-232.1" font-family="Helvetica,sans-Serif" font-size="8.00">/montana/Libs/wdfClass</text>
<text text-anchor="middle" x="126" y="-223.1" font-family="Helvetica,sans-Serif" font-size="8.00">/nlModelClass.h</text>
</a>
</g>
</g>
<!-- Node1&#45;&gt;Node2 -->
<g id="edge1" class="edge"><title>Node1&#45;&gt;Node2</title>
<path fill="none" stroke="midnightblue" d="M182.904,-281.862C170.94,-272.009 157.248,-260.734 146.294,-251.713"/>
<polygon fill="midnightblue" stroke="midnightblue" points="180.912,-284.756 190.856,-288.411 185.362,-279.352 180.912,-284.756"/>
</g>
<!-- Node4 -->
<g id="node4" class="node"><title>Node4</title>
<g id="a_node4"><a xlink:href="nl_solver_class_8h.html" target="_top" xlink:title="/home/ccrma/Development\l/montana/Libs/wdfClass\l/nlSolverClass.h">
<polygon fill="none" stroke="black" points="130.5,-144.5 130.5,-179.5 243.5,-179.5 243.5,-144.5 130.5,-144.5"/>
<text text-anchor="start" x="138.5" y="-169.1" font-family="Helvetica,sans-Serif" font-size="8.00">/home/ccrma/Development</text>
<text text-anchor="start" x="138.5" y="-160.1" font-family="Helvetica,sans-Serif" font-size="8.00">/montana/Libs/wdfClass</text>
<text text-anchor="middle" x="187" y="-151.1" font-family="Helvetica,sans-Serif" font-size="8.00">/nlSolverClass.h</text>
</a>
</g>
</g>
<!-- Node1&#45;&gt;Node4 -->
<g id="edge7" class="edge"><title>Node1&#45;&gt;Node4</title>
<path fill="none" stroke="midnightblue" d="M206.476,-278.234C201.594,-249.349 193.968,-204.227 189.857,-179.902"/>
<polygon fill="midnightblue" stroke="midnightblue" points="203.082,-279.156 208.2,-288.433 209.984,-277.989 203.082,-279.156"/>
</g>
<!-- Node6 -->
<g id="node6" class="node"><title>Node6</title>
<g id="a_node6"><a xlink:href="wdf_class_8h.html" target="_top" xlink:title="/home/ccrma/Development\l/montana/Libs/wdfClass\l/wdfClass.h">
<polygon fill="none" stroke="black" points="215.5,-72.5 215.5,-107.5 328.5,-107.5 328.5,-72.5 215.5,-72.5"/>
<text text-anchor="start" x="223.5" y="-97.1" font-family="Helvetica,sans-Serif" font-size="8.00">/home/ccrma/Development</text>
<text text-anchor="start" x="223.5" y="-88.1" font-family="Helvetica,sans-Serif" font-size="8.00">/montana/Libs/wdfClass</text>
<text text-anchor="middle" x="272" y="-79.1" font-family="Helvetica,sans-Serif" font-size="8.00">/wdfClass.h</text>
</a>
</g>
</g>
<!-- Node1&#45;&gt;Node6 -->
<g id="edge8" class="edge"><title>Node1&#45;&gt;Node6</title>
<path fill="none" stroke="midnightblue" d="M220.471,-278.619C229.303,-253.473 242.504,-214.446 252,-180 258.902,-154.962 265.169,-125.478 268.782,-107.52"/>
<polygon fill="midnightblue" stroke="midnightblue" points="217.126,-277.579 217.09,-288.173 223.725,-279.913 217.126,-277.579"/>
</g>
<!-- Node3 -->
<g id="node3" class="node"><title>Node3</title>
<g id="a_node3"><a xlink:href="nl_model_class_8cpp.html" target="_top" xlink:title="/home/ccrma/Development\l/montana/Libs/wdfClass\l/nlModelClass.cpp">
<polygon fill="none" stroke="black" points="-0.5,-144.5 -0.5,-179.5 112.5,-179.5 112.5,-144.5 -0.5,-144.5"/>
<text text-anchor="start" x="7.5" y="-169.1" font-family="Helvetica,sans-Serif" font-size="8.00">/home/ccrma/Development</text>
<text text-anchor="start" x="7.5" y="-160.1" font-family="Helvetica,sans-Serif" font-size="8.00">/montana/Libs/wdfClass</text>
<text text-anchor="middle" x="56" y="-151.1" font-family="Helvetica,sans-Serif" font-size="8.00">/nlModelClass.cpp</text>
</a>
</g>
</g>
<!-- Node2&#45;&gt;Node3 -->
<g id="edge2" class="edge"><title>Node2&#45;&gt;Node3</title>
<path fill="none" stroke="midnightblue" d="M102.062,-209.062C92.4923,-199.492 81.6921,-188.692 72.9562,-179.956"/>
<polygon fill="midnightblue" stroke="midnightblue" points="99.865,-211.815 109.411,-216.411 104.815,-206.865 99.865,-211.815"/>
</g>
<!-- Node2&#45;&gt;Node4 -->
<g id="edge3" class="edge"><title>Node2&#45;&gt;Node4</title>
<path fill="none" stroke="midnightblue" d="M147.108,-208.778C155.386,-199.279 164.687,-188.606 172.224,-179.956"/>
<polygon fill="midnightblue" stroke="midnightblue" points="144.387,-206.572 140.456,-216.411 149.665,-211.171 144.387,-206.572"/>
</g>
<!-- Node5 -->
<g id="node5" class="node"><title>Node5</title>
<g id="a_node5"><a xlink:href="nl_solver_class_8cpp.html" target="_top" xlink:title="/home/ccrma/Development\l/montana/Libs/wdfClass\l/nlSolverClass.cpp">
<polygon fill="none" stroke="black" points="84.5,-72.5 84.5,-107.5 197.5,-107.5 197.5,-72.5 84.5,-72.5"/>
<text text-anchor="start" x="92.5" y="-97.1" font-family="Helvetica,sans-Serif" font-size="8.00">/home/ccrma/Development</text>
<text text-anchor="start" x="92.5" y="-88.1" font-family="Helvetica,sans-Serif" font-size="8.00">/montana/Libs/wdfClass</text>
<text text-anchor="middle" x="141" y="-79.1" font-family="Helvetica,sans-Serif" font-size="8.00">/nlSolverClass.cpp</text>
</a>
</g>
</g>
<!-- Node4&#45;&gt;Node5 -->
<g id="edge4" class="edge"><title>Node4&#45;&gt;Node5</title>
<path fill="none" stroke="midnightblue" d="M170.519,-135.92C164.421,-126.64 157.656,-116.346 152.143,-107.956"/>
<polygon fill="midnightblue" stroke="midnightblue" points="167.682,-137.976 176.099,-144.411 173.532,-134.132 167.682,-137.976"/>
</g>
<!-- Node4&#45;&gt;Node6 -->
<g id="edge5" class="edge"><title>Node4&#45;&gt;Node6</title>
<path fill="none" stroke="midnightblue" d="M215.096,-137.862C227.06,-128.009 240.752,-116.734 251.706,-107.713"/>
<polygon fill="midnightblue" stroke="midnightblue" points="212.638,-135.352 207.144,-144.411 217.088,-140.756 212.638,-135.352"/>
</g>
<!-- Node7 -->
<g id="node7" class="node"><title>Node7</title>
<g id="a_node7"><a xlink:href="wdf_class_8cpp.html" target="_top" xlink:title="/home/ccrma/Development\l/montana/Libs/wdfClass\l/wdfClass.cpp">
<polygon fill="none" stroke="black" points="215.5,-0.5 215.5,-35.5 328.5,-35.5 328.5,-0.5 215.5,-0.5"/>
<text text-anchor="start" x="223.5" y="-25.1" font-family="Helvetica,sans-Serif" font-size="8.00">/home/ccrma/Development</text>
<text text-anchor="start" x="223.5" y="-16.1" font-family="Helvetica,sans-Serif" font-size="8.00">/montana/Libs/wdfClass</text>
<text text-anchor="middle" x="272" y="-7.1" font-family="Helvetica,sans-Serif" font-size="8.00">/wdfClass.cpp</text>
</a>
</g>
</g>
<!-- Node6&#45;&gt;Node7 -->
<g id="edge6" class="edge"><title>Node6&#45;&gt;Node7</title>
<path fill="none" stroke="midnightblue" d="M272,-62.1869C272,-53.3739 272,-43.8272 272,-35.9562"/>
<polygon fill="midnightblue" stroke="midnightblue" points="268.5,-62.4109 272,-72.411 275.5,-62.411 268.5,-62.4109"/>
</g>
</g>
</svg>
